<svg xmlns="http://www.w3.org/2000/svg" width="375" viewBox="0 0 375 375" height="375" version="1.0"><g><g><g><path d="M 26.40625 -21.015625 C 30.070312 -21.453125 33.296875 -22.035156 36.078125 -22.765625 C 38.566406 -23.503906 40.4375 -24.019531 41.6875 -24.3125 C 41.832031 -24.382812 42.050781 -24.421875 42.34375 -24.421875 C 42.789062 -24.421875 43.160156 -24.273438 43.453125 -23.984375 C 43.960938 -23.535156 44.21875 -22.984375 44.21875 -22.328125 L 43.234375 -5.171875 C 43.234375 -4.066406 42.679688 -3.441406 41.578125 -3.296875 C 33.515625 -1.972656 26.734375 -1.054688 21.234375 -0.546875 C 17.710938 -0.179688 14.410156 0 11.328125 0 C 9.710938 0 8.503906 -0.0351562 7.703125 -0.109375 C 4.179688 -0.398438 1.6875 -1.644531 0.21875 -3.84375 C -0.65625 -5.53125 -1.09375 -7.21875 -1.09375 -8.90625 C -1.09375 -10.300781 -0.835938 -11.878906 -0.328125 -13.640625 C 0.546875 -16.421875 1.789062 -18.988281 3.40625 -21.34375 L 11.21875 -33.21875 L 11.21875 -33.328125 C 14.082031 -37.140625 17.195312 -41.578125 20.5625 -46.640625 C 20.71875 -46.785156 20.847656 -46.984375 20.953125 -47.234375 C 21.066406 -47.492188 21.234375 -47.769531 21.453125 -48.0625 L 21.5625 -48.0625 L 22 -48.296875 L 22 -48.515625 C 22 -48.585938 21.890625 -48.660156 21.671875 -48.734375 C 21.960938 -49.316406 22.472656 -50.5625 23.203125 -52.46875 C 23.203125 -52.539062 23.3125 -52.941406 23.53125 -53.671875 C 23.757812 -54.410156 23.835938 -54.960938 23.765625 -55.328125 C 23.691406 -55.328125 23.65625 -55.363281 23.65625 -55.4375 C 23.507812 -55.582031 23.210938 -55.65625 22.765625 -55.65625 C 21.816406 -55.65625 20.625 -55.398438 19.1875 -54.890625 C 17.757812 -54.378906 16.460938 -53.863281 15.296875 -53.34375 C 12.796875 -52.175781 9.128906 -50.125 4.296875 -47.1875 C 4.066406 -47.039062 3.734375 -46.96875 3.296875 -46.96875 C 2.710938 -46.96875 2.21875 -47.148438 1.8125 -47.515625 C 1.40625 -47.878906 1.203125 -48.359375 1.203125 -48.953125 L 1.875 -69.625 C 1.875 -70.582031 2.3125 -71.207031 3.1875 -71.5 C 9.9375 -73.625 15.144531 -74.976562 18.8125 -75.5625 C 21.894531 -76.15625 24.863281 -76.453125 27.71875 -76.453125 C 30.65625 -76.453125 33.257812 -76.15625 35.53125 -75.5625 C 39.414062 -74.613281 42.238281 -72.835938 44 -70.234375 C 45.757812 -67.628906 46.640625 -64.640625 46.640625 -61.265625 C 46.640625 -58.554688 46.195312 -56.101562 45.3125 -53.90625 C 43.925781 -50.164062 42.535156 -47.15625 41.140625 -44.875 L 41.140625 -44.765625 L 36.734375 -37.84375 Z M 27.0625 -70.734375 C 27.570312 -70.734375 27.9375 -70.507812 28.15625 -70.0625 C 28.445312 -70.582031 28.445312 -70.988281 28.15625 -71.28125 C 27.71875 -71.132812 27.460938 -71.0625 27.390625 -71.0625 L 26.734375 -70.734375 Z M 29.8125 -70.515625 C 29.8125 -70.367188 29.882812 -70.21875 30.03125 -70.0625 C 30.175781 -69.914062 30.320312 -69.804688 30.46875 -69.734375 C 30.539062 -69.734375 30.59375 -69.769531 30.625 -69.84375 C 30.664062 -69.914062 30.722656 -69.988281 30.796875 -70.0625 L 30.796875 -70.515625 Z M 25.84375 -68.859375 C 25.625 -68.859375 25.515625 -68.785156 25.515625 -68.640625 C 26.109375 -68.640625 26.625 -68.675781 27.0625 -68.75 L 27.390625 -68.75 C 27.828125 -68.75 28.046875 -68.492188 28.046875 -67.984375 L 27.28125 -67.4375 C 27.132812 -67.28125 27.0625 -67.128906 27.0625 -66.984375 C 27.9375 -66.546875 28.78125 -66.4375 29.59375 -66.65625 C 29.300781 -66.800781 29.117188 -66.984375 29.046875 -67.203125 C 28.972656 -67.429688 29.007812 -67.617188 29.15625 -67.765625 L 29.703125 -68.203125 C 29.921875 -68.421875 30.03125 -68.566406 30.03125 -68.640625 L 28.15625 -68.96875 L 26.40625 -69.1875 C 26.175781 -68.96875 25.988281 -68.859375 25.84375 -68.859375 Z M 30.140625 -66 L 30.578125 -66 L 30.578125 -66.21875 L 30.140625 -66.21875 Z M 29.15625 -64.015625 C 29.15625 -63.796875 29.242188 -63.59375 29.421875 -63.40625 C 29.609375 -63.226562 29.847656 -63.140625 30.140625 -63.140625 L 30.359375 -63.25 L 31.125 -63.25 L 30.90625 -64.125 L 30.359375 -64.453125 C 30.210938 -64.523438 30.03125 -64.5625 29.8125 -64.5625 C 29.59375 -64.5625 29.410156 -64.488281 29.265625 -64.34375 Z M 25.078125 -62.921875 C 25.222656 -63.066406 25.113281 -63.175781 24.75 -63.25 L 24.75 -63.03125 Z M 19.03125 -62.703125 L 19.03125 -62.265625 L 19.359375 -62.265625 C 19.503906 -62.410156 19.578125 -62.484375 19.578125 -62.484375 L 19.796875 -62.703125 Z M 28.15625 -61.59375 C 28.226562 -61.59375 28.265625 -61.628906 28.265625 -61.703125 C 28.265625 -61.859375 28.226562 -61.972656 28.15625 -62.046875 C 28.15625 -62.046875 28.132812 -62.023438 28.09375 -61.984375 C 28.0625 -61.953125 28.046875 -61.9375 28.046875 -61.9375 C 28.046875 -61.9375 28.023438 -61.914062 27.984375 -61.875 C 27.953125 -61.832031 27.9375 -61.773438 27.9375 -61.703125 C 27.9375 -61.628906 28.007812 -61.59375 28.15625 -61.59375 Z M 20.453125 -61.8125 C 20.160156 -61.8125 19.976562 -61.628906 19.90625 -61.265625 L 20.015625 -61.15625 L 21.015625 -61.15625 C 21.160156 -61.15625 21.269531 -61.191406 21.34375 -61.265625 C 21.125 -61.410156 21.015625 -61.554688 21.015625 -61.703125 L 21.125 -61.9375 Z M 26.625 -60.71875 C 26.625 -60.9375 26.476562 -61.046875 26.1875 -61.046875 C 25.957031 -60.972656 25.84375 -60.9375 25.84375 -60.9375 L 25.84375 -60.609375 L 26.1875 -60.5 C 26.1875 -60.5 26.257812 -60.425781 26.40625 -60.28125 L 26.625 -60.5 Z M 26.40625 -60.171875 C 26.257812 -59.804688 25.851562 -59.625 25.1875 -59.625 C 25.1875 -59.550781 25.238281 -59.421875 25.34375 -59.234375 C 25.457031 -59.046875 25.585938 -58.953125 25.734375 -58.953125 C 25.953125 -58.953125 26.0625 -59.03125 26.0625 -59.1875 C 26.21875 -59.332031 26.40625 -59.40625 26.625 -59.40625 C 26.695312 -59.40625 26.804688 -59.476562 26.953125 -59.625 L 26.953125 -59.84375 C 26.953125 -59.988281 26.878906 -60.0625 26.734375 -60.0625 C 26.585938 -60.0625 26.476562 -60.097656 26.40625 -60.171875 Z M 20.6875 -59.1875 L 21.015625 -59.625 C 20.867188 -59.695312 20.644531 -59.734375 20.34375 -59.734375 C 20.050781 -59.734375 19.90625 -59.660156 19.90625 -59.515625 C 20.050781 -59.367188 20.160156 -59.296875 20.234375 -59.296875 Z M 15.625 -58.40625 C 15.625 -58.550781 15.550781 -58.695312 15.40625 -58.84375 L 15.0625 -58.734375 L 14.84375 -58.734375 L 14.953125 -58.296875 Z M 29.375 -57.859375 L 29.15625 -58.078125 L 28.59375 -57.859375 L 29.15625 -57.53125 C 29.15625 -57.53125 29.171875 -57.546875 29.203125 -57.578125 C 29.242188 -57.617188 29.265625 -57.640625 29.265625 -57.640625 Z M 26.40625 -57.09375 C 26.40625 -57.019531 26.476562 -56.984375 26.625 -56.984375 C 26.625 -56.984375 26.640625 -56.960938 26.671875 -56.921875 C 26.710938 -56.890625 26.734375 -56.875 26.734375 -56.875 C 26.804688 -56.945312 26.953125 -56.984375 27.171875 -56.984375 C 27.171875 -57.203125 27.023438 -57.347656 26.734375 -57.421875 C 26.515625 -57.347656 26.40625 -57.238281 26.40625 -57.09375 Z M 25.078125 -57.09375 C 25.222656 -57.019531 25.332031 -57.019531 25.40625 -57.09375 L 25.84375 -57.09375 L 25.40625 -57.3125 C 25.1875 -57.3125 25.078125 -57.238281 25.078125 -57.09375 Z M 21.671875 -56.65625 C 21.816406 -56.800781 21.890625 -56.910156 21.890625 -56.984375 C 21.890625 -57.128906 21.78125 -57.203125 21.5625 -57.203125 L 21.234375 -57.203125 C 21.085938 -57.054688 21.015625 -56.945312 21.015625 -56.875 L 21.125 -56.65625 Z M 37.625 -51.15625 L 37.734375 -51.484375 L 37.625 -51.59375 L 37.515625 -51.265625 Z M 39.484375 -50.375 C 39.410156 -50.15625 39.425781 -49.972656 39.53125 -49.828125 C 39.644531 -49.679688 39.816406 -49.609375 40.046875 -49.609375 C 40.117188 -49.535156 40.265625 -49.5 40.484375 -49.5 C 40.847656 -49.5 41.175781 -49.644531 41.46875 -49.9375 C 41.613281 -50.226562 41.6875 -50.375 41.6875 -50.375 L 41.796875 -50.703125 L 41.140625 -50.8125 L 40.484375 -50.9375 L 39.9375 -50.59375 Z M 33.875 -48.734375 C 33.800781 -48.734375 33.707031 -48.75 33.59375 -48.78125 C 33.488281 -48.820312 33.398438 -48.804688 33.328125 -48.734375 L 33.4375 -48.625 C 33.4375 -48.476562 33.488281 -48.40625 33.59375 -48.40625 C 33.707031 -48.40625 33.800781 -48.441406 33.875 -48.515625 Z M 39.59375 -47.40625 L 39.9375 -47.515625 C 39.9375 -47.734375 39.820312 -47.84375 39.59375 -47.84375 L 39.265625 -47.734375 L 39.265625 -47.1875 Z M 34.4375 -46.3125 C 34.4375 -46.382812 34.488281 -46.4375 34.59375 -46.46875 C 34.707031 -46.507812 34.835938 -46.566406 34.984375 -46.640625 L 34.875 -46.859375 L 34.4375 -46.96875 C 34.0625 -47.113281 33.875 -47.039062 33.875 -46.75 L 33.875 -46.53125 Z M 30.796875 -46.75 C 30.578125 -46.96875 30.359375 -46.96875 30.140625 -46.75 L 30.46875 -46.640625 Z M 36.515625 -45.765625 C 36.660156 -45.765625 36.660156 -45.835938 36.515625 -45.984375 C 36.367188 -46.054688 36.296875 -46.164062 36.296875 -46.3125 C 36.222656 -46.3125 36.1875 -46.382812 36.1875 -46.53125 C 36.1875 -46.53125 36.203125 -46.546875 36.234375 -46.578125 C 36.273438 -46.617188 36.296875 -46.640625 36.296875 -46.640625 L 36.296875 -46.75 L 35.859375 -46.859375 C 35.640625 -46.859375 35.457031 -46.785156 35.3125 -46.640625 L 35.09375 -46.53125 C 35.601562 -46.238281 35.75 -45.875 35.53125 -45.4375 C 36.039062 -45.4375 36.367188 -45.546875 36.515625 -45.765625 Z M 39.8125 -45.875 C 39.519531 -45.875 39.300781 -45.835938 39.15625 -45.765625 C 39.15625 -45.460938 39.226562 -45.3125 39.375 -45.3125 L 39.8125 -45.4375 Z M 38.9375 -44.875 C 38.570312 -44.65625 38.460938 -44.472656 38.609375 -44.328125 L 38.828125 -44.21875 L 39.046875 -44.65625 L 39.15625 -44.984375 Z M 31.34375 -43.34375 C 31.125 -43.195312 30.941406 -43.195312 30.796875 -43.34375 C 30.578125 -43.34375 30.46875 -43.414062 30.46875 -43.5625 L 30.359375 -42.90625 C 30.210938 -42.757812 30.359375 -42.535156 30.796875 -42.234375 L 31.015625 -42.34375 L 31.453125 -43.125 Z M 29.265625 -42.234375 C 29.117188 -42.378906 29.046875 -42.488281 29.046875 -42.5625 L 28.703125 -42.796875 L 28.375 -42.234375 C 28.820312 -42.160156 29.046875 -42.085938 29.046875 -42.015625 Z M 33.984375 -41.90625 C 33.984375 -42.050781 33.945312 -42.125 33.875 -42.125 L 33.65625 -42.234375 C 33.289062 -42.160156 33.070312 -42.03125 33 -41.84375 C 32.925781 -41.664062 33.035156 -41.539062 33.328125 -41.46875 L 33.765625 -41.6875 C 33.765625 -41.6875 33.78125 -41.703125 33.8125 -41.734375 C 33.851562 -41.773438 33.875 -41.796875 33.875 -41.796875 Z M 37.0625 -41.46875 C 37.0625 -41.394531 37.132812 -41.300781 37.28125 -41.1875 C 37.4375 -41.082031 37.585938 -41.066406 37.734375 -41.140625 L 37.953125 -41.578125 L 37.84375 -41.6875 C 37.320312 -41.976562 37.0625 -41.976562 37.0625 -41.6875 Z M 30.796875 -38.828125 C 31.015625 -38.828125 31.125 -38.898438 31.125 -39.046875 L 30.796875 -39.59375 L 30.90625 -39.8125 L 30.90625 -40.375 C 30.90625 -40.738281 30.722656 -40.992188 30.359375 -41.140625 C 30.210938 -41.285156 30.140625 -41.285156 30.140625 -41.140625 L 29.921875 -41.140625 C 30.140625 -40.847656 30.25 -40.664062 30.25 -40.59375 C 30.25 -40.59375 30.175781 -40.519531 30.03125 -40.375 L 29.8125 -40.265625 L 29.703125 -39.8125 C 29.703125 -39.375 29.882812 -39.082031 30.25 -38.9375 C 30.320312 -38.9375 30.375 -38.914062 30.40625 -38.875 C 30.445312 -38.84375 30.503906 -38.863281 30.578125 -38.9375 Z M 29.265625 -39.484375 C 29.265625 -39.703125 29.003906 -39.925781 28.484375 -40.15625 C 28.046875 -40.082031 27.789062 -39.929688 27.71875 -39.703125 C 27.644531 -39.554688 27.660156 -39.390625 27.765625 -39.203125 C 27.878906 -39.023438 27.972656 -38.9375 28.046875 -38.9375 L 28.375 -38.828125 C 28.519531 -38.828125 28.664062 -38.878906 28.8125 -38.984375 C 28.96875 -39.097656 29.082031 -39.226562 29.15625 -39.375 Z M 32.890625 -37.515625 C 32.960938 -37.585938 33 -37.695312 33 -37.84375 C 32.707031 -37.914062 32.453125 -37.914062 32.234375 -37.84375 L 32.234375 -37.40625 L 32.671875 -37.296875 C 32.671875 -37.296875 32.742188 -37.367188 32.890625 -37.515625 Z M 31.34375 -37.515625 L 31.34375 -37.40625 L 31.796875 -37.1875 L 31.90625 -37.296875 Z M 29.8125 -35.859375 C 30.101562 -35.859375 30.25 -36.003906 30.25 -36.296875 L 30.359375 -36.515625 C 30.140625 -36.660156 30.03125 -36.769531 30.03125 -36.84375 L 29.703125 -36.625 C 29.554688 -36.476562 29.484375 -36.332031 29.484375 -36.1875 L 29.484375 -36.078125 Z M 28.15625 -35.53125 L 28.046875 -35.53125 C 28.046875 -35.457031 28.007812 -35.421875 27.9375 -35.421875 L 27.9375 -35.3125 C 27.9375 -35.238281 27.988281 -35.179688 28.09375 -35.140625 C 28.207031 -35.109375 28.335938 -35.128906 28.484375 -35.203125 L 28.59375 -35.421875 L 28.375 -35.421875 Z M 30.03125 -34.765625 C 30.320312 -34.984375 30.429688 -35.164062 30.359375 -35.3125 L 29.8125 -35.3125 C 29.957031 -35.164062 30.03125 -34.984375 30.03125 -34.765625 Z M 26.296875 -33.328125 C 26.367188 -33.253906 26.515625 -33.179688 26.734375 -33.109375 C 26.953125 -33.035156 27.132812 -33 27.28125 -33 L 27.5 -33.21875 C 27.425781 -33.289062 27.390625 -33.507812 27.390625 -33.875 L 27.0625 -33.984375 Z M 26.1875 -33.328125 C 26.1875 -33.472656 26.144531 -33.582031 26.0625 -33.65625 L 25.625 -33.65625 C 25.550781 -33.65625 25.515625 -33.507812 25.515625 -33.21875 C 25.804688 -33.21875 25.953125 -33.179688 25.953125 -33.109375 C 26.023438 -33.109375 26.0625 -33.144531 26.0625 -33.21875 L 26.1875 -33.21875 Z M 31.5625 -32.5625 C 31.5625 -32.707031 31.488281 -32.78125 31.34375 -32.78125 C 31.269531 -32.707031 31.269531 -32.671875 31.34375 -32.671875 Z M 26.734375 -29.921875 C 26.878906 -30.066406 26.878906 -30.140625 26.734375 -30.140625 L 26.734375 -30.25 L 27.0625 -31.234375 L 27.5 -32.125 L 27.5 -32.234375 L 27.171875 -32.234375 C 27.097656 -32.304688 27.023438 -32.320312 26.953125 -32.28125 C 26.878906 -32.25 26.804688 -32.234375 26.734375 -32.234375 L 26.734375 -31.796875 C 26.734375 -31.566406 26.625 -31.378906 26.40625 -31.234375 C 26.257812 -31.160156 26.144531 -31.03125 26.0625 -30.84375 C 25.988281 -30.664062 25.914062 -30.539062 25.84375 -30.46875 L 25.515625 -29.921875 C 25.367188 -29.703125 25.40625 -29.445312 25.625 -29.15625 L 25.953125 -29.15625 L 26.515625 -29.59375 C 26.660156 -29.738281 26.734375 -29.847656 26.734375 -29.921875 Z M 29.15625 -30.90625 C 29.300781 -31.050781 29.300781 -31.160156 29.15625 -31.234375 C 28.851562 -31.535156 28.703125 -31.6875 28.703125 -31.6875 C 28.554688 -31.6875 28.445312 -31.644531 28.375 -31.5625 L 27.9375 -31.015625 L 28.046875 -30.90625 L 28.265625 -30.796875 L 28.703125 -30.6875 C 28.859375 -30.6875 29.007812 -30.757812 29.15625 -30.90625 Z M 23.546875 -30.25 C 23.472656 -30.175781 23.4375 -30.066406 23.4375 -29.921875 C 23.507812 -29.921875 23.546875 -29.847656 23.546875 -29.703125 L 24.3125 -29.375 C 24.3125 -29.59375 24.347656 -29.738281 24.421875 -29.8125 C 24.273438 -29.8125 24.164062 -29.847656 24.09375 -29.921875 C 24.019531 -29.921875 24 -29.9375 24.03125 -29.96875 C 24.070312 -30.007812 24.128906 -30.03125 24.203125 -30.03125 L 24.3125 -30.140625 C 24.3125 -30.210938 24.203125 -30.394531 23.984375 -30.6875 Z M 21.5625 -29.265625 C 21.851562 -29.265625 22.070312 -29.300781 22.21875 -29.375 L 21.890625 -29.703125 L 21.5625 -29.703125 L 21.453125 -29.375 Z M 25.40625 -28.375 L 25.625 -28.375 L 25.734375 -28.8125 Z M 22.65625 -27.5 C 22.65625 -27.570312 22.582031 -27.753906 22.4375 -28.046875 C 22.289062 -28.335938 22.179688 -28.484375 22.109375 -28.484375 C 22.109375 -28.484375 21.960938 -28.335938 21.671875 -28.046875 L 21.5625 -27.9375 C 21.414062 -27.570312 21.523438 -27.351562 21.890625 -27.28125 C 22.179688 -27.570312 22.4375 -27.644531 22.65625 -27.5 Z M 18.046875 -26.734375 L 18.265625 -26.84375 L 17.8125 -26.953125 L 17.703125 -26.625 Z M 18.8125 -26.734375 C 18.664062 -26.585938 18.703125 -26.476562 18.921875 -26.40625 C 18.992188 -26.476562 19.03125 -26.625 19.03125 -26.84375 Z M 28.046875 -26.1875 L 27.609375 -26.1875 L 27.5 -26.0625 L 27.5 -25.953125 C 27.5 -25.660156 27.644531 -25.515625 27.9375 -25.515625 C 28.082031 -25.660156 28.15625 -25.804688 28.15625 -25.953125 L 28.15625 -26.0625 Z M 21.015625 -25.078125 C 20.941406 -25.003906 20.90625 -24.894531 20.90625 -24.75 C 20.90625 -24.53125 21.050781 -24.382812 21.34375 -24.3125 C 21.632812 -24.238281 21.890625 -24.238281 22.109375 -24.3125 L 22.21875 -24.53125 L 22.21875 -24.859375 C 22.21875 -25.003906 22.179688 -25.078125 22.109375 -25.078125 L 21.453125 -25.296875 C 21.304688 -25.296875 21.160156 -25.222656 21.015625 -25.078125 Z M 21.015625 -23.765625 L 21.015625 -23.875 L 20.6875 -24.09375 L 20.6875 -23.875 Z M 35.75 -17.15625 C 35.601562 -17.15625 35.53125 -17.046875 35.53125 -16.828125 L 35.859375 -16.71875 C 35.859375 -16.9375 35.820312 -17.082031 35.75 -17.15625 Z M 35.53125 -15.953125 C 35.53125 -15.878906 35.546875 -15.804688 35.578125 -15.734375 C 35.617188 -15.660156 35.640625 -15.585938 35.640625 -15.515625 L 35.859375 -15.515625 L 35.859375 -15.953125 Z M 17.484375 -15.515625 C 17.484375 -15.660156 17.410156 -15.734375 17.265625 -15.734375 L 17.046875 -15.734375 C 16.753906 -15.734375 16.570312 -15.660156 16.5 -15.515625 C 16.644531 -15.367188 16.9375 -15.21875 17.375 -15.0625 C 17.375 -15.21875 17.410156 -15.296875 17.484375 -15.296875 Z M 31.796875 -14.078125 C 31.796875 -14.222656 31.679688 -14.113281 31.453125 -13.75 L 32.015625 -13.75 L 32.34375 -14.1875 L 32.234375 -14.1875 L 32.125 -14.296875 C 32.050781 -14.296875 31.941406 -14.222656 31.796875 -14.078125 Z M 9.34375 -13.53125 C 9.269531 -13.53125 9.234375 -13.566406 9.234375 -13.640625 L 8.6875 -13.640625 C 8.539062 -13.492188 8.46875 -13.382812 8.46875 -13.3125 L 9.125 -13.3125 Z M 24.75 -13.640625 L 24.421875 -13.640625 L 24.3125 -13.421875 L 24.859375 -13.3125 L 25.078125 -13.421875 L 25.078125 -13.53125 Z M 23.09375 -13.3125 L 22.65625 -13.203125 L 22.65625 -12.875 C 22.875 -12.65625 22.984375 -12.46875 22.984375 -12.3125 C 22.984375 -12.09375 23.171875 -11.984375 23.546875 -11.984375 L 23.765625 -11.984375 C 23.691406 -12.128906 23.582031 -12.203125 23.4375 -12.203125 L 23.203125 -12.3125 L 23.203125 -12.765625 L 23.765625 -13.203125 Z M 40.265625 -12.984375 C 39.960938 -12.984375 39.8125 -12.910156 39.8125 -12.765625 C 39.8125 -12.691406 39.890625 -12.582031 40.046875 -12.4375 L 40.375 -12.65625 L 40.375 -12.765625 Z M 37.296875 -12.3125 L 37.40625 -12.546875 L 37.296875 -12.546875 L 37.0625 -12.4375 Z M 11.109375 -11.875 C 10.816406 -12.019531 10.597656 -12.09375 10.453125 -12.09375 L 10.015625 -11.984375 L 9.5625 -11.875 L 9.5625 -11.546875 L 10.125 -11.4375 C 10.195312 -11.507812 10.34375 -11.546875 10.5625 -11.546875 C 10.707031 -11.398438 10.890625 -11.4375 11.109375 -11.65625 Z M 29.046875 -11.875 C 29.046875 -11.875 29.023438 -11.851562 28.984375 -11.8125 C 28.953125 -11.78125 28.9375 -11.765625 28.9375 -11.765625 C 28.9375 -11.472656 29.191406 -11.328125 29.703125 -11.328125 C 29.847656 -11.328125 29.957031 -11.363281 30.03125 -11.4375 L 30.46875 -11.4375 L 30.578125 -11.65625 C 30.429688 -11.800781 30.285156 -11.910156 30.140625 -11.984375 C 29.992188 -12.054688 29.882812 -12.054688 29.8125 -11.984375 L 29.046875 -11.984375 Z M 39.703125 -11.65625 C 39.859375 -11.507812 40.082031 -11.4375 40.375 -11.4375 L 40.8125 -11.546875 L 40.8125 -11.765625 L 40.484375 -11.875 C 40.484375 -11.945312 40.410156 -11.984375 40.265625 -11.984375 L 40.15625 -11.875 L 39.9375 -11.765625 Z M 3.625 -11.546875 C 3.769531 -11.691406 3.84375 -11.800781 3.84375 -11.875 L 3.1875 -11.875 C 3.113281 -11.875 3.078125 -11.800781 3.078125 -11.65625 L 3.1875 -11.4375 C 3.257812 -11.507812 3.40625 -11.546875 3.625 -11.546875 Z M 38.609375 -11.4375 C 38.679688 -11.363281 38.71875 -11.363281 38.71875 -11.4375 C 38.789062 -11.726562 38.753906 -11.875 38.609375 -11.875 L 38.609375 -11.765625 L 38.5 -11.765625 L 38.5 -11.65625 Z M 1.203125 -11.4375 L 1.203125 -11.21875 L 1.4375 -11.328125 L 1.546875 -11.4375 Z M 23.875 -9.234375 C 23.800781 -9.304688 23.597656 -9.398438 23.265625 -9.515625 C 22.929688 -9.628906 22.65625 -9.6875 22.4375 -9.6875 L 21.890625 -9.6875 C 21.523438 -9.6875 21.269531 -9.644531 21.125 -9.5625 L 19.90625 -9.5625 L 19.25 -9.6875 C 19.175781 -9.757812 19.03125 -9.796875 18.8125 -9.796875 L 18.265625 -9.6875 L 17.703125 -9.234375 Z M 32.890625 -9.796875 C 32.890625 -9.796875 32.816406 -9.609375 32.671875 -9.234375 L 40.375 -9.234375 C 40.300781 -9.304688 39.878906 -9.398438 39.109375 -9.515625 C 38.335938 -9.628906 37.695312 -9.6875 37.1875 -9.6875 C 37.101562 -9.6875 37.023438 -9.664062 36.953125 -9.625 C 36.878906 -9.582031 36.734375 -9.5625 36.515625 -9.5625 C 36.296875 -9.5625 36.128906 -9.539062 36.015625 -9.5 C 35.910156 -9.46875 35.820312 -9.453125 35.75 -9.453125 L 35.203125 -9.453125 C 34.910156 -9.453125 34.46875 -9.53125 33.875 -9.6875 C 33.726562 -9.757812 33.546875 -9.796875 33.328125 -9.796875 Z M 32.890625 -9.796875" transform="translate(80.197 231.375)"/></g></g></g><g><g><g><path d="M 45.203125 -41.25 C 42.640625 -46.96875 38.535156 -50.5625 32.890625 -52.03125 L 32.78125 -52.03125 C 30.945312 -52.394531 29.1875 -52.578125 27.5 -52.578125 C 26.03125 -52.578125 24.050781 -52.429688 21.5625 -52.140625 L 22 -56.65625 L 40.375 -58.078125 C 41.613281 -58.222656 42.234375 -58.882812 42.234375 -60.0625 L 43.234375 -74.796875 C 43.234375 -75.390625 43.050781 -75.90625 42.6875 -76.34375 C 42.164062 -76.78125 41.613281 -77 41.03125 -77 L 7.15625 -75.015625 C 6.050781 -75.015625 5.425781 -74.46875 5.28125 -73.375 L 4.84375 -69.84375 L 8.578125 -69.84375 C 9.753906 -69.84375 10.671875 -69.878906 11.328125 -69.953125 C 14.773438 -69.953125 18.8125 -70.101562 23.4375 -70.40625 C 26.21875 -70.476562 29.332031 -70.40625 32.78125 -70.1875 L 32.78125 -69.625 C 32.488281 -69.914062 32.082031 -70.0625 31.5625 -70.0625 C 30.976562 -69.988281 30.140625 -69.769531 29.046875 -69.40625 C 28.597656 -69.1875 28.191406 -69.078125 27.828125 -69.078125 L 27.9375 -68.640625 L 26.625 -69.515625 C 24.789062 -69.734375 23.101562 -69.84375 21.5625 -69.84375 C 19.21875 -69.695312 17.457031 -69.625 16.28125 -69.625 C 15.101562 -69.550781 13.34375 -69.515625 11 -69.515625 C 9.3125 -69.515625 7.585938 -69.625 5.828125 -69.84375 C 5.679688 -69.40625 5.460938 -69.222656 5.171875 -69.296875 L 4.734375 -69.40625 L 0.875 -40.921875 L 0.765625 -39.59375 C 0.765625 -39.226562 0.835938 -38.609375 0.984375 -37.734375 C 1.128906 -36.703125 1.585938 -35.816406 2.359375 -35.078125 C 3.128906 -34.347656 4.210938 -33.984375 5.609375 -33.984375 C 6.265625 -33.984375 6.960938 -34.09375 7.703125 -34.3125 C 11.441406 -35.195312 14.519531 -35.820312 16.9375 -36.1875 C 18.113281 -36.332031 19.101562 -36.40625 19.90625 -36.40625 C 21.664062 -36.40625 22.988281 -36.078125 23.875 -35.421875 C 25.113281 -34.316406 25.734375 -32.847656 25.734375 -31.015625 C 25.734375 -29.921875 25.492188 -28.820312 25.015625 -27.71875 C 24.546875 -26.613281 23.90625 -25.660156 23.09375 -24.859375 C 21.039062 -22.734375 17.632812 -21.226562 12.875 -20.34375 C 10.75 -19.976562 6.785156 -19.796875 0.984375 -19.796875 C 0.328125 -19.796875 -0.195312 -19.539062 -0.59375 -19.03125 C -1 -18.519531 -1.128906 -17.96875 -0.984375 -17.375 L 1.765625 -1.65625 C 1.984375 -0.550781 2.710938 0 3.953125 0 L 9.5625 -0.328125 C 18 -0.765625 24.894531 -1.9375 30.25 -3.84375 C 40 -7.4375 45.679688 -14.992188 47.296875 -26.515625 L 47.296875 -26.625 C 47.441406 -28.382812 47.515625 -29.664062 47.515625 -30.46875 C 47.515625 -34.351562 46.742188 -37.945312 45.203125 -41.25 Z M 37.84375 -69.953125 C 37.550781 -69.953125 37.332031 -69.914062 37.1875 -69.84375 C 37.03125 -69.769531 36.894531 -69.769531 36.78125 -69.84375 C 36.675781 -69.914062 36.625 -69.988281 36.625 -70.0625 C 36.625 -70.363281 36.882812 -70.550781 37.40625 -70.625 C 37.695312 -70.769531 37.84375 -70.546875 37.84375 -69.953125 Z M 26.515625 -46.640625 L 26.515625 -46.96875 L 27.390625 -46.96875 C 27.390625 -46.75 27.460938 -46.492188 27.609375 -46.203125 L 26.40625 -46.203125 L 26.40625 -46.421875 Z M 30.03125 -45.875 C 29.59375 -45.582031 29.148438 -45.582031 28.703125 -45.875 C 29.003906 -45.875 29.15625 -46.019531 29.15625 -46.3125 C 29.59375 -46.019531 29.882812 -45.875 30.03125 -45.875 Z M 27.828125 -45.4375 C 27.753906 -45.351562 27.609375 -45.3125 27.390625 -45.3125 L 26.953125 -45.3125 L 26.953125 -45.546875 L 27.171875 -45.765625 L 27.171875 -45.875 C 27.609375 -45.875 27.828125 -45.726562 27.828125 -45.4375 Z M 21.234375 -44.984375 L 20.6875 -44.765625 L 20.34375 -44.765625 L 20.125 -44.875 L 20.125 -45.3125 L 20.90625 -45.765625 C 20.90625 -45.691406 20.957031 -45.632812 21.0625 -45.59375 C 21.175781 -45.5625 21.269531 -45.507812 21.34375 -45.4375 L 21.78125 -45.203125 Z M 26.953125 -43.78125 C 26.585938 -43.632812 26.40625 -43.453125 26.40625 -43.234375 C 26.257812 -43.378906 26.070312 -43.453125 25.84375 -43.453125 L 25.1875 -43.671875 L 25.84375 -45.09375 C 25.988281 -44.726562 26.175781 -44.507812 26.40625 -44.4375 C 26.695312 -44.144531 26.878906 -43.925781 26.953125 -43.78125 Z M 30.796875 -44.875 L 31.6875 -45.09375 L 31.6875 -44.65625 L 30.796875 -44.546875 Z M 31.6875 -43.671875 L 31.453125 -43.671875 L 31.34375 -43.5625 C 31.050781 -43.851562 31.050781 -44.109375 31.34375 -44.328125 C 31.414062 -44.328125 31.453125 -44.289062 31.453125 -44.21875 L 31.5625 -44.21875 C 31.5625 -44.144531 31.601562 -44.109375 31.6875 -44.109375 L 31.6875 -44 L 31.796875 -44 L 31.796875 -43.890625 Z M 21.015625 -41.578125 L 20.90625 -41.359375 L 20.6875 -41.359375 L 20.34375 -41.46875 L 20.453125 -42.125 C 20.679688 -42.269531 20.71875 -42.414062 20.5625 -42.5625 L 20.453125 -42.796875 C 20.378906 -42.867188 20.34375 -42.976562 20.34375 -43.125 C 20.570312 -42.90625 20.757812 -42.644531 20.90625 -42.34375 L 21.125 -41.90625 L 21.125 -41.6875 Z M 26.0625 -42.796875 L 26.515625 -42.796875 L 26.515625 -42.125 L 26.0625 -42.125 Z M 26.953125 -41.359375 C 26.953125 -41.648438 27.207031 -41.90625 27.71875 -42.125 C 27.71875 -41.757812 27.789062 -41.503906 27.9375 -41.359375 Z M 17.8125 -41.6875 L 18.046875 -41.6875 L 18.046875 -41.25 L 17.8125 -41.25 Z M 27.390625 -38.609375 C 27.390625 -38.609375 27.367188 -38.585938 27.328125 -38.546875 C 27.296875 -38.515625 27.28125 -38.5 27.28125 -38.5 L 27.28125 -38.390625 L 26.84375 -38.390625 C 26.84375 -38.316406 26.988281 -38.097656 27.28125 -37.734375 L 27.0625 -37.296875 C 27.0625 -37.140625 26.953125 -37.0625 26.734375 -37.0625 L 26.1875 -37.0625 C 26.1875 -37.144531 26.109375 -37.257812 25.953125 -37.40625 L 26.40625 -37.84375 L 26.515625 -38.28125 C 26.140625 -38.5 25.953125 -38.753906 25.953125 -39.046875 L 26.0625 -39.265625 L 26.1875 -39.59375 L 26.40625 -39.703125 L 26.625 -39.9375 L 27.0625 -39.8125 L 27.171875 -39.703125 L 27.171875 -39.59375 C 27.171875 -39.59375 27.1875 -39.570312 27.21875 -39.53125 C 27.257812 -39.5 27.28125 -39.484375 27.28125 -39.484375 L 27.28125 -39.15625 C 27.132812 -39.082031 27.0625 -38.972656 27.0625 -38.828125 L 26.953125 -38.71875 L 27.171875 -38.71875 C 27.316406 -38.863281 27.390625 -38.828125 27.390625 -38.609375 Z M 12.546875 -39.703125 L 12.765625 -39.703125 L 12.984375 -39.265625 L 12.765625 -39.265625 Z M 40.703125 -35.3125 C 40.703125 -35.238281 40.59375 -35.09375 40.375 -34.875 L 40.375 -35.75 C 40.59375 -35.675781 40.703125 -35.53125 40.703125 -35.3125 Z M 26.1875 -34.875 C 26.1875 -34.945312 26.257812 -35.054688 26.40625 -35.203125 L 26.734375 -35.640625 L 27.171875 -35.203125 C 27.316406 -35.054688 27.390625 -34.945312 27.390625 -34.875 Z M 27.9375 -34.546875 C 27.644531 -34.097656 27.390625 -33.835938 27.171875 -33.765625 L 26.84375 -33.984375 C 26.695312 -33.984375 26.585938 -34.019531 26.515625 -34.09375 C 26.515625 -34.164062 26.550781 -34.203125 26.625 -34.203125 L 26.625 -34.4375 C 26.625 -34.4375 26.640625 -34.453125 26.671875 -34.484375 C 26.710938 -34.523438 26.734375 -34.546875 26.734375 -34.546875 L 26.953125 -34.546875 L 27.171875 -34.65625 C 27.535156 -34.65625 27.789062 -34.617188 27.9375 -34.546875 Z M 40.703125 -33.984375 C 40.703125 -33.910156 40.664062 -33.875 40.59375 -33.875 L 40.484375 -33.65625 C 40.410156 -33.582031 40.375 -33.472656 40.375 -33.328125 C 40.375 -33.179688 40.390625 -33.050781 40.421875 -32.9375 C 40.460938 -32.832031 40.445312 -32.742188 40.375 -32.671875 C 40.226562 -32.816406 40.082031 -32.890625 39.9375 -32.890625 L 39.9375 -33.109375 C 40.300781 -33.328125 40.410156 -33.546875 40.265625 -33.765625 C 40.117188 -34.054688 40.265625 -34.238281 40.703125 -34.3125 Z M 32.5625 -32.671875 C 32.269531 -32.523438 32.050781 -32.453125 31.90625 -32.453125 L 31.6875 -32.34375 L 31.234375 -32.234375 L 31.234375 -33 C 31.378906 -33 31.53125 -33.070312 31.6875 -33.21875 C 32.269531 -33 32.5625 -32.816406 32.5625 -32.671875 Z M 33.328125 -31.90625 L 32.890625 -31.90625 L 32.890625 -32.5625 L 33.21875 -32.5625 L 33.546875 -32.671875 L 33.765625 -32.125 Z M 27.828125 -31.796875 L 27.828125 -32.34375 L 28.265625 -32.015625 C 28.335938 -31.941406 28.375 -31.832031 28.375 -31.6875 L 27.9375 -31.34375 Z M 40.703125 -31.6875 C 40.703125 -31.457031 40.644531 -31.210938 40.53125 -30.953125 C 40.425781 -30.703125 40.300781 -30.503906 40.15625 -30.359375 L 40.59375 -29.921875 L 40.375 -29.8125 L 39.9375 -29.921875 L 39.9375 -31.125 C 39.851562 -31.269531 39.832031 -31.453125 39.875 -31.671875 C 39.914062 -31.898438 39.9375 -32.125 39.9375 -32.34375 L 40.375 -32.34375 C 40.519531 -32.125 40.59375 -32.015625 40.59375 -32.015625 Z M 44.4375 -32.015625 C 44.4375 -31.941406 44.4375 -31.847656 44.4375 -31.734375 C 44.4375 -31.617188 44.398438 -31.523438 44.328125 -31.453125 L 44.328125 -31.90625 C 44.253906 -31.976562 44.289062 -32.085938 44.4375 -32.234375 Z M 40.375 -27.9375 C 40.226562 -28.082031 40.15625 -28.15625 40.15625 -28.15625 C 40.007812 -28.300781 39.9375 -28.375 39.9375 -28.375 L 40.375 -28.375 Z M 40.59375 -24.09375 C 40.445312 -23.5 40.375 -23.019531 40.375 -22.65625 L 39.8125 -22.4375 L 40.375 -22 C 40.300781 -22 40.265625 -21.960938 40.265625 -21.890625 L 40.15625 -21.890625 C 40.082031 -21.960938 39.953125 -22.070312 39.765625 -22.21875 C 39.578125 -22.363281 39.484375 -22.472656 39.484375 -22.546875 L 39.59375 -22.875 L 39.703125 -23.3125 L 39.8125 -23.3125 L 40.265625 -23.4375 C 40.117188 -23.582031 39.929688 -23.65625 39.703125 -23.65625 C 39.703125 -24.019531 39.679688 -24.289062 39.640625 -24.46875 C 39.609375 -24.65625 39.59375 -24.75 39.59375 -24.75 L 39.59375 -25.84375 C 39.59375 -25.84375 39.609375 -25.859375 39.640625 -25.890625 C 39.679688 -25.929688 39.703125 -25.953125 39.703125 -25.953125 L 39.9375 -26.0625 C 40.082031 -26.0625 40.191406 -26.140625 40.265625 -26.296875 L 40.265625 -26.734375 C 40.265625 -26.953125 40.300781 -27.097656 40.375 -27.171875 L 40.484375 -25.296875 C 40.265625 -25.296875 40.082031 -25.222656 39.9375 -25.078125 C 40.226562 -24.929688 40.410156 -24.785156 40.484375 -24.640625 C 40.554688 -24.492188 40.59375 -24.3125 40.59375 -24.09375 Z M 39.703125 -21.125 L 39.59375 -21.234375 L 39.59375 -21.5625 L 39.703125 -21.671875 L 39.8125 -21.671875 L 40.375 -21.5625 L 40.375 -21.015625 L 39.9375 -21.015625 Z M 39.703125 -16.390625 C 39.484375 -16.316406 39.265625 -16.316406 39.046875 -16.390625 L 39.046875 -16.71875 L 39.703125 -16.71875 Z M 39.15625 -13.421875 L 38.828125 -13.421875 L 38.828125 -13.640625 L 39.15625 -13.640625 Z M 39.15625 -13.421875" transform="translate(132.554 231.375)"/></g></g></g><g><g><g><path d="M 47.625 -51.046875 C 48 -47.742188 48.1875 -44.914062 48.1875 -42.5625 C 48.1875 -33.914062 46.570312 -25.628906 43.34375 -17.703125 C 41.363281 -12.796875 38.484375 -8.617188 34.703125 -5.171875 C 30.929688 -1.722656 26.695312 0 22 0 C 17.96875 0 14.226562 -1.113281 10.78125 -3.34375 C 7.332031 -5.582031 4.617188 -8.6875 2.640625 -12.65625 C 0.222656 -17.414062 -0.984375 -23.570312 -0.984375 -31.125 C -0.984375 -39.78125 0.296875 -47.8125 2.859375 -55.21875 C 5.492188 -62.625 8.941406 -68.050781 13.203125 -71.5 L 16.9375 -71.609375 L 13.640625 -71.9375 C 15.035156 -73.039062 16.578125 -73.921875 18.265625 -74.578125 C 20.390625 -75.609375 22.804688 -76.125 25.515625 -76.125 C 27.054688 -76.125 28.453125 -75.976562 29.703125 -75.6875 C 32.484375 -75.019531 35.050781 -73.878906 37.40625 -72.265625 L 35.75 -72.265625 C 34.945312 -72.265625 34.359375 -72.300781 33.984375 -72.375 C 33.617188 -73.113281 33.253906 -73.484375 32.890625 -73.484375 C 32.671875 -73.484375 32.34375 -73.335938 31.90625 -73.046875 C 31.757812 -72.890625 31.519531 -72.703125 31.1875 -72.484375 C 30.851562 -72.265625 30.554688 -72.132812 30.296875 -72.09375 C 30.046875 -72.0625 29.773438 -72.117188 29.484375 -72.265625 L 29.484375 -71.828125 C 31.023438 -71.898438 33.367188 -71.9375 36.515625 -71.9375 C 37.179688 -71.9375 37.625 -71.972656 37.84375 -72.046875 C 39.457031 -70.648438 40.664062 -69.40625 41.46875 -68.3125 C 41.394531 -68.019531 41.503906 -67.875 41.796875 -67.875 C 44.878906 -63.832031 46.820312 -58.222656 47.625 -51.046875 Z M 19.46875 -72.265625 C 18.957031 -72.265625 18.445312 -72.082031 17.9375 -71.71875 C 19.769531 -72.007812 21.523438 -72.117188 23.203125 -72.046875 C 24.234375 -71.898438 25.921875 -71.828125 28.265625 -71.828125 L 28.15625 -72.265625 C 26.988281 -72.117188 26.289062 -72.046875 26.0625 -72.046875 C 25.40625 -72.046875 24.859375 -72.265625 24.421875 -72.703125 C 23.910156 -72.335938 23.285156 -72.15625 22.546875 -72.15625 C 22.035156 -72.15625 21.597656 -72.191406 21.234375 -72.265625 Z M 23.875 -69.40625 L 24.859375 -69.1875 L 24.75 -69.515625 Z M 32.78125 -68.3125 C 32.195312 -68.164062 31.90625 -67.984375 31.90625 -67.765625 L 33.65625 -67.984375 C 33.945312 -68.273438 34.019531 -68.53125 33.875 -68.75 C 33.726562 -68.601562 33.363281 -68.457031 32.78125 -68.3125 Z M 18.15625 -65.34375 L 19.03125 -65.34375 L 19.03125 -65.5625 L 18.15625 -65.5625 Z M 16.390625 -64.234375 C 16.390625 -64.378906 16.332031 -64.507812 16.21875 -64.625 C 16.113281 -64.738281 15.988281 -64.796875 15.84375 -64.796875 L 15.625 -64.125 Z M 14.625 -64.234375 L 14.625 -64.453125 L 14.078125 -64.453125 L 14.078125 -64.234375 Z M 33 -63.359375 C 33 -63.359375 33.015625 -63.375 33.046875 -63.40625 C 33.085938 -63.445312 33.109375 -63.46875 33.109375 -63.46875 L 33.328125 -63.6875 L 32.671875 -63.796875 C 32.597656 -63.722656 32.597656 -63.628906 32.671875 -63.515625 C 32.742188 -63.410156 32.851562 -63.359375 33 -63.359375 Z M 14.1875 -63.578125 L 13.859375 -63.359375 C 13.785156 -63.285156 13.75 -63.175781 13.75 -63.03125 C 13.75 -62.957031 13.785156 -62.921875 13.859375 -62.921875 L 13.859375 -62.8125 C 14.367188 -62.59375 14.769531 -62.628906 15.0625 -62.921875 L 15.0625 -63.46875 Z M 16.390625 -62.265625 L 16.171875 -61.9375 L 16.5 -61.703125 L 16.828125 -62.15625 Z M 10.015625 -60.9375 C 9.941406 -60.9375 9.828125 -60.878906 9.671875 -60.765625 C 9.523438 -60.660156 9.453125 -60.570312 9.453125 -60.5 C 9.523438 -60.425781 9.75 -60.390625 10.125 -60.390625 L 10.125 -60.609375 C 10.125 -60.753906 10.085938 -60.863281 10.015625 -60.9375 Z M 13.640625 -60.390625 L 13.640625 -60.5 C 13.640625 -60.5 13.617188 -60.515625 13.578125 -60.546875 C 13.546875 -60.585938 13.53125 -60.609375 13.53125 -60.609375 L 13.53125 -60.71875 L 12.765625 -60.390625 Z M 35.421875 -59.296875 C 35.640625 -59.296875 35.894531 -59.367188 36.1875 -59.515625 C 36.1875 -59.878906 35.929688 -60.207031 35.421875 -60.5 Z M 10.015625 -59.84375 C 10.378906 -59.84375 10.597656 -59.878906 10.671875 -59.953125 L 10.890625 -59.953125 C 10.597656 -60.242188 10.304688 -60.390625 10.015625 -60.390625 Z M 11.546875 -59.953125 C 11.546875 -59.878906 11.65625 -59.769531 11.875 -59.625 C 12.09375 -59.914062 12.09375 -60.171875 11.875 -60.390625 L 11.21875 -60.390625 Z M 11 -59.0625 C 10.78125 -58.988281 10.488281 -58.769531 10.125 -58.40625 L 10.890625 -58.40625 L 12.3125 -57.96875 L 12.3125 -58.40625 C 12.3125 -58.40625 12.289062 -58.421875 12.25 -58.453125 C 12.21875 -58.492188 12.203125 -58.515625 12.203125 -58.515625 L 11.984375 -58.515625 L 11.765625 -58.40625 L 11.21875 -58.40625 Z M 32.234375 -58.84375 C 32.085938 -58.988281 31.863281 -59.0625 31.5625 -59.0625 L 31.34375 -58.40625 C 31.570312 -58.40625 31.722656 -58.367188 31.796875 -58.296875 C 31.796875 -58.367188 31.867188 -58.40625 32.015625 -58.40625 L 32.234375 -58.40625 Z M 35.96875 -58.1875 C 35.820312 -58.039062 35.75 -57.96875 35.75 -57.96875 L 35.53125 -57.859375 L 36.40625 -57.640625 C 36.625 -57.785156 36.734375 -57.929688 36.734375 -58.078125 L 36.625 -58.515625 Z M 12.546875 -58.296875 C 12.316406 -57.859375 12.316406 -57.566406 12.546875 -57.421875 L 12.875 -57.421875 L 13.09375 -57.53125 L 12.984375 -57.96875 Z M 10.671875 -56.4375 C 10.890625 -56.4375 11.035156 -56.394531 11.109375 -56.3125 C 11.398438 -56.613281 11.546875 -56.835938 11.546875 -56.984375 L 11.546875 -57.421875 L 11.328125 -57.53125 L 11.21875 -57.859375 L 11 -57.75 L 11 -57.640625 L 10.890625 -57.640625 C 10.890625 -57.640625 10.867188 -57.617188 10.828125 -57.578125 C 10.796875 -57.546875 10.78125 -57.53125 10.78125 -57.53125 C 10.707031 -57.53125 10.671875 -57.492188 10.671875 -57.421875 Z M 37.296875 -57.3125 C 37.296875 -57.3125 37.367188 -57.238281 37.515625 -57.09375 L 37.953125 -56.875 L 37.625 -57.53125 L 37.296875 -57.53125 Z M 29.15625 -36.40625 C 29.300781 -40.21875 29.375 -43.039062 29.375 -44.875 C 29.375 -50.519531 28.785156 -54.1875 27.609375 -55.875 C 26.953125 -56.757812 26.035156 -57.203125 24.859375 -57.203125 C 23.910156 -57.203125 23.125 -56.578125 22.5 -55.328125 C 21.875 -54.078125 21.226562 -52.5 20.5625 -50.59375 C 18.144531 -41.570312 16.9375 -34.3125 16.9375 -28.8125 C 16.9375 -23.832031 17.816406 -20.898438 19.578125 -20.015625 C 19.941406 -19.722656 20.492188 -19.578125 21.234375 -19.578125 C 22.398438 -19.578125 23.441406 -20.160156 24.359375 -21.328125 C 25.273438 -22.503906 26.066406 -24.082031 26.734375 -26.0625 C 27.460938 -28.050781 27.988281 -29.738281 28.3125 -31.125 C 28.644531 -32.519531 28.925781 -34.28125 29.15625 -36.40625 Z M 13.640625 -56.765625 L 13.640625 -56.546875 L 14.515625 -56.65625 L 14.515625 -56.984375 Z M 11.875 -55.984375 C 11.875 -55.765625 12.019531 -55.65625 12.3125 -55.65625 L 12.546875 -55.65625 C 12.617188 -55.726562 12.65625 -55.875 12.65625 -56.09375 L 12.65625 -56.3125 L 12.546875 -56.3125 C 12.097656 -56.3125 11.875 -56.203125 11.875 -55.984375 Z M 34.09375 -55.875 L 33.65625 -55.875 L 33.65625 -55.328125 L 34.4375 -55.328125 C 34.4375 -55.546875 34.394531 -55.691406 34.3125 -55.765625 Z M 13.09375 -55 C 13.164062 -55.070312 13.179688 -55.160156 13.140625 -55.265625 C 13.109375 -55.378906 13.054688 -55.4375 12.984375 -55.4375 C 12.691406 -55.363281 12.546875 -55.21875 12.546875 -55 Z M 11.765625 -54.78125 C 11.835938 -54.851562 11.945312 -54.890625 12.09375 -54.890625 C 12.09375 -55.035156 12.019531 -55.109375 11.875 -55.109375 C 11.726562 -55.109375 11.617188 -55.070312 11.546875 -55 C 11.472656 -54.925781 11.472656 -54.867188 11.546875 -54.828125 C 11.617188 -54.796875 11.691406 -54.78125 11.765625 -54.78125 Z M 34.203125 -54.234375 C 34.429688 -54.378906 34.546875 -54.5625 34.546875 -54.78125 L 34.3125 -54.890625 L 34.203125 -54.890625 C 33.984375 -54.816406 33.800781 -54.707031 33.65625 -54.5625 C 33.507812 -54.5625 33.4375 -54.488281 33.4375 -54.34375 Z M 35.421875 -54.453125 C 35.929688 -54.453125 36.1875 -54.597656 36.1875 -54.890625 L 35.421875 -54.890625 Z M 35.421875 -53.34375 C 35.566406 -53.269531 35.859375 -53.234375 36.296875 -53.234375 C 35.929688 -53.378906 35.75 -53.488281 35.75 -53.5625 C 35.601562 -53.71875 35.53125 -53.796875 35.53125 -53.796875 C 35.3125 -53.796875 35.128906 -53.757812 34.984375 -53.6875 L 34.765625 -53.5625 Z M 35.3125 -53.015625 L 35.09375 -52.796875 L 35.53125 -52.46875 L 35.859375 -52.6875 Z M 35.640625 -51.921875 L 35.96875 -51.921875 L 35.96875 -52.25 L 35.640625 -52.25 Z M 34.765625 -51.265625 C 34.765625 -51.265625 34.691406 -51.335938 34.546875 -51.484375 L 34.546875 -51.15625 C 34.691406 -51.15625 34.765625 -51.191406 34.765625 -51.265625 Z M 35.09375 -50.703125 C 35.820312 -50.859375 36.40625 -50.859375 36.84375 -50.703125 L 36.84375 -51.15625 L 35.640625 -51.15625 C 35.566406 -51.15625 35.457031 -51.082031 35.3125 -50.9375 C 35.3125 -50.9375 35.238281 -50.859375 35.09375 -50.703125 Z M 35.859375 -48.625 C 35.859375 -48.769531 35.859375 -48.84375 35.859375 -48.84375 L 35.859375 -49.0625 C 35.859375 -48.84375 35.75 -48.734375 35.53125 -48.734375 L 35.75 -48.734375 Z M 38.171875 -48.625 C 38.023438 -48.625 37.953125 -48.695312 37.953125 -48.84375 C 37.953125 -48.25 37.617188 -48.03125 36.953125 -48.1875 L 37.0625 -47.953125 L 37.0625 -47.734375 L 37.515625 -48.0625 C 37.660156 -48.0625 37.878906 -48.140625 38.171875 -48.296875 Z M 33.328125 -48.296875 L 33.328125 -48.625 L 33.109375 -48.625 L 33.109375 -48.296875 Z M 35.859375 -47.84375 C 35.859375 -48.070312 35.929688 -48.1875 36.078125 -48.1875 L 35.640625 -48.1875 C 35.785156 -48.1875 35.859375 -48.109375 35.859375 -47.953125 Z M 36.734375 -46.53125 C 36.953125 -46.675781 37.0625 -46.894531 37.0625 -47.1875 C 36.988281 -46.96875 36.878906 -46.859375 36.734375 -46.859375 L 36.296875 -46.53125 Z M 35.859375 -45.765625 C 35.710938 -45.765625 35.601562 -45.800781 35.53125 -45.875 C 35.457031 -45.875 35.421875 -45.945312 35.421875 -46.09375 C 35.273438 -46.3125 35.09375 -46.457031 34.875 -46.53125 L 34.09375 -46.203125 L 34.4375 -46.203125 C 34.4375 -46.273438 34.546875 -46.3125 34.765625 -46.3125 C 34.984375 -46.09375 35.09375 -45.875 35.09375 -45.65625 L 35.75 -45.65625 Z M 33.328125 -44.109375 C 33.691406 -44.253906 33.875 -44.4375 33.875 -44.65625 L 33.328125 -44.65625 C 33.179688 -44.289062 33.179688 -44.109375 33.328125 -44.109375 Z M 33.328125 -44.109375" transform="translate(185.79 231.375)"/></g></g></g><g><g><g><path d="M 27.609375 -61.484375 C 25.484375 -61.859375 23.976562 -60.90625 23.09375 -58.625 C 22.363281 -57.238281 22 -55.8125 22 -54.34375 C 22 -51.914062 23.023438 -49.785156 25.078125 -47.953125 C 26.328125 -46.710938 27.796875 -45.578125 29.484375 -44.546875 L 32.890625 -42.453125 C 41.984375 -36.953125 46.53125 -30.132812 46.53125 -22 C 46.53125 -20.894531 46.492188 -20.085938 46.421875 -19.578125 L 46.421875 -19.46875 C 45.609375 -15.289062 44.175781 -11.695312 42.125 -8.6875 C 40.070312 -5.6875 37.359375 -3.523438 33.984375 -2.203125 C 32.597656 -1.691406 31.171875 -1.25 29.703125 -0.875 L 32.671875 -0.546875 C 32.523438 0.398438 32.378906 1.828125 32.234375 3.734375 L 31.90625 7.921875 C 31.757812 9.535156 30.988281 10.304688 29.59375 10.234375 L 24.203125 9.6875 C 23.460938 9.6875 22.910156 9.5 22.546875 9.125 C 22.179688 8.613281 21.960938 8.03125 21.890625 7.375 L 22.984375 -0.109375 C 20.492188 -0.109375 18.625 -0.179688 17.375 -0.328125 C 12.46875 -0.835938 6.3125 -3.113281 -1.09375 -7.15625 C -1.90625 -7.59375 -2.3125 -8.175781 -2.3125 -8.90625 C -2.3125 -9.269531 -2.203125 -9.675781 -1.984375 -10.125 L 2.859375 -19.796875 C 3.222656 -20.679688 3.882812 -21.125 4.84375 -21.125 C 5.28125 -21.125 5.644531 -21.015625 5.9375 -20.796875 C 9.457031 -18.660156 12.90625 -16.972656 16.28125 -15.734375 C 17.894531 -15.140625 19.363281 -14.84375 20.6875 -14.84375 C 22.289062 -14.84375 23.585938 -15.28125 24.578125 -16.15625 C 25.566406 -17.039062 26.0625 -18.289062 26.0625 -19.90625 C 26.0625 -22.476562 24.925781 -24.609375 22.65625 -26.296875 C 21.5625 -27.171875 19.144531 -28.742188 15.40625 -31.015625 L 13.203125 -32.34375 L 12.984375 -32.453125 C 12.242188 -32.816406 10.078125 -34.503906 6.484375 -37.515625 C 6.484375 -37.515625 6.460938 -37.53125 6.421875 -37.5625 C 6.390625 -37.601562 6.375 -37.625 6.375 -37.625 C 4.394531 -39.457031 3.039062 -41.910156 2.3125 -44.984375 C 1.875 -46.960938 1.65625 -48.90625 1.65625 -50.8125 C 1.65625 -55.507812 2.972656 -60.054688 5.609375 -64.453125 C 9.273438 -70.910156 15.140625 -74.613281 23.203125 -75.5625 C 25.109375 -75.789062 27.054688 -75.90625 29.046875 -75.90625 L 30.03125 -84.046875 C 30.175781 -84.773438 30.429688 -85.285156 30.796875 -85.578125 C 31.160156 -85.867188 31.710938 -86.015625 32.453125 -86.015625 L 37.1875 -85.90625 C 37.84375 -85.832031 38.367188 -85.578125 38.765625 -85.140625 C 39.171875 -84.703125 39.335938 -84.113281 39.265625 -83.375 L 38.28125 -74.140625 C 40.625 -73.179688 42.492188 -71.785156 43.890625 -69.953125 C 45.503906 -67.898438 46.457031 -65.078125 46.75 -61.484375 C 46.894531 -60.316406 46.96875 -59 46.96875 -57.53125 C 46.96875 -55.84375 46.894531 -53.828125 46.75 -51.484375 C 46.75 -50.085938 46.015625 -49.390625 44.546875 -49.390625 L 31.796875 -49.390625 C 30.328125 -49.390625 29.59375 -50.125 29.59375 -51.59375 C 29.59375 -54.082031 29.484375 -56.6875 29.265625 -59.40625 C 29.046875 -60.71875 28.53125 -61.410156 27.71875 -61.484375 Z M 34.09375 -63.03125 L 34.09375 -62.8125 L 34.546875 -62.8125 L 34.546875 -63.03125 Z M 36.953125 -59.625 C 36.953125 -59.625 36.929688 -59.640625 36.890625 -59.671875 C 36.859375 -59.710938 36.84375 -59.734375 36.84375 -59.734375 L 36.734375 -59.515625 C 36.734375 -59.515625 36.710938 -59.492188 36.671875 -59.453125 C 36.640625 -59.421875 36.625 -59.40625 36.625 -59.40625 C 36.550781 -59.257812 36.566406 -59.1875 36.671875 -59.1875 C 36.785156 -59.1875 36.878906 -59.222656 36.953125 -59.296875 L 37.1875 -59.515625 Z M 34.4375 -54.671875 C 34.507812 -54.671875 34.546875 -54.742188 34.546875 -54.890625 L 34.4375 -55.109375 C 34.0625 -55.109375 33.875 -54.960938 33.875 -54.671875 Z M 31.234375 -36.515625 C 31.085938 -36.148438 31.050781 -35.835938 31.125 -35.578125 C 31.195312 -35.328125 31.234375 -35.203125 31.234375 -35.203125 L 32.125 -35.203125 C 32.125 -35.421875 32.050781 -35.601562 31.90625 -35.75 L 32.015625 -35.96875 C 32.015625 -36.257812 31.976562 -36.441406 31.90625 -36.515625 Z M 28.15625 -35.75 L 28.15625 -36.1875 L 27.171875 -36.1875 L 27.171875 -35.75 Z M 32.34375 -35.203125 C 32.050781 -35.203125 31.832031 -35.164062 31.6875 -35.09375 C 31.6875 -35.09375 31.832031 -34.875 32.125 -34.4375 L 33 -34.875 L 33 -34.984375 L 33.21875 -35.09375 L 32.78125 -35.203125 Z M 29.921875 -30.90625 L 30.140625 -30.796875 L 30.359375 -30.90625 C 30.359375 -31.050781 30.285156 -31.195312 30.140625 -31.34375 L 29.921875 -31.453125 L 29.703125 -31.6875 L 29.703125 -30.90625 Z M 35.859375 -30.359375 C 35.421875 -30.140625 35.203125 -29.882812 35.203125 -29.59375 L 35.859375 -29.59375 L 36.078125 -29.703125 L 36.296875 -29.703125 L 36.296875 -29.921875 Z M 35.421875 -27.71875 L 35.421875 -28.15625 L 34.4375 -28.265625 L 34.4375 -27.9375 Z M 39.046875 -25.515625 C 39.191406 -25.148438 39.488281 -24.96875 39.9375 -24.96875 C 40.375 -24.96875 40.59375 -25.1875 40.59375 -25.625 C 40.59375 -25.769531 40.554688 -25.84375 40.484375 -25.84375 L 40.375 -25.953125 C 40.300781 -25.953125 40.265625 -25.988281 40.265625 -26.0625 L 39.265625 -26.0625 Z M 35.859375 -25.84375 L 35.421875 -25.953125 L 35.09375 -25.625 L 35.53125 -25.40625 Z M 36.734375 -22.984375 L 36.296875 -22.984375 L 36.078125 -22.21875 L 36.296875 -22.109375 L 36.40625 -22.109375 L 36.515625 -22 L 37.296875 -22 C 37.296875 -22.070312 37.332031 -22.109375 37.40625 -22.109375 L 37.40625 -22.328125 C 37.476562 -22.328125 37.515625 -22.398438 37.515625 -22.546875 C 37.296875 -22.546875 37.1875 -22.617188 37.1875 -22.765625 Z M 41.03125 -22.546875 C 40.882812 -22.398438 40.847656 -22.253906 40.921875 -22.109375 L 40.921875 -21.671875 C 41.066406 -21.671875 41.25 -21.78125 41.46875 -22 L 41.6875 -22.109375 L 42.015625 -22.328125 L 41.6875 -22.4375 L 41.46875 -22.546875 Z M 38.390625 -21.34375 C 38.097656 -21.34375 37.878906 -21.320312 37.734375 -21.28125 C 37.585938 -21.25 37.476562 -21.234375 37.40625 -21.234375 L 37.40625 -21.125 C 37.40625 -20.675781 37.695312 -20.453125 38.28125 -20.453125 L 38.71875 -20.6875 L 39.15625 -21.015625 L 39.046875 -21.5625 C 38.828125 -21.5625 38.679688 -21.523438 38.609375 -21.453125 Z M 38.5 -17.375 C 38.570312 -17.445312 38.609375 -17.554688 38.609375 -17.703125 C 38.609375 -17.773438 38.316406 -18.109375 37.734375 -18.703125 C 37.585938 -18.554688 37.515625 -18.445312 37.515625 -18.375 L 37.296875 -18.265625 C 37.222656 -18.191406 37.109375 -18.15625 36.953125 -18.15625 L 36.84375 -18.15625 C 36.625 -18.15625 36.441406 -18.191406 36.296875 -18.265625 C 36.078125 -18.335938 35.785156 -18.375 35.421875 -18.375 L 35.09375 -18.375 L 35.09375 -17.9375 L 35.203125 -17.8125 C 35.203125 -17.738281 35.273438 -17.628906 35.421875 -17.484375 C 35.859375 -17.410156 36.203125 -17.351562 36.453125 -17.3125 C 36.710938 -17.28125 36.84375 -17.265625 36.84375 -17.265625 L 37.1875 -17.265625 C 37.332031 -17.117188 37.515625 -17.046875 37.734375 -17.046875 L 38.0625 -17.046875 L 38.28125 -17.15625 L 38.5 -17.15625 Z M 41.25 -18.265625 L 40.484375 -18.265625 C 40.484375 -18.046875 40.375 -17.820312 40.15625 -17.59375 L 41.03125 -17.59375 L 41.03125 -17.8125 Z M 40.375 -17.484375 L 39.8125 -17.484375 L 39.8125 -16.828125 L 40.375 -16.828125 Z M 36.84375 -15.734375 C 37.21875 -15.953125 37.40625 -16.132812 37.40625 -16.28125 L 37.40625 -16.71875 L 36.296875 -16.71875 C 36.367188 -16.789062 36.222656 -16.71875 35.859375 -16.5 C 35.785156 -16.425781 35.640625 -16.390625 35.421875 -16.390625 C 34.984375 -16.171875 34.765625 -15.953125 34.765625 -15.734375 L 34.765625 -15.515625 C 34.910156 -15.367188 35.203125 -15.296875 35.640625 -15.296875 L 36.078125 -15.296875 Z M 40.375 -14.515625 C 40.738281 -14.515625 40.921875 -14.695312 40.921875 -15.0625 C 40.921875 -15.144531 40.8125 -15.296875 40.59375 -15.515625 L 40.046875 -15.84375 C 39.671875 -15.769531 39.484375 -15.507812 39.484375 -15.0625 C 39.484375 -14.84375 39.632812 -14.550781 39.9375 -14.1875 Z M 37.515625 -15.0625 C 37.515625 -15.289062 37.476562 -15.40625 37.40625 -15.40625 L 36.734375 -15.40625 L 36.296875 -15.0625 L 36.296875 -14.625 C 36.734375 -14.550781 37.140625 -14.550781 37.515625 -14.625 Z M 15.0625 -14.84375 L 15.0625 -14.515625 L 15.734375 -14.515625 L 15.734375 -14.84375 Z M 35.09375 -13.3125 L 34.984375 -13.53125 C 34.984375 -13.53125 34.960938 -13.546875 34.921875 -13.578125 C 34.890625 -13.617188 34.835938 -13.640625 34.765625 -13.640625 C 34.617188 -13.492188 34.546875 -13.347656 34.546875 -13.203125 L 34.546875 -12.765625 C 34.691406 -12.765625 34.765625 -12.800781 34.765625 -12.875 L 34.984375 -12.875 L 35.203125 -13.09375 Z M 31.015625 -11.4375 C 31.015625 -11.4375 30.992188 -11.414062 30.953125 -11.375 C 30.921875 -11.34375 30.867188 -11.328125 30.796875 -11.328125 C 31.085938 -11.179688 31.382812 -11.109375 31.6875 -11.109375 C 31.6875 -11.472656 31.609375 -11.691406 31.453125 -11.765625 C 31.304688 -11.765625 31.234375 -11.726562 31.234375 -11.65625 L 31.234375 -11.546875 C 31.085938 -11.546875 31.015625 -11.507812 31.015625 -11.4375 Z M 36.296875 -11.546875 C 36.960938 -11.328125 37.40625 -11.21875 37.625 -11.21875 C 37.625 -11.363281 37.585938 -11.472656 37.515625 -11.546875 L 37.515625 -11.765625 Z M 17.15625 -11.65625 L 16.828125 -11.328125 L 17.265625 -11.109375 L 17.59375 -11.546875 Z M 32.34375 -9.6875 C 32.925781 -9.6875 33.21875 -9.867188 33.21875 -10.234375 L 32.671875 -10.34375 C 32.597656 -10.414062 32.414062 -10.453125 32.125 -10.453125 L 31.90625 -9.796875 C 32.195312 -9.796875 32.34375 -9.757812 32.34375 -9.6875 Z M 29.921875 -10.234375 L 29.921875 -9.6875 L 30.359375 -9.6875 L 30.359375 -10.234375 Z M 19.90625 -8.03125 L 19.90625 -7.703125 L 20.6875 -7.703125 L 20.6875 -8.03125 Z M 31.90625 -8.03125 C 31.757812 -8.03125 31.6875 -7.921875 31.6875 -7.703125 C 31.6875 -7.554688 31.757812 -7.445312 31.90625 -7.375 L 32.78125 -8.03125 Z M 31.90625 -8.03125" transform="translate(239.796 231.375)"/></g></g></g></svg>