<svg xmlns="http://www.w3.org/2000/svg" xmlns:xlink="http://www.w3.org/1999/xlink" width="500" zoomAndPan="magnify" viewBox="0 0 375 149.999998" height="200" preserveAspectRatio="xMidYMid meet" version="1.0"><defs><g/></defs><g fill="rgb(0%, 0%, 0%)" fill-opacity="1"><g transform="translate(12.488148, 124.952574)"><g><path d="M 26.171875 -21.171875 C 23.835938 -21.171875 22.207031 -22.066406 21.28125 -23.859375 C 20.363281 -25.648438 19.90625 -28.132812 19.90625 -31.3125 C 19.90625 -32.476562 19.988281 -34.226562 20.15625 -36.5625 L 21.296875 -53.09375 L 23.671875 -83.28125 L 23.671875 -83.53125 C 23.671875 -84.195312 23.421875 -84.78125 22.921875 -85.28125 C 22.421875 -85.78125 21.835938 -86.03125 21.171875 -86.03125 L 5.765625 -86.03125 C 4.253906 -86.03125 3.414062 -85.28125 3.25 -83.78125 L 0.125 -53.96875 C -0.625 -46.375 -1.039062 -39.863281 -1.125 -34.4375 L -1.125 -30.4375 C -1.125 -25.925781 -0.957031 -22.582031 -0.625 -20.40625 C 0.125 -13.476562 2.335938 -8.347656 6.015625 -5.015625 C 9.515625 -1.671875 15.648438 0 24.421875 0 C 35.523438 0 44 -3.296875 49.84375 -9.890625 C 53.519531 -14.148438 56.066406 -19.660156 57.484375 -26.421875 C 58.566406 -32.179688 59.109375 -38.359375 59.109375 -44.953125 L 59.109375 -53.21875 L 60.234375 -83.40625 C 60.234375 -84.070312 59.984375 -84.675781 59.484375 -85.21875 C 58.984375 -85.757812 58.398438 -86.03125 57.734375 -86.03125 L 42.328125 -86.03125 C 40.742188 -86.03125 39.910156 -85.238281 39.828125 -83.65625 L 38.328125 -53.84375 L 38.328125 -53.71875 C 37.992188 -46.957031 37.695312 -41.867188 37.4375 -38.453125 L 37.0625 -33.6875 C 37.0625 -33.351562 36.9375 -32.4375 36.6875 -30.9375 C 36.1875 -27.84375 35.207031 -25.441406 33.75 -23.734375 C 32.289062 -22.023438 29.765625 -21.171875 26.171875 -21.171875 Z M 57.234375 -79.53125 C 56.984375 -78.269531 56.859375 -77.347656 56.859375 -76.765625 C 56.859375 -76.765625 56.878906 -76.742188 56.921875 -76.703125 C 56.960938 -76.660156 56.984375 -76.640625 56.984375 -76.640625 C 56.984375 -76.554688 57.023438 -76.515625 57.109375 -76.515625 L 55.734375 -76.515625 L 55.609375 -78.015625 L 55.609375 -79.53125 C 55.609375 -80.28125 55.566406 -80.738281 55.484375 -80.90625 L 55.484375 -81.65625 C 55.484375 -81.90625 55.566406 -82.28125 55.734375 -82.78125 C 55.898438 -83.28125 56.148438 -83.53125 56.484375 -83.53125 C 57.148438 -83.53125 57.460938 -83.257812 57.421875 -82.71875 C 57.378906 -82.175781 57.359375 -81.863281 57.359375 -81.78125 L 57.359375 -81.28125 Z M 3.75 -67.25 C 3.75 -67.5 3.875 -67.75 4.125 -68 L 4.390625 -68.75 L 4.265625 -69.5 L 4.125 -70.375 L 3.875 -71.015625 L 3.625 -71.640625 L 3.875 -72.515625 L 4.265625 -73.890625 C 4.265625 -73.972656 4.175781 -74.097656 4 -74.265625 L 3.875 -74.640625 C 3.875 -74.722656 3.957031 -74.847656 4.125 -75.015625 L 4.265625 -76.640625 C 4.429688 -76.804688 4.515625 -76.929688 4.515625 -77.015625 C 4.597656 -77.097656 4.597656 -77.304688 4.515625 -77.640625 C 4.847656 -77.972656 5.015625 -78.265625 5.015625 -78.515625 L 5.015625 -79.40625 C 4.929688 -79.738281 4.828125 -80.007812 4.703125 -80.21875 C 4.578125 -80.425781 4.382812 -80.613281 4.125 -80.78125 C 4.550781 -80.78125 4.765625 -80.820312 4.765625 -80.90625 C 4.929688 -81.070312 5.097656 -81.15625 5.265625 -81.15625 L 5.890625 -81.15625 L 5.140625 -65.25 C 4.890625 -64.832031 4.597656 -64.539062 4.265625 -64.375 L 4.265625 -64.125 C 4.429688 -64.125 4.515625 -64.082031 4.515625 -64 C 4.679688 -64 4.847656 -64.082031 5.015625 -64.25 C 5.015625 -63.75 4.890625 -63.25 4.640625 -62.75 C 4.390625 -62.40625 4.175781 -62.234375 4 -62.234375 C 4 -62.398438 3.914062 -62.484375 3.75 -62.484375 L 3.625 -62.75 Z M 4.515625 -51.71875 C 3.921875 -51.800781 3.414062 -52.050781 3 -52.46875 L 3.125 -52.96875 L 3.625 -53.09375 L 4.515625 -53.21875 Z M 44.078125 -52.34375 C 43.992188 -52.257812 43.929688 -52.175781 43.890625 -52.09375 C 43.847656 -52.007812 43.785156 -51.96875 43.703125 -51.96875 C 43.703125 -51.96875 43.679688 -51.945312 43.640625 -51.90625 C 43.597656 -51.863281 43.578125 -51.84375 43.578125 -51.84375 C 43.410156 -51.84375 43.328125 -51.925781 43.328125 -52.09375 L 43.328125 -52.46875 Z M 4.265625 -47.96875 C 4.265625 -47.21875 3.96875 -46.84375 3.375 -46.84375 C 3.125 -46.84375 2.914062 -46.96875 2.75 -47.21875 C 2.832031 -47.550781 3.335938 -47.925781 4.265625 -48.34375 Z M 47.21875 -40.078125 C 47.300781 -39.828125 47.257812 -39.660156 47.09375 -39.578125 L 46.09375 -39.578125 L 46.34375 -40.078125 Z M 44.578125 -36.0625 C 44.492188 -35.976562 44.367188 -35.9375 44.203125 -35.9375 C 44.203125 -36.101562 44.078125 -36.226562 43.828125 -36.3125 C 43.992188 -36.3125 44.078125 -36.351562 44.078125 -36.4375 L 44.328125 -36.4375 C 44.578125 -36.4375 44.742188 -36.394531 44.828125 -36.3125 Z M 42.203125 -26.671875 L 42.578125 -26.921875 L 42.578125 -26.671875 L 42.203125 -26.421875 Z M 43.953125 -25.421875 L 44.328125 -25.421875 L 44.203125 -24.921875 L 43.828125 -24.921875 Z M 35.9375 -21.421875 C 36.019531 -21.171875 36.019531 -21.003906 35.9375 -20.921875 L 34.8125 -20.921875 L 35.0625 -21.421875 Z M 28.296875 -19.78125 C 28.046875 -19.28125 27.859375 -18.988281 27.734375 -18.90625 C 27.609375 -18.820312 27.335938 -18.78125 26.921875 -18.78125 L 26.296875 -18.78125 C 25.796875 -18.78125 25.460938 -19.03125 25.296875 -19.53125 C 25.296875 -19.613281 25.421875 -19.78125 25.671875 -20.03125 C 26.253906 -20.03125 26.710938 -20.007812 27.046875 -19.96875 C 27.378906 -19.925781 27.628906 -19.90625 27.796875 -19.90625 Z M 31.5625 -19.53125 L 31.6875 -19.90625 L 32.0625 -19.78125 L 31.8125 -19.40625 Z M 31.4375 -15.40625 L 31.5625 -17.65625 L 31.9375 -17.65625 L 31.5625 -15.40625 Z M 23.046875 -16.40625 C 23.046875 -16.488281 23.210938 -16.695312 23.546875 -17.03125 C 23.546875 -17.03125 23.671875 -16.945312 23.921875 -16.78125 C 24.171875 -16.613281 24.378906 -16.363281 24.546875 -16.03125 L 23.171875 -15.90625 Z M 23.046875 -16.40625 "/></g></g></g><g fill="rgb(0%, 0%, 0%)" fill-opacity="1"><g transform="translate(77.857355, 124.952574)"><g><path d="M 19.78125 -17.90625 C 15.945312 -19.320312 12.023438 -21.242188 8.015625 -23.671875 C 7.597656 -23.921875 7.179688 -24.046875 6.765625 -24.046875 C 5.679688 -24.046875 4.929688 -23.546875 4.515625 -22.546875 L -1 -11.515625 C -1.25 -11.015625 -1.375 -10.554688 -1.375 -10.140625 C -1.375 -9.304688 -0.914062 -8.640625 0 -8.140625 C 8.4375 -3.546875 15.453125 -0.957031 21.046875 -0.375 C 23.378906 -0.207031 25.128906 -0.125 26.296875 -0.125 C 31.304688 -0.125 35.859375 -0.914062 39.953125 -2.5 C 43.785156 -4.007812 46.867188 -6.472656 49.203125 -9.890625 C 51.546875 -13.316406 53.175781 -17.410156 54.09375 -22.171875 L 54.09375 -22.296875 C 54.175781 -22.878906 54.21875 -23.796875 54.21875 -25.046875 C 54.21875 -34.316406 49.046875 -42.082031 38.703125 -48.34375 L 34.8125 -50.71875 C 32.894531 -51.882812 31.226562 -53.179688 29.8125 -54.609375 C 27.46875 -56.691406 26.296875 -59.109375 26.296875 -61.859375 C 26.296875 -63.535156 26.710938 -65.164062 27.546875 -66.75 C 28.546875 -69.332031 30.257812 -70.414062 32.6875 -70 L 32.8125 -70 C 33.726562 -69.914062 34.3125 -69.125 34.5625 -67.625 C 34.8125 -64.539062 34.9375 -61.578125 34.9375 -58.734375 C 34.9375 -57.066406 35.769531 -56.234375 37.4375 -56.234375 L 51.96875 -56.234375 C 53.644531 -56.234375 54.484375 -57.023438 54.484375 -58.609375 C 54.648438 -61.273438 54.734375 -63.570312 54.734375 -65.5 C 54.734375 -67.164062 54.648438 -68.664062 54.484375 -70 C 54.140625 -74.09375 53.050781 -77.3125 51.21875 -79.65625 C 47.539062 -84.15625 41.78125 -86.40625 33.9375 -86.40625 C 31.769531 -86.40625 29.679688 -86.28125 27.671875 -86.03125 C 18.492188 -84.945312 11.816406 -80.734375 7.640625 -73.390625 C 4.628906 -68.378906 3.125 -63.203125 3.125 -57.859375 C 3.125 -55.691406 3.375 -53.476562 3.875 -51.21875 C 4.71875 -47.71875 6.265625 -44.921875 8.515625 -42.828125 C 8.515625 -42.828125 8.535156 -42.804688 8.578125 -42.765625 C 8.617188 -42.722656 8.640625 -42.703125 8.640625 -42.703125 C 12.734375 -39.273438 15.195312 -37.351562 16.03125 -36.9375 L 16.28125 -36.8125 L 18.78125 -35.3125 C 23.039062 -32.726562 25.796875 -30.9375 27.046875 -29.9375 C 29.640625 -28.007812 30.9375 -25.585938 30.9375 -22.671875 C 30.9375 -20.828125 30.367188 -19.40625 29.234375 -18.40625 C 28.109375 -17.40625 26.628906 -16.90625 24.796875 -16.90625 C 23.296875 -16.90625 21.625 -17.238281 19.78125 -17.90625 Z M 40.078125 -71.765625 L 40.578125 -71.765625 L 40.578125 -71.515625 L 40.078125 -71.515625 Z M 43.328125 -67.5 C 43.242188 -67.414062 43.140625 -67.375 43.015625 -67.375 C 42.890625 -67.375 42.867188 -67.457031 42.953125 -67.625 C 42.953125 -67.625 42.972656 -67.644531 43.015625 -67.6875 C 43.054688 -67.726562 43.078125 -67.75 43.078125 -67.75 L 43.203125 -68 C 43.203125 -68 43.222656 -67.976562 43.265625 -67.9375 C 43.304688 -67.894531 43.328125 -67.875 43.328125 -67.875 L 43.578125 -67.75 Z M 40.578125 -62.484375 C 40.578125 -62.316406 40.535156 -62.234375 40.453125 -62.234375 L 39.828125 -62.234375 C 39.828125 -62.578125 40.035156 -62.75 40.453125 -62.75 Z M 37.5625 -40.703125 C 37.738281 -40.535156 37.828125 -40.328125 37.828125 -40.078125 L 36.8125 -40.078125 C 36.8125 -40.078125 36.769531 -40.222656 36.6875 -40.515625 C 36.601562 -40.804688 36.644531 -41.160156 36.8125 -41.578125 L 37.5625 -41.578125 C 37.65625 -41.492188 37.703125 -41.285156 37.703125 -40.953125 Z M 32.1875 -40.703125 L 32.1875 -41.203125 L 33.3125 -41.203125 L 33.3125 -40.703125 Z M 39.078125 -39.953125 L 38.828125 -39.828125 L 38.828125 -39.703125 L 37.828125 -39.203125 C 37.484375 -39.703125 37.3125 -39.953125 37.3125 -39.953125 C 37.476562 -40.035156 37.734375 -40.078125 38.078125 -40.078125 L 38.578125 -40.078125 Z M 35.5625 -35.6875 C 35.726562 -35.519531 35.8125 -35.351562 35.8125 -35.1875 L 35.5625 -35.0625 L 35.3125 -35.1875 L 35.0625 -35.1875 L 35.0625 -36.0625 L 35.3125 -35.8125 Z M 42.328125 -33.8125 L 42.078125 -33.6875 L 41.328125 -33.6875 C 41.328125 -34.019531 41.578125 -34.3125 42.078125 -34.5625 L 42.578125 -34.0625 L 42.578125 -33.8125 Z M 40.453125 -31.8125 L 40.453125 -32.1875 L 41.578125 -32.0625 L 41.578125 -31.5625 Z M 47.34375 -29.4375 C 47.425781 -29.4375 47.46875 -29.347656 47.46875 -29.171875 C 47.46875 -28.671875 47.21875 -28.421875 46.71875 -28.421875 C 46.21875 -28.421875 45.878906 -28.628906 45.703125 -29.046875 L 45.96875 -29.6875 L 47.09375 -29.6875 C 47.09375 -29.601562 47.132812 -29.5625 47.21875 -29.5625 Z M 41.703125 -28.921875 L 41.203125 -29.171875 L 41.578125 -29.5625 L 42.078125 -29.4375 Z M 43.578125 -25.921875 C 43.578125 -25.753906 43.703125 -25.671875 43.953125 -25.671875 C 43.953125 -25.503906 43.910156 -25.421875 43.828125 -25.421875 L 43.828125 -25.171875 C 43.742188 -25.171875 43.703125 -25.128906 43.703125 -25.046875 L 42.828125 -25.046875 L 42.703125 -25.171875 L 42.578125 -25.171875 L 42.328125 -25.296875 L 42.578125 -26.171875 L 43.078125 -26.171875 Z M 48.71875 -25.546875 L 49.09375 -25.421875 L 48.71875 -25.171875 L 48.46875 -25.046875 C 48.21875 -24.796875 48.007812 -24.671875 47.84375 -24.671875 L 47.84375 -25.171875 C 47.757812 -25.335938 47.800781 -25.503906 47.96875 -25.671875 L 48.46875 -25.671875 Z M 44.828125 -23.296875 C 44.492188 -23.296875 44.222656 -23.378906 44.015625 -23.546875 C 43.804688 -23.710938 43.742188 -23.921875 43.828125 -24.171875 C 43.910156 -24.171875 44.035156 -24.191406 44.203125 -24.234375 C 44.367188 -24.273438 44.617188 -24.296875 44.953125 -24.296875 L 45.203125 -24.421875 C 45.285156 -24.503906 45.453125 -24.546875 45.703125 -24.546875 L 45.828125 -23.921875 L 45.328125 -23.546875 Z M 44.203125 -21.296875 C 44.867188 -20.617188 45.203125 -20.238281 45.203125 -20.15625 C 45.203125 -19.988281 45.160156 -19.863281 45.078125 -19.78125 L 45.078125 -19.53125 L 44.828125 -19.53125 L 44.578125 -19.40625 L 44.203125 -19.40625 C 43.953125 -19.40625 43.742188 -19.488281 43.578125 -19.65625 L 43.203125 -19.65625 C 43.203125 -19.65625 43.054688 -19.675781 42.765625 -19.71875 C 42.472656 -19.757812 42.078125 -19.820312 41.578125 -19.90625 C 41.410156 -20.070312 41.328125 -20.195312 41.328125 -20.28125 L 41.203125 -20.40625 L 41.203125 -20.921875 L 41.578125 -20.921875 C 41.992188 -20.921875 42.328125 -20.875 42.578125 -20.78125 C 42.742188 -20.695312 42.953125 -20.65625 43.203125 -20.65625 L 43.328125 -20.65625 C 43.492188 -20.65625 43.617188 -20.695312 43.703125 -20.78125 L 43.953125 -20.921875 C 43.953125 -21.003906 44.035156 -21.128906 44.203125 -21.296875 Z M 47.96875 -20.28125 L 47.96875 -20.03125 L 46.96875 -20.03125 C 47.21875 -20.28125 47.34375 -20.53125 47.34375 -20.78125 L 48.21875 -20.78125 Z M 46.59375 -19.15625 L 46.59375 -19.90625 L 47.21875 -19.90625 L 47.21875 -19.15625 Z M 43.828125 -18.53125 C 43.828125 -18.363281 43.617188 -18.15625 43.203125 -17.90625 L 42.328125 -17.40625 L 41.828125 -17.40625 C 41.328125 -17.40625 40.992188 -17.488281 40.828125 -17.65625 L 40.828125 -17.90625 C 40.828125 -18.15625 41.078125 -18.40625 41.578125 -18.65625 C 41.828125 -18.65625 41.992188 -18.695312 42.078125 -18.78125 C 42.492188 -19.03125 42.660156 -19.113281 42.578125 -19.03125 L 43.828125 -19.03125 Z M 47.46875 -17.65625 C 47.71875 -17.40625 47.84375 -17.238281 47.84375 -17.15625 C 47.84375 -16.738281 47.632812 -16.53125 47.21875 -16.53125 L 46.71875 -16.15625 C 46.382812 -16.570312 46.21875 -16.90625 46.21875 -17.15625 C 46.21875 -17.65625 46.425781 -17.945312 46.84375 -18.03125 Z M 43.953125 -16.65625 C 43.535156 -16.570312 43.078125 -16.570312 42.578125 -16.65625 L 42.578125 -17.15625 L 43.078125 -17.53125 L 43.828125 -17.53125 C 43.910156 -17.53125 43.953125 -17.40625 43.953125 -17.15625 Z M 18.40625 -16.53125 L 18.40625 -16.90625 L 19.15625 -16.90625 L 19.15625 -16.53125 Z M 41.328125 -14.90625 L 41.078125 -14.65625 L 40.828125 -14.65625 C 40.828125 -14.570312 40.742188 -14.53125 40.578125 -14.53125 L 40.578125 -15.03125 C 40.578125 -15.195312 40.660156 -15.363281 40.828125 -15.53125 C 40.910156 -15.53125 40.972656 -15.507812 41.015625 -15.46875 C 41.054688 -15.425781 41.078125 -15.40625 41.078125 -15.40625 Z M 37.0625 -13.40625 C 37.226562 -13.320312 37.3125 -13.070312 37.3125 -12.65625 C 36.976562 -12.65625 36.644531 -12.738281 36.3125 -12.90625 C 36.394531 -12.90625 36.457031 -12.925781 36.5 -12.96875 C 36.539062 -13.007812 36.5625 -13.03125 36.5625 -13.03125 C 36.5625 -13.113281 36.644531 -13.15625 36.8125 -13.15625 L 36.8125 -13.28125 C 36.8125 -13.363281 36.894531 -13.40625 37.0625 -13.40625 Z M 43.953125 -13.15625 C 44.035156 -13.070312 44.078125 -12.945312 44.078125 -12.78125 C 43.828125 -12.78125 43.328125 -12.90625 42.578125 -13.15625 L 43.953125 -13.40625 Z M 20.921875 -12.65625 L 20.40625 -12.90625 L 20.78125 -13.28125 L 21.296875 -13.15625 Z M 37.828125 -11.890625 C 38.160156 -11.890625 38.367188 -11.847656 38.453125 -11.765625 L 39.078125 -11.640625 C 39.078125 -11.222656 38.742188 -11.015625 38.078125 -11.015625 C 38.078125 -11.097656 37.90625 -11.140625 37.5625 -11.140625 Z M 35.3125 -11.015625 L 35.3125 -11.640625 L 35.8125 -11.640625 L 35.8125 -11.015625 Z M 23.921875 -8.765625 L 23.921875 -9.140625 L 24.796875 -9.140625 L 24.796875 -8.765625 Z M 37.5625 -8.390625 C 37.394531 -8.472656 37.3125 -8.597656 37.3125 -8.765625 C 37.3125 -9.015625 37.394531 -9.140625 37.5625 -9.140625 L 38.578125 -9.140625 Z M 37.5625 -8.390625 "/></g></g></g><g fill="rgb(0%, 0%, 0%)" fill-opacity="1"><g transform="translate(137.841735, 124.952574)"><g><path d="M -1.25 -2.625 C -1.25 -1.875 -1.019531 -1.25 -0.5625 -0.75 C -0.101562 -0.25 0.5 0 1.25 0 L 14.28125 0 C 16.03125 0 18.828125 -0.164062 22.671875 -0.5 C 30.179688 -1.5 36.398438 -4.253906 41.328125 -8.765625 C 44.835938 -11.941406 48.03125 -15.78125 50.90625 -20.28125 C 53.789062 -24.789062 55.984375 -29.96875 57.484375 -35.8125 C 58.984375 -41.988281 59.734375 -47.789062 59.734375 -53.21875 C 59.734375 -58.644531 58.984375 -63.90625 57.484375 -69 C 56.066406 -73.757812 53.5 -77.785156 49.78125 -81.078125 C 46.0625 -84.378906 41.53125 -86.320312 36.1875 -86.90625 C 34.019531 -87.070312 32.394531 -87.15625 31.3125 -87.15625 C 26.550781 -87.15625 21.957031 -86.613281 17.53125 -85.53125 L 5.015625 -82.53125 C 3.835938 -82.28125 3.164062 -81.488281 3 -80.15625 Z M 36.3125 -82.15625 C 35.976562 -82.15625 35.6875 -82.195312 35.4375 -82.28125 C 35.601562 -82.613281 35.894531 -82.90625 36.3125 -83.15625 L 36.5625 -83.03125 L 37.0625 -82.90625 L 37.0625 -82.65625 C 37.0625 -82.488281 37.101562 -82.40625 37.1875 -82.40625 L 37.1875 -82.15625 Z M 10.140625 -80.90625 L 10.015625 -80.78125 L 9.765625 -81.03125 L 9.765625 -81.15625 Z M 21.546875 -81.15625 C 21.546875 -80.488281 21.503906 -80.15625 21.421875 -80.15625 L 21.421875 -79.78125 C 20.742188 -79.78125 20.40625 -79.90625 20.40625 -80.15625 C 20.40625 -80.320312 20.53125 -80.65625 20.78125 -81.15625 Z M 36.5625 -80.15625 C 36.5625 -80.15625 36.1875 -79.988281 35.4375 -79.65625 C 35.1875 -79.90625 35.0625 -80.195312 35.0625 -80.53125 C 35.0625 -80.945312 35.1875 -81.15625 35.4375 -81.15625 L 36.3125 -81.15625 C 36.3125 -80.90625 36.351562 -80.738281 36.4375 -80.65625 C 36.519531 -80.570312 36.5625 -80.40625 36.5625 -80.15625 Z M 14.28125 -79.40625 C 14.195312 -79.40625 14.050781 -79.378906 13.84375 -79.328125 C 13.632812 -79.285156 13.238281 -79.265625 12.65625 -79.265625 L 12.65625 -79.53125 C 12.5625 -79.53125 12.515625 -79.613281 12.515625 -79.78125 L 12.515625 -79.90625 L 12.78125 -79.90625 L 13.03125 -80.03125 C 13.445312 -80.03125 13.863281 -79.820312 14.28125 -79.40625 Z M 29.5625 -76.765625 L 29.3125 -75.765625 L 27.921875 -75.890625 L 28.171875 -76.765625 Z M 49.21875 -67.625 C 49.21875 -66.957031 48.632812 -66.625 47.46875 -66.625 C 46.71875 -66.625 46.34375 -66.875 46.34375 -67.375 L 46.59375 -67.875 L 47.21875 -68.375 C 47.882812 -68.375 48.507812 -68.5 49.09375 -68.75 L 49.09375 -68.125 Z M 42.828125 -68 L 43.078125 -68 L 43.078125 -67.5 L 42.828125 -67.5 Z M 28.171875 -66.25 C 29.347656 -66.5 30.394531 -66.625 31.3125 -66.625 C 32.726562 -66.625 33.894531 -66.3125 34.8125 -65.6875 C 35.726562 -65.0625 36.476562 -64.035156 37.0625 -62.609375 C 37.738281 -60.691406 38.242188 -58.960938 38.578125 -57.421875 C 38.910156 -55.878906 39.078125 -54.144531 39.078125 -52.21875 L 38.953125 -49.71875 L 39.453125 -50.34375 C 40.535156 -50.09375 41.078125 -49.800781 41.078125 -49.46875 C 41.078125 -48.882812 40.660156 -48.59375 39.828125 -48.59375 C 39.578125 -48.59375 39.367188 -48.71875 39.203125 -48.96875 C 39.117188 -48.96875 38.992188 -49.09375 38.828125 -49.34375 C 38.578125 -46.664062 37.988281 -43.617188 37.0625 -40.203125 C 36.394531 -38.023438 35.3125 -35.351562 33.8125 -32.1875 C 32.476562 -29.257812 30.660156 -26.960938 28.359375 -25.296875 C 26.066406 -23.628906 23.082031 -22.460938 19.40625 -21.796875 L 19.65625 -26.921875 L 19.53125 -26.921875 C 18.945312 -26.921875 18.53125 -27.171875 18.28125 -27.671875 C 18.113281 -28.003906 18.03125 -28.296875 18.03125 -28.546875 L 18.03125 -29.171875 C 18.03125 -29.265625 18.320312 -29.519531 18.90625 -29.9375 L 19.90625 -29.9375 L 21.796875 -59.359375 C 21.460938 -59.523438 21.296875 -59.691406 21.296875 -59.859375 C 21.296875 -60.023438 21 -60.691406 20.40625 -61.859375 C 21.164062 -62.109375 21.671875 -62.445312 21.921875 -62.875 L 22.046875 -62.875 L 22.171875 -65.125 Z M 4.765625 -53.84375 C 4.765625 -53.757812 4.679688 -53.71875 4.515625 -53.71875 C 4.515625 -53.800781 4.429688 -53.757812 4.265625 -53.59375 L 5.640625 -64.625 C 5.722656 -64.539062 5.867188 -64.289062 6.078125 -63.875 C 6.285156 -63.457031 6.347656 -63.164062 6.265625 -63 C 6.179688 -62.570312 6.078125 -62.066406 5.953125 -61.484375 C 5.828125 -60.898438 5.722656 -60.523438 5.640625 -60.359375 L 5.515625 -59.109375 L 5.265625 -55.734375 L 5.265625 -54.859375 Z M 48.09375 -63.625 C 48.09375 -63.789062 48.007812 -63.875 47.84375 -63.875 L 48.34375 -64.125 C 48.675781 -64.125 48.925781 -64.039062 49.09375 -63.875 L 48.34375 -63.25 Z M 40.078125 -63 C 40.160156 -63 40.203125 -62.957031 40.203125 -62.875 C 40.203125 -62.695312 40.117188 -62.609375 39.953125 -62.609375 C 39.785156 -62.609375 39.535156 -62.695312 39.203125 -62.875 C 39.453125 -63.125 39.742188 -63.164062 40.078125 -63 Z M 49.84375 -60.859375 C 49.507812 -60.859375 49.34375 -61.023438 49.34375 -61.359375 C 49.507812 -61.691406 49.757812 -61.859375 50.09375 -61.859375 C 50.09375 -61.773438 50.21875 -61.609375 50.46875 -61.359375 Z M 45.828125 -60.359375 C 45.828125 -60.109375 45.660156 -59.898438 45.328125 -59.734375 C 44.992188 -59.566406 44.742188 -59.523438 44.578125 -59.609375 C 44.578125 -60.191406 44.117188 -60.609375 43.203125 -60.859375 C 43.453125 -61.023438 43.578125 -61.148438 43.578125 -61.234375 C 43.742188 -61.398438 43.910156 -61.484375 44.078125 -61.484375 L 44.578125 -61.484375 C 44.742188 -61.398438 44.828125 -61.273438 44.828125 -61.109375 L 45.078125 -60.859375 C 45.078125 -60.691406 45.242188 -60.609375 45.578125 -60.609375 C 45.742188 -60.609375 45.828125 -60.523438 45.828125 -60.359375 Z M 43.078125 -60.859375 C 42.910156 -60.773438 42.785156 -60.671875 42.703125 -60.546875 C 42.617188 -60.421875 42.535156 -60.359375 42.453125 -60.359375 L 41.703125 -60.359375 L 41.578125 -60.484375 C 41.578125 -60.484375 41.554688 -60.503906 41.515625 -60.546875 C 41.472656 -60.585938 41.453125 -60.609375 41.453125 -60.609375 C 41.453125 -60.941406 41.660156 -61.109375 42.078125 -61.109375 L 42.828125 -61.109375 Z M 50.09375 -59.359375 C 49.675781 -59.359375 49.46875 -59.484375 49.46875 -59.734375 C 49.46875 -60.066406 49.59375 -60.273438 49.84375 -60.359375 L 50.09375 -59.859375 Z M 50.46875 -54.984375 L 49.84375 -55.109375 C 49.757812 -55.191406 49.695312 -55.253906 49.65625 -55.296875 C 49.613281 -55.335938 49.59375 -55.398438 49.59375 -55.484375 C 49.59375 -55.734375 49.757812 -55.859375 50.09375 -55.859375 C 50.507812 -55.859375 50.757812 -55.816406 50.84375 -55.734375 L 50.84375 -55.109375 Z M 40.828125 -53.71875 C 40.078125 -53.96875 39.703125 -54.179688 39.703125 -54.359375 C 39.785156 -54.523438 39.703125 -54.816406 39.453125 -55.234375 L 39.953125 -54.984375 C 40.285156 -54.984375 40.578125 -55.109375 40.828125 -55.359375 L 41.078125 -55.234375 L 41.203125 -54.984375 L 41.203125 -53.96875 Z M 45.328125 -54.359375 L 44.828125 -53.84375 C 44.328125 -53.59375 44.078125 -53.71875 44.078125 -54.21875 C 44.078125 -54.394531 44.242188 -54.609375 44.578125 -54.859375 L 45.078125 -54.734375 L 45.453125 -54.609375 Z M 53.09375 -53.09375 C 52.925781 -53.007812 52.675781 -53.132812 52.34375 -53.46875 L 52.46875 -53.59375 L 52.59375 -53.59375 C 52.84375 -53.59375 53.007812 -53.550781 53.09375 -53.46875 Z M 43.828125 -49.96875 C 43.828125 -49.800781 43.703125 -49.632812 43.453125 -49.46875 L 43.078125 -49.46875 C 42.992188 -49.382812 42.828125 -49.34375 42.578125 -49.34375 C 42.242188 -49.34375 41.929688 -49.550781 41.640625 -49.96875 C 41.347656 -50.382812 41.203125 -50.675781 41.203125 -50.84375 C 41.203125 -51.007812 41.242188 -51.09375 41.328125 -51.09375 C 41.410156 -51.175781 41.453125 -51.300781 41.453125 -51.46875 C 41.453125 -51.632812 41.410156 -51.71875 41.328125 -51.71875 C 41.078125 -51.882812 40.910156 -52.007812 40.828125 -52.09375 C 40.828125 -52.09375 40.847656 -52.113281 40.890625 -52.15625 C 40.929688 -52.195312 40.953125 -52.21875 40.953125 -52.21875 L 41.203125 -52.21875 C 41.785156 -52.21875 42.203125 -51.96875 42.453125 -51.46875 C 42.535156 -51.382812 42.578125 -51.28125 42.578125 -51.15625 C 42.578125 -51.03125 42.617188 -50.925781 42.703125 -50.84375 L 42.828125 -50.46875 Z M 46.34375 -48.46875 L 46.21875 -48.84375 C 46.550781 -49.007812 46.882812 -49.09375 47.21875 -49.09375 C 47.21875 -49.007812 47.238281 -48.945312 47.28125 -48.90625 C 47.320312 -48.863281 47.300781 -48.800781 47.21875 -48.71875 L 47.21875 -48.34375 L 46.46875 -48.21875 Z M 45.203125 -47.34375 L 45.203125 -47.46875 L 45.578125 -47.34375 L 45.453125 -47.21875 Z M 44.453125 -45.453125 L 43.828125 -45.453125 L 43.703125 -45.703125 C 43.617188 -45.785156 43.578125 -46.039062 43.578125 -46.46875 L 44.078125 -46.59375 C 44.328125 -46.59375 44.492188 -46.550781 44.578125 -46.46875 C 44.578125 -46.382812 44.660156 -46.257812 44.828125 -46.09375 L 44.828125 -45.578125 Z M 45.703125 -44.953125 C 45.878906 -44.617188 45.835938 -44.328125 45.578125 -44.078125 L 45.078125 -44.703125 L 45.328125 -44.828125 Z M 43.203125 -44.203125 C 43.203125 -43.953125 43.078125 -43.828125 42.828125 -43.828125 C 42.578125 -43.828125 42.453125 -43.867188 42.453125 -43.953125 L 42.203125 -44.078125 L 42.453125 -44.328125 L 43.078125 -44.328125 C 43.078125 -44.242188 43.117188 -44.203125 43.203125 -44.203125 Z M 53.34375 -43.078125 C 52.925781 -43.078125 52.71875 -43.117188 52.71875 -43.203125 L 52.96875 -43.453125 C 53.21875 -43.453125 53.34375 -43.328125 53.34375 -43.078125 Z M 6.515625 -42.328125 C 6.265625 -42.242188 6.015625 -42.242188 5.765625 -42.328125 L 5.015625 -42.328125 L 5.015625 -43.328125 C 5.679688 -42.992188 6.179688 -42.660156 6.515625 -42.328125 Z M 47.09375 -41.953125 C 46.925781 -41.953125 46.648438 -41.929688 46.265625 -41.890625 C 45.890625 -41.847656 45.703125 -41.867188 45.703125 -41.953125 C 45.785156 -42.035156 45.828125 -42.242188 45.828125 -42.578125 C 45.828125 -42.828125 45.957031 -42.992188 46.21875 -43.078125 L 46.71875 -43.078125 L 46.96875 -42.703125 C 46.96875 -42.453125 47.09375 -42.328125 47.34375 -42.328125 L 47.34375 -41.953125 Z M 45.453125 -41.828125 L 45.328125 -41.703125 L 45.203125 -41.703125 L 45.078125 -41.578125 L 44.828125 -41.578125 C 44.578125 -41.828125 44.453125 -42.078125 44.453125 -42.328125 L 45.203125 -42.328125 L 45.453125 -42.203125 C 45.535156 -42.203125 45.578125 -42.117188 45.578125 -41.953125 L 45.578125 -41.828125 Z M 49.09375 -37.953125 C 49.09375 -37.785156 48.96875 -37.570312 48.71875 -37.3125 C 48.550781 -37.144531 48.46875 -36.894531 48.46875 -36.5625 L 48.09375 -36.5625 C 47.507812 -36.894531 47.21875 -37.1875 47.21875 -37.4375 L 47.21875 -39.078125 C 47.21875 -39.242188 47.257812 -39.328125 47.34375 -39.328125 C 47.507812 -39.492188 47.59375 -39.660156 47.59375 -39.828125 C 47.59375 -39.992188 47.550781 -40.117188 47.46875 -40.203125 C 47.46875 -40.285156 47.382812 -40.492188 47.21875 -40.828125 C 47.300781 -40.910156 47.46875 -40.953125 47.71875 -40.953125 L 47.84375 -40.953125 C 47.84375 -40.867188 47.925781 -40.828125 48.09375 -40.828125 L 48.21875 -40.828125 C 48.21875 -40.492188 48.34375 -39.617188 48.59375 -38.203125 C 48.59375 -38.203125 48.613281 -38.179688 48.65625 -38.140625 C 48.695312 -38.097656 48.757812 -38.078125 48.84375 -38.078125 C 49.007812 -38.078125 49.09375 -38.035156 49.09375 -37.953125 Z M 51.34375 -40.078125 C 51.34375 -39.992188 51.175781 -39.867188 50.84375 -39.703125 C 50.757812 -39.703125 50.675781 -39.679688 50.59375 -39.640625 C 50.507812 -39.597656 50.425781 -39.578125 50.34375 -39.578125 C 50.257812 -39.578125 50.050781 -39.660156 49.71875 -39.828125 L 49.71875 -40.703125 C 49.71875 -40.703125 49.738281 -40.722656 49.78125 -40.765625 C 49.820312 -40.804688 49.84375 -40.828125 49.84375 -40.828125 L 50.09375 -40.828125 C 50.507812 -40.828125 50.820312 -40.742188 51.03125 -40.578125 C 51.238281 -40.410156 51.34375 -40.242188 51.34375 -40.078125 Z M 49.59375 -38.578125 C 49.59375 -38.578125 49.570312 -38.554688 49.53125 -38.515625 C 49.488281 -38.472656 49.46875 -38.453125 49.46875 -38.453125 L 49.34375 -38.328125 L 49.34375 -38.203125 L 49.09375 -38.453125 Z M 44.578125 -36.5625 C 44.410156 -36.644531 44.328125 -36.769531 44.328125 -36.9375 C 44.328125 -37.101562 44.367188 -37.226562 44.453125 -37.3125 C 44.535156 -37.3125 44.578125 -37.394531 44.578125 -37.5625 L 44.828125 -37.703125 C 45.242188 -37.523438 45.453125 -37.351562 45.453125 -37.1875 C 45.453125 -37.101562 45.410156 -37.0625 45.328125 -37.0625 L 45.328125 -36.9375 C 45.410156 -36.851562 45.578125 -36.8125 45.828125 -36.8125 L 45.96875 -36.5625 C 46.050781 -36.5625 46.09375 -36.476562 46.09375 -36.3125 L 44.828125 -36.3125 Z M 48.34375 -36.1875 L 48.59375 -36.1875 L 48.59375 -35.4375 L 48.34375 -35.4375 Z M 43.328125 -35.4375 C 43.078125 -35.1875 42.785156 -35.019531 42.453125 -34.9375 L 42.203125 -35.3125 L 42.203125 -35.5625 L 42.453125 -35.6875 L 42.828125 -35.8125 Z M 45.328125 -33.3125 C 44.828125 -33.3125 44.492188 -33.144531 44.328125 -32.8125 C 44.160156 -32.726562 43.972656 -32.75 43.765625 -32.875 C 43.554688 -33 43.453125 -33.144531 43.453125 -33.3125 C 43.453125 -33.476562 43.492188 -33.664062 43.578125 -33.875 C 43.660156 -34.082031 43.785156 -34.226562 43.953125 -34.3125 C 43.867188 -34.476562 44.078125 -34.3125 44.578125 -33.8125 C 45.078125 -33.476562 45.328125 -33.3125 45.328125 -33.3125 Z M 15.03125 -30.9375 L 14.53125 -30.8125 L 14.40625 -31.3125 C 14.238281 -31.3125 14.28125 -31.4375 14.53125 -31.6875 L 15.28125 -31.6875 C 15.613281 -31.519531 15.78125 -31.3125 15.78125 -31.0625 Z M 41.078125 -31.0625 C 41.160156 -30.8125 41.160156 -30.644531 41.078125 -30.5625 C 40.992188 -30.5625 40.929688 -30.601562 40.890625 -30.6875 C 40.847656 -30.769531 40.828125 -30.8125 40.828125 -30.8125 Z M 39.953125 -30.6875 C 39.953125 -30.6875 39.929688 -30.664062 39.890625 -30.625 C 39.847656 -30.582031 39.828125 -30.5625 39.828125 -30.5625 C 39.660156 -30.394531 39.492188 -30.3125 39.328125 -30.3125 L 39.328125 -30.8125 C 39.578125 -30.8125 39.785156 -30.769531 39.953125 -30.6875 Z M 46.09375 -28.796875 C 45.414062 -28.796875 45.078125 -29.050781 45.078125 -29.5625 C 45.078125 -29.8125 45.203125 -29.976562 45.453125 -30.0625 L 46.46875 -30.0625 C 46.71875 -30.0625 46.84375 -29.976562 46.84375 -29.8125 L 47.09375 -29.4375 L 47.09375 -29.046875 Z M 47.71875 -25.546875 L 47.71875 -25.796875 L 48.46875 -25.796875 L 48.46875 -25.296875 L 47.59375 -25.296875 Z M 2.5 -24.671875 C 2.332031 -24.671875 2.207031 -24.734375 2.125 -24.859375 C 2.039062 -24.984375 2.125 -25.046875 2.375 -25.046875 L 2.375 -24.921875 C 2.375 -24.835938 2.414062 -24.796875 2.5 -24.796875 Z M 15.03125 -15.03125 L 15.03125 -15.53125 C 15.613281 -15.53125 15.78125 -15.320312 15.53125 -14.90625 Z M 4.765625 -13.78125 L 4.640625 -13.65625 L 4 -13.78125 L 4 -14.03125 Z M 8.140625 -12.90625 L 6.765625 -12.78125 C 6.765625 -12.945312 6.722656 -13.03125 6.640625 -13.03125 L 6.640625 -13.28125 C 6.640625 -13.78125 6.972656 -14.03125 7.640625 -14.03125 C 7.804688 -14.03125 8.035156 -13.925781 8.328125 -13.71875 C 8.617188 -13.507812 8.765625 -13.28125 8.765625 -13.03125 Z M 6.515625 -9.890625 C 6.515625 -9.804688 6.347656 -9.597656 6.015625 -9.265625 C 5.679688 -9.015625 5.429688 -8.679688 5.265625 -8.265625 C 4.929688 -8.597656 4.722656 -8.929688 4.640625 -9.265625 L 4.265625 -10.765625 L 4.125 -11.140625 C 4.125 -11.304688 4.082031 -11.429688 4 -11.515625 C 4.257812 -11.429688 4.597656 -11.390625 5.015625 -11.390625 L 6.140625 -11.390625 C 6.054688 -11.222656 6.097656 -10.972656 6.265625 -10.640625 Z M 26.296875 -6.765625 L 25.921875 -6.765625 L 26.296875 -6.890625 L 26.546875 -7.015625 C 26.710938 -7.015625 26.796875 -6.890625 26.796875 -6.640625 Z M 6.015625 -5.765625 C 5.929688 -5.765625 5.804688 -5.679688 5.640625 -5.515625 C 5.554688 -5.429688 5.347656 -5.390625 5.015625 -5.390625 C 4.765625 -5.390625 4.53125 -5.429688 4.3125 -5.515625 C 4.101562 -5.597656 4 -5.679688 4 -5.765625 C 4.34375 -5.765625 4.554688 -5.804688 4.640625 -5.890625 C 4.804688 -5.972656 5.015625 -6.015625 5.265625 -6.015625 Z M 6.015625 -5.765625 "/></g></g></g><g fill="rgb(0%, 0%, 0%)" fill-opacity="1"><g transform="translate(202.71003, 124.952574)"><g><path d="M 31.4375 -70 C 29.007812 -70.414062 27.296875 -69.332031 26.296875 -66.75 C 25.460938 -65.164062 25.046875 -63.535156 25.046875 -61.859375 C 25.046875 -59.109375 26.210938 -56.691406 28.546875 -54.609375 C 29.972656 -53.179688 31.644531 -51.882812 33.5625 -50.71875 L 37.4375 -48.34375 C 47.789062 -42.082031 52.96875 -34.316406 52.96875 -25.046875 C 52.96875 -23.796875 52.925781 -22.878906 52.84375 -22.296875 L 52.84375 -22.171875 C 51.925781 -17.410156 50.296875 -13.316406 47.953125 -9.890625 C 45.617188 -6.472656 42.535156 -4.007812 38.703125 -2.5 C 37.109375 -1.914062 35.476562 -1.414062 33.8125 -1 L 37.1875 -0.625 C 37.019531 0.457031 36.851562 2.085938 36.6875 4.265625 L 36.3125 9.015625 C 36.144531 10.847656 35.269531 11.722656 33.6875 11.640625 L 27.546875 11.015625 C 26.710938 11.015625 26.085938 10.804688 25.671875 10.390625 C 25.253906 9.804688 25.003906 9.140625 24.921875 8.390625 L 26.171875 -0.125 C 23.335938 -0.125 21.207031 -0.207031 19.78125 -0.375 C 14.1875 -0.957031 7.175781 -3.546875 -1.25 -8.140625 C -2.164062 -8.640625 -2.625 -9.304688 -2.625 -10.140625 C -2.625 -10.554688 -2.5 -11.015625 -2.25 -11.515625 L 3.25 -22.546875 C 3.664062 -23.546875 4.421875 -24.046875 5.515625 -24.046875 C 6.015625 -24.046875 6.429688 -23.921875 6.765625 -23.671875 C 10.773438 -21.242188 14.695312 -19.320312 18.53125 -17.90625 C 20.375 -17.238281 22.046875 -16.90625 23.546875 -16.90625 C 25.378906 -16.90625 26.859375 -17.40625 27.984375 -18.40625 C 29.117188 -19.40625 29.6875 -20.828125 29.6875 -22.671875 C 29.6875 -25.585938 28.390625 -28.007812 25.796875 -29.9375 C 24.546875 -30.9375 21.789062 -32.726562 17.53125 -35.3125 L 15.03125 -36.8125 L 14.78125 -36.9375 C 13.945312 -37.351562 11.484375 -39.273438 7.390625 -42.703125 C 7.390625 -42.703125 7.367188 -42.722656 7.328125 -42.765625 C 7.285156 -42.804688 7.265625 -42.828125 7.265625 -42.828125 C 5.003906 -44.921875 3.457031 -47.71875 2.625 -51.21875 C 2.125 -53.476562 1.875 -55.691406 1.875 -57.859375 C 1.875 -63.203125 3.378906 -68.378906 6.390625 -73.390625 C 10.566406 -80.734375 17.242188 -84.945312 26.421875 -86.03125 C 28.597656 -86.28125 30.8125 -86.40625 33.0625 -86.40625 L 34.1875 -95.671875 C 34.351562 -96.515625 34.644531 -97.101562 35.0625 -97.4375 C 35.476562 -97.769531 36.101562 -97.9375 36.9375 -97.9375 L 42.328125 -97.8125 C 43.078125 -97.726562 43.679688 -97.4375 44.140625 -96.9375 C 44.597656 -96.4375 44.785156 -95.765625 44.703125 -94.921875 L 43.578125 -84.40625 C 46.253906 -83.320312 48.382812 -81.738281 49.96875 -79.65625 C 51.800781 -77.3125 52.882812 -74.09375 53.21875 -70 C 53.382812 -68.664062 53.46875 -67.164062 53.46875 -65.5 C 53.46875 -63.570312 53.382812 -61.273438 53.21875 -58.609375 C 53.21875 -57.023438 52.382812 -56.234375 50.71875 -56.234375 L 36.1875 -56.234375 C 34.519531 -56.234375 33.6875 -57.066406 33.6875 -58.734375 C 33.6875 -61.578125 33.5625 -64.539062 33.3125 -67.625 C 33.0625 -69.125 32.476562 -69.914062 31.5625 -70 Z M 38.828125 -71.765625 L 38.828125 -71.515625 L 39.328125 -71.515625 L 39.328125 -71.765625 Z M 42.078125 -67.875 C 42.078125 -67.875 42.054688 -67.894531 42.015625 -67.9375 C 41.972656 -67.976562 41.953125 -68 41.953125 -68 L 41.828125 -67.75 C 41.828125 -67.75 41.804688 -67.726562 41.765625 -67.6875 C 41.722656 -67.644531 41.703125 -67.625 41.703125 -67.625 C 41.617188 -67.457031 41.640625 -67.375 41.765625 -67.375 C 41.890625 -67.375 41.992188 -67.414062 42.078125 -67.5 L 42.328125 -67.75 Z M 39.203125 -62.234375 C 39.285156 -62.234375 39.328125 -62.316406 39.328125 -62.484375 L 39.203125 -62.75 C 38.785156 -62.75 38.578125 -62.578125 38.578125 -62.234375 Z M 35.5625 -41.578125 C 35.394531 -41.160156 35.351562 -40.804688 35.4375 -40.515625 C 35.519531 -40.222656 35.5625 -40.078125 35.5625 -40.078125 L 36.5625 -40.078125 C 36.5625 -40.328125 36.476562 -40.535156 36.3125 -40.703125 L 36.4375 -40.953125 C 36.4375 -41.285156 36.394531 -41.492188 36.3125 -41.578125 Z M 32.0625 -40.703125 L 32.0625 -41.203125 L 30.9375 -41.203125 L 30.9375 -40.703125 Z M 36.8125 -40.078125 C 36.476562 -40.078125 36.226562 -40.035156 36.0625 -39.953125 C 36.0625 -39.953125 36.226562 -39.703125 36.5625 -39.203125 L 37.5625 -39.703125 L 37.5625 -39.828125 L 37.828125 -39.953125 L 37.3125 -40.078125 Z M 34.0625 -35.1875 L 34.3125 -35.0625 L 34.5625 -35.1875 C 34.5625 -35.351562 34.476562 -35.519531 34.3125 -35.6875 L 34.0625 -35.8125 L 33.8125 -36.0625 L 33.8125 -35.1875 Z M 40.828125 -34.5625 C 40.328125 -34.3125 40.078125 -34.019531 40.078125 -33.6875 L 40.828125 -33.6875 L 41.078125 -33.8125 L 41.328125 -33.8125 L 41.328125 -34.0625 Z M 40.328125 -31.5625 L 40.328125 -32.0625 L 39.203125 -32.1875 L 39.203125 -31.8125 Z M 44.453125 -29.046875 C 44.617188 -28.628906 44.953125 -28.421875 45.453125 -28.421875 C 45.960938 -28.421875 46.21875 -28.671875 46.21875 -29.171875 C 46.21875 -29.347656 46.175781 -29.4375 46.09375 -29.4375 L 45.96875 -29.5625 C 45.875 -29.5625 45.828125 -29.601562 45.828125 -29.6875 L 44.703125 -29.6875 Z M 40.828125 -29.4375 L 40.328125 -29.5625 L 39.953125 -29.171875 L 40.453125 -28.921875 Z M 41.828125 -26.171875 L 41.328125 -26.171875 L 41.078125 -25.296875 L 41.328125 -25.171875 L 41.453125 -25.171875 L 41.578125 -25.046875 L 42.453125 -25.046875 C 42.453125 -25.128906 42.492188 -25.171875 42.578125 -25.171875 L 42.578125 -25.421875 C 42.660156 -25.421875 42.703125 -25.503906 42.703125 -25.671875 C 42.453125 -25.671875 42.328125 -25.753906 42.328125 -25.921875 Z M 46.71875 -25.671875 C 46.550781 -25.503906 46.507812 -25.335938 46.59375 -25.171875 L 46.59375 -24.671875 C 46.757812 -24.671875 46.96875 -24.796875 47.21875 -25.046875 L 47.46875 -25.171875 L 47.84375 -25.421875 L 47.46875 -25.546875 L 47.21875 -25.671875 Z M 43.703125 -24.296875 C 43.367188 -24.296875 43.117188 -24.273438 42.953125 -24.234375 C 42.785156 -24.191406 42.660156 -24.171875 42.578125 -24.171875 L 42.578125 -24.046875 C 42.578125 -23.546875 42.910156 -23.296875 43.578125 -23.296875 L 44.078125 -23.546875 L 44.578125 -23.921875 L 44.453125 -24.546875 C 44.203125 -24.546875 44.035156 -24.503906 43.953125 -24.421875 Z M 43.828125 -19.78125 C 43.910156 -19.863281 43.953125 -19.988281 43.953125 -20.15625 C 43.953125 -20.238281 43.617188 -20.617188 42.953125 -21.296875 C 42.785156 -21.128906 42.703125 -21.003906 42.703125 -20.921875 L 42.453125 -20.78125 C 42.367188 -20.695312 42.242188 -20.65625 42.078125 -20.65625 L 41.953125 -20.65625 C 41.703125 -20.65625 41.492188 -20.695312 41.328125 -20.78125 C 41.078125 -20.875 40.742188 -20.921875 40.328125 -20.921875 L 39.953125 -20.921875 L 39.953125 -20.40625 L 40.078125 -20.28125 C 40.078125 -20.195312 40.160156 -20.070312 40.328125 -19.90625 C 40.828125 -19.820312 41.222656 -19.757812 41.515625 -19.71875 C 41.804688 -19.675781 41.953125 -19.65625 41.953125 -19.65625 L 42.328125 -19.65625 C 42.492188 -19.488281 42.703125 -19.40625 42.953125 -19.40625 L 43.328125 -19.40625 L 43.578125 -19.53125 L 43.828125 -19.53125 Z M 46.96875 -20.78125 L 46.09375 -20.78125 C 46.09375 -20.53125 45.960938 -20.28125 45.703125 -20.03125 L 46.71875 -20.03125 L 46.71875 -20.28125 Z M 45.96875 -19.90625 L 45.328125 -19.90625 L 45.328125 -19.15625 L 45.96875 -19.15625 Z M 41.953125 -17.90625 C 42.367188 -18.15625 42.578125 -18.363281 42.578125 -18.53125 L 42.578125 -19.03125 L 41.328125 -19.03125 C 41.410156 -19.113281 41.242188 -19.03125 40.828125 -18.78125 C 40.742188 -18.695312 40.578125 -18.65625 40.328125 -18.65625 C 39.828125 -18.40625 39.578125 -18.15625 39.578125 -17.90625 L 39.578125 -17.65625 C 39.742188 -17.488281 40.078125 -17.40625 40.578125 -17.40625 L 41.078125 -17.40625 Z M 45.96875 -16.53125 C 46.382812 -16.53125 46.59375 -16.738281 46.59375 -17.15625 C 46.59375 -17.238281 46.46875 -17.40625 46.21875 -17.65625 L 45.578125 -18.03125 C 45.160156 -17.945312 44.953125 -17.65625 44.953125 -17.15625 C 44.953125 -16.90625 45.117188 -16.570312 45.453125 -16.15625 Z M 42.703125 -17.15625 C 42.703125 -17.40625 42.660156 -17.53125 42.578125 -17.53125 L 41.828125 -17.53125 L 41.328125 -17.15625 L 41.328125 -16.65625 C 41.828125 -16.570312 42.285156 -16.570312 42.703125 -16.65625 Z M 17.15625 -16.90625 L 17.15625 -16.53125 L 17.90625 -16.53125 L 17.90625 -16.90625 Z M 39.953125 -15.15625 L 39.828125 -15.40625 C 39.828125 -15.40625 39.804688 -15.425781 39.765625 -15.46875 C 39.722656 -15.507812 39.660156 -15.53125 39.578125 -15.53125 C 39.410156 -15.363281 39.328125 -15.195312 39.328125 -15.03125 L 39.328125 -14.53125 C 39.492188 -14.53125 39.578125 -14.570312 39.578125 -14.65625 L 39.828125 -14.65625 L 40.078125 -14.90625 Z M 35.3125 -13.03125 C 35.3125 -13.03125 35.289062 -13.007812 35.25 -12.96875 C 35.207031 -12.925781 35.144531 -12.90625 35.0625 -12.90625 C 35.394531 -12.738281 35.726562 -12.65625 36.0625 -12.65625 C 36.0625 -13.070312 35.976562 -13.320312 35.8125 -13.40625 C 35.644531 -13.40625 35.5625 -13.363281 35.5625 -13.28125 L 35.5625 -13.15625 C 35.394531 -13.15625 35.3125 -13.113281 35.3125 -13.03125 Z M 41.328125 -13.15625 C 42.078125 -12.90625 42.578125 -12.78125 42.828125 -12.78125 C 42.828125 -12.945312 42.785156 -13.070312 42.703125 -13.15625 L 42.703125 -13.40625 Z M 19.53125 -13.28125 L 19.15625 -12.90625 L 19.65625 -12.65625 L 20.03125 -13.15625 Z M 36.8125 -11.015625 C 37.488281 -11.015625 37.828125 -11.222656 37.828125 -11.640625 L 37.1875 -11.765625 C 37.101562 -11.847656 36.894531 -11.890625 36.5625 -11.890625 L 36.3125 -11.140625 C 36.644531 -11.140625 36.8125 -11.097656 36.8125 -11.015625 Z M 34.0625 -11.640625 L 34.0625 -11.015625 L 34.5625 -11.015625 L 34.5625 -11.640625 Z M 22.671875 -9.140625 L 22.671875 -8.765625 L 23.546875 -8.765625 L 23.546875 -9.140625 Z M 36.3125 -9.140625 C 36.144531 -9.140625 36.0625 -9.015625 36.0625 -8.765625 C 36.0625 -8.597656 36.144531 -8.472656 36.3125 -8.390625 L 37.3125 -9.140625 Z M 36.3125 -9.140625 "/></g></g></g><g fill="rgb(0%, 0%, 0%)" fill-opacity="1"><g transform="translate(265.324212, 124.952574)"><g/></g></g><g fill="rgb(0%, 0%, 0%)" fill-opacity="1"><g transform="translate(302.892723, 124.952574)"><g><path d="M 30.0625 -23.921875 C 34.226562 -24.421875 37.898438 -25.085938 41.078125 -25.921875 C 43.910156 -26.753906 46.039062 -27.335938 47.46875 -27.671875 C 47.632812 -27.753906 47.882812 -27.796875 48.21875 -27.796875 C 48.71875 -27.796875 49.132812 -27.628906 49.46875 -27.296875 C 50.050781 -26.796875 50.34375 -26.171875 50.34375 -25.421875 L 49.21875 -5.890625 C 49.21875 -4.628906 48.59375 -3.914062 47.34375 -3.75 C 38.15625 -2.25 30.429688 -1.207031 24.171875 -0.625 C 20.160156 -0.207031 16.40625 0 12.90625 0 C 11.0625 0 9.679688 -0.0390625 8.765625 -0.125 C 4.753906 -0.457031 1.914062 -1.878906 0.25 -4.390625 C -0.75 -6.304688 -1.25 -8.222656 -1.25 -10.140625 C -1.25 -11.722656 -0.957031 -13.519531 -0.375 -15.53125 C 0.625 -18.695312 2.039062 -21.617188 3.875 -24.296875 L 12.78125 -37.828125 L 12.78125 -37.953125 C 16.03125 -42.285156 19.578125 -47.332031 23.421875 -53.09375 C 23.585938 -53.257812 23.734375 -53.488281 23.859375 -53.78125 C 23.984375 -54.070312 24.171875 -54.390625 24.421875 -54.734375 L 24.546875 -54.734375 L 25.046875 -54.984375 L 25.046875 -55.234375 C 25.046875 -55.316406 24.921875 -55.398438 24.671875 -55.484375 C 25.003906 -56.148438 25.585938 -57.566406 26.421875 -59.734375 C 26.421875 -59.816406 26.546875 -60.273438 26.796875 -61.109375 C 27.046875 -61.941406 27.128906 -62.570312 27.046875 -63 C 26.960938 -63 26.921875 -63.039062 26.921875 -63.125 C 26.753906 -63.289062 26.421875 -63.375 25.921875 -63.375 C 24.835938 -63.375 23.476562 -63.078125 21.84375 -62.484375 C 20.21875 -61.898438 18.738281 -61.316406 17.40625 -60.734375 C 14.570312 -59.398438 10.398438 -57.0625 4.890625 -53.71875 C 4.640625 -53.550781 4.257812 -53.46875 3.75 -53.46875 C 3.082031 -53.46875 2.519531 -53.675781 2.0625 -54.09375 C 1.601562 -54.519531 1.375 -55.066406 1.375 -55.734375 L 2.125 -79.265625 C 2.125 -80.359375 2.625 -81.070312 3.625 -81.40625 C 11.3125 -83.820312 17.242188 -85.363281 21.421875 -86.03125 C 24.921875 -86.695312 28.300781 -87.03125 31.5625 -87.03125 C 34.894531 -87.03125 37.859375 -86.695312 40.453125 -86.03125 C 44.878906 -84.945312 48.09375 -82.921875 50.09375 -79.953125 C 52.09375 -76.992188 53.09375 -73.59375 53.09375 -69.75 C 53.09375 -66.664062 52.59375 -63.867188 51.59375 -61.359375 C 50.007812 -57.109375 48.425781 -53.6875 46.84375 -51.09375 L 46.84375 -50.96875 L 41.828125 -43.078125 Z M 30.8125 -80.53125 C 31.394531 -80.53125 31.8125 -80.28125 32.0625 -79.78125 C 32.394531 -80.363281 32.394531 -80.820312 32.0625 -81.15625 C 31.5625 -80.988281 31.269531 -80.90625 31.1875 -80.90625 L 30.4375 -80.53125 Z M 33.9375 -80.28125 C 33.9375 -80.113281 34.019531 -79.945312 34.1875 -79.78125 C 34.351562 -79.613281 34.519531 -79.488281 34.6875 -79.40625 C 34.769531 -79.40625 34.832031 -79.445312 34.875 -79.53125 C 34.914062 -79.613281 34.976562 -79.695312 35.0625 -79.78125 L 35.0625 -80.28125 Z M 29.4375 -78.390625 C 29.175781 -78.390625 29.046875 -78.304688 29.046875 -78.140625 C 29.722656 -78.140625 30.3125 -78.179688 30.8125 -78.265625 L 31.1875 -78.265625 C 31.6875 -78.265625 31.9375 -77.972656 31.9375 -77.390625 L 31.0625 -76.765625 C 30.894531 -76.597656 30.8125 -76.429688 30.8125 -76.265625 C 31.8125 -75.765625 32.769531 -75.640625 33.6875 -75.890625 C 33.351562 -76.054688 33.144531 -76.265625 33.0625 -76.515625 C 32.976562 -76.765625 33.019531 -76.972656 33.1875 -77.140625 L 33.8125 -77.640625 C 34.0625 -77.890625 34.1875 -78.054688 34.1875 -78.140625 L 32.0625 -78.515625 L 30.0625 -78.765625 C 29.8125 -78.515625 29.601562 -78.390625 29.4375 -78.390625 Z M 34.3125 -75.140625 L 34.8125 -75.140625 L 34.8125 -75.390625 L 34.3125 -75.390625 Z M 33.1875 -72.890625 C 33.1875 -72.640625 33.289062 -72.410156 33.5 -72.203125 C 33.707031 -71.992188 33.976562 -71.890625 34.3125 -71.890625 L 34.5625 -72.015625 L 35.4375 -72.015625 L 35.1875 -73.015625 L 34.5625 -73.390625 C 34.394531 -73.472656 34.1875 -73.515625 33.9375 -73.515625 C 33.6875 -73.515625 33.476562 -73.429688 33.3125 -73.265625 Z M 28.546875 -71.640625 C 28.710938 -71.804688 28.585938 -71.929688 28.171875 -72.015625 L 28.171875 -71.765625 Z M 21.671875 -71.390625 L 21.671875 -70.875 L 22.046875 -70.875 C 22.210938 -71.050781 22.296875 -71.140625 22.296875 -71.140625 L 22.546875 -71.390625 Z M 32.0625 -70.125 C 32.144531 -70.125 32.1875 -70.164062 32.1875 -70.25 C 32.1875 -70.414062 32.144531 -70.539062 32.0625 -70.625 C 32.0625 -70.625 32.039062 -70.601562 32 -70.5625 C 31.957031 -70.519531 31.9375 -70.5 31.9375 -70.5 C 31.9375 -70.5 31.914062 -70.476562 31.875 -70.4375 C 31.832031 -70.394531 31.8125 -70.332031 31.8125 -70.25 C 31.8125 -70.164062 31.894531 -70.125 32.0625 -70.125 Z M 23.296875 -70.375 C 22.960938 -70.375 22.753906 -70.164062 22.671875 -69.75 L 22.796875 -69.625 L 23.921875 -69.625 C 24.085938 -69.625 24.210938 -69.664062 24.296875 -69.75 C 24.046875 -69.914062 23.921875 -70.082031 23.921875 -70.25 L 24.046875 -70.5 Z M 30.3125 -69.125 C 30.3125 -69.375 30.144531 -69.5 29.8125 -69.5 C 29.5625 -69.414062 29.4375 -69.375 29.4375 -69.375 L 29.4375 -69 L 29.8125 -68.875 C 29.8125 -68.875 29.894531 -68.789062 30.0625 -68.625 L 30.3125 -68.875 Z M 30.0625 -68.5 C 29.894531 -68.082031 29.429688 -67.875 28.671875 -67.875 C 28.671875 -67.789062 28.734375 -67.644531 28.859375 -67.4375 C 28.984375 -67.226562 29.132812 -67.125 29.3125 -67.125 C 29.5625 -67.125 29.6875 -67.207031 29.6875 -67.375 C 29.851562 -67.539062 30.0625 -67.625 30.3125 -67.625 C 30.394531 -67.625 30.519531 -67.707031 30.6875 -67.875 L 30.6875 -68.125 C 30.6875 -68.289062 30.601562 -68.375 30.4375 -68.375 C 30.269531 -68.375 30.144531 -68.414062 30.0625 -68.5 Z M 23.546875 -67.375 L 23.921875 -67.875 C 23.753906 -67.957031 23.503906 -68 23.171875 -68 C 22.835938 -68 22.671875 -67.914062 22.671875 -67.75 C 22.835938 -67.582031 22.960938 -67.5 23.046875 -67.5 Z M 17.78125 -66.5 C 17.78125 -66.664062 17.695312 -66.832031 17.53125 -67 L 17.15625 -66.875 L 16.90625 -66.875 L 17.03125 -66.375 Z M 33.4375 -65.875 L 33.1875 -66.125 L 32.5625 -65.875 L 33.1875 -65.5 C 33.1875 -65.5 33.207031 -65.519531 33.25 -65.5625 C 33.289062 -65.601562 33.3125 -65.625 33.3125 -65.625 Z M 30.0625 -65 C 30.0625 -64.914062 30.144531 -64.875 30.3125 -64.875 C 30.3125 -64.875 30.332031 -64.851562 30.375 -64.8125 C 30.414062 -64.769531 30.4375 -64.75 30.4375 -64.75 C 30.519531 -64.832031 30.6875 -64.875 30.9375 -64.875 C 30.9375 -65.125 30.769531 -65.289062 30.4375 -65.375 C 30.1875 -65.289062 30.0625 -65.164062 30.0625 -65 Z M 28.546875 -65 C 28.710938 -64.914062 28.835938 -64.914062 28.921875 -65 L 29.4375 -65 L 28.921875 -65.25 C 28.671875 -65.25 28.546875 -65.164062 28.546875 -65 Z M 24.671875 -64.5 C 24.835938 -64.664062 24.921875 -64.789062 24.921875 -64.875 C 24.921875 -65.039062 24.796875 -65.125 24.546875 -65.125 L 24.171875 -65.125 C 24.003906 -64.957031 23.921875 -64.832031 23.921875 -64.75 L 24.046875 -64.5 Z M 42.828125 -58.234375 L 42.953125 -58.609375 L 42.828125 -58.734375 L 42.703125 -58.359375 Z M 44.953125 -57.359375 C 44.867188 -57.109375 44.890625 -56.898438 45.015625 -56.734375 C 45.140625 -56.566406 45.328125 -56.484375 45.578125 -56.484375 C 45.660156 -56.398438 45.832031 -56.359375 46.09375 -56.359375 C 46.507812 -56.359375 46.882812 -56.523438 47.21875 -56.859375 C 47.382812 -57.191406 47.46875 -57.359375 47.46875 -57.359375 L 47.59375 -57.734375 L 46.09375 -57.984375 L 45.453125 -57.609375 Z M 38.578125 -55.484375 C 38.492188 -55.484375 38.390625 -55.503906 38.265625 -55.546875 C 38.140625 -55.585938 38.035156 -55.566406 37.953125 -55.484375 L 38.078125 -55.359375 C 38.078125 -55.191406 38.140625 -55.109375 38.265625 -55.109375 C 38.390625 -55.109375 38.492188 -55.148438 38.578125 -55.234375 Z M 45.078125 -53.96875 L 45.453125 -54.09375 C 45.453125 -54.351562 45.328125 -54.484375 45.078125 -54.484375 L 44.703125 -54.359375 L 44.703125 -53.71875 Z M 39.203125 -52.71875 C 39.203125 -52.800781 39.265625 -52.863281 39.390625 -52.90625 C 39.515625 -52.945312 39.660156 -53.007812 39.828125 -53.09375 L 39.703125 -53.34375 L 39.203125 -53.46875 C 38.785156 -53.632812 38.578125 -53.550781 38.578125 -53.21875 L 38.578125 -52.96875 Z M 35.0625 -53.21875 C 34.8125 -53.46875 34.5625 -53.46875 34.3125 -53.21875 L 34.6875 -53.09375 Z M 41.578125 -52.09375 C 41.742188 -52.09375 41.742188 -52.175781 41.578125 -52.34375 C 41.410156 -52.425781 41.328125 -52.550781 41.328125 -52.71875 C 41.242188 -52.71875 41.203125 -52.800781 41.203125 -52.96875 C 41.203125 -52.96875 41.222656 -52.988281 41.265625 -53.03125 C 41.304688 -53.070312 41.328125 -53.09375 41.328125 -53.09375 L 41.328125 -53.21875 L 40.828125 -53.34375 C 40.578125 -53.34375 40.367188 -53.257812 40.203125 -53.09375 L 39.953125 -52.96875 C 40.535156 -52.632812 40.703125 -52.21875 40.453125 -51.71875 C 41.035156 -51.71875 41.410156 -51.84375 41.578125 -52.09375 Z M 45.328125 -52.21875 C 44.992188 -52.21875 44.742188 -52.175781 44.578125 -52.09375 C 44.578125 -51.757812 44.660156 -51.59375 44.828125 -51.59375 L 45.328125 -51.71875 Z M 44.328125 -51.09375 C 43.910156 -50.84375 43.785156 -50.632812 43.953125 -50.46875 L 44.203125 -50.34375 L 44.453125 -50.84375 L 44.578125 -51.21875 Z M 35.6875 -49.34375 C 35.4375 -49.175781 35.226562 -49.175781 35.0625 -49.34375 C 34.8125 -49.34375 34.6875 -49.425781 34.6875 -49.59375 L 34.5625 -48.84375 C 34.394531 -48.675781 34.5625 -48.425781 35.0625 -48.09375 L 35.3125 -48.21875 L 35.8125 -49.09375 Z M 33.3125 -48.09375 C 33.144531 -48.257812 33.0625 -48.382812 33.0625 -48.46875 L 32.6875 -48.71875 L 32.3125 -48.09375 C 32.8125 -48.007812 33.0625 -47.925781 33.0625 -47.84375 Z M 38.703125 -47.71875 C 38.703125 -47.882812 38.660156 -47.96875 38.578125 -47.96875 L 38.328125 -48.09375 C 37.910156 -48.007812 37.65625 -47.863281 37.5625 -47.65625 C 37.476562 -47.445312 37.609375 -47.300781 37.953125 -47.21875 L 38.453125 -47.46875 C 38.453125 -47.46875 38.472656 -47.488281 38.515625 -47.53125 C 38.554688 -47.570312 38.578125 -47.59375 38.578125 -47.59375 Z M 42.203125 -47.21875 C 42.203125 -47.132812 42.285156 -47.03125 42.453125 -46.90625 C 42.617188 -46.78125 42.785156 -46.757812 42.953125 -46.84375 L 43.203125 -47.34375 L 43.078125 -47.46875 C 42.492188 -47.800781 42.203125 -47.800781 42.203125 -47.46875 Z M 35.0625 -44.203125 C 35.3125 -44.203125 35.4375 -44.285156 35.4375 -44.453125 L 35.0625 -45.078125 L 35.1875 -45.328125 L 35.1875 -45.96875 C 35.1875 -46.382812 34.976562 -46.675781 34.5625 -46.84375 C 34.394531 -47.007812 34.3125 -47.007812 34.3125 -46.84375 L 34.0625 -46.84375 C 34.3125 -46.507812 34.4375 -46.300781 34.4375 -46.21875 C 34.4375 -46.21875 34.351562 -46.132812 34.1875 -45.96875 L 33.9375 -45.828125 L 33.8125 -45.328125 C 33.8125 -44.828125 34.019531 -44.492188 34.4375 -44.328125 C 34.519531 -44.328125 34.582031 -44.304688 34.625 -44.265625 C 34.664062 -44.222656 34.726562 -44.242188 34.8125 -44.328125 Z M 33.3125 -44.953125 C 33.3125 -45.203125 33.019531 -45.453125 32.4375 -45.703125 C 31.9375 -45.617188 31.644531 -45.453125 31.5625 -45.203125 C 31.476562 -45.035156 31.5 -44.847656 31.625 -44.640625 C 31.75 -44.429688 31.851562 -44.328125 31.9375 -44.328125 L 32.3125 -44.203125 C 32.476562 -44.203125 32.644531 -44.265625 32.8125 -44.390625 C 32.976562 -44.515625 33.101562 -44.660156 33.1875 -44.828125 Z M 37.4375 -42.703125 C 37.519531 -42.785156 37.5625 -42.910156 37.5625 -43.078125 C 37.226562 -43.160156 36.9375 -43.160156 36.6875 -43.078125 L 36.6875 -42.578125 L 37.1875 -42.453125 C 37.1875 -42.453125 37.269531 -42.535156 37.4375 -42.703125 Z M 35.6875 -42.703125 L 35.6875 -42.578125 L 36.1875 -42.328125 L 36.3125 -42.453125 Z M 33.9375 -40.828125 C 34.269531 -40.828125 34.4375 -40.992188 34.4375 -41.328125 L 34.5625 -41.578125 C 34.3125 -41.742188 34.1875 -41.867188 34.1875 -41.953125 L 33.8125 -41.703125 C 33.644531 -41.535156 33.5625 -41.367188 33.5625 -41.203125 L 33.5625 -41.078125 Z M 32.0625 -40.453125 L 31.9375 -40.453125 C 31.9375 -40.367188 31.894531 -40.328125 31.8125 -40.328125 L 31.8125 -40.203125 C 31.8125 -40.117188 31.875 -40.054688 32 -40.015625 C 32.125 -39.972656 32.269531 -39.992188 32.4375 -40.078125 L 32.5625 -40.328125 L 32.3125 -40.328125 Z M 34.1875 -39.578125 C 34.519531 -39.828125 34.644531 -40.035156 34.5625 -40.203125 L 33.9375 -40.203125 C 34.101562 -40.035156 34.1875 -39.828125 34.1875 -39.578125 Z M 29.9375 -37.953125 C 30.019531 -37.867188 30.1875 -37.78125 30.4375 -37.6875 C 30.6875 -37.601562 30.894531 -37.5625 31.0625 -37.5625 L 31.3125 -37.828125 C 31.226562 -37.910156 31.1875 -38.160156 31.1875 -38.578125 L 30.8125 -38.703125 Z M 29.8125 -37.953125 C 29.8125 -38.117188 29.769531 -38.242188 29.6875 -38.328125 L 29.171875 -38.328125 C 29.085938 -38.328125 29.046875 -38.160156 29.046875 -37.828125 C 29.390625 -37.828125 29.5625 -37.785156 29.5625 -37.703125 C 29.644531 -37.703125 29.6875 -37.742188 29.6875 -37.828125 L 29.8125 -37.828125 Z M 35.9375 -37.0625 C 35.9375 -37.226562 35.851562 -37.3125 35.6875 -37.3125 C 35.601562 -37.226562 35.601562 -37.1875 35.6875 -37.1875 Z M 30.4375 -34.0625 C 30.601562 -34.226562 30.601562 -34.3125 30.4375 -34.3125 L 30.4375 -34.4375 L 30.8125 -35.5625 L 31.3125 -36.5625 L 31.3125 -36.6875 L 30.9375 -36.6875 C 30.851562 -36.769531 30.769531 -36.789062 30.6875 -36.75 C 30.601562 -36.707031 30.519531 -36.6875 30.4375 -36.6875 L 30.4375 -36.1875 C 30.4375 -35.9375 30.3125 -35.726562 30.0625 -35.5625 C 29.894531 -35.476562 29.769531 -35.332031 29.6875 -35.125 C 29.601562 -34.914062 29.519531 -34.769531 29.4375 -34.6875 L 29.046875 -34.0625 C 28.878906 -33.8125 28.921875 -33.519531 29.171875 -33.1875 L 29.5625 -33.1875 L 30.1875 -33.6875 C 30.351562 -33.851562 30.4375 -33.976562 30.4375 -34.0625 Z M 33.1875 -35.1875 C 33.351562 -35.351562 33.351562 -35.476562 33.1875 -35.5625 C 32.851562 -35.894531 32.6875 -36.0625 32.6875 -36.0625 C 32.519531 -36.0625 32.394531 -36.019531 32.3125 -35.9375 L 31.8125 -35.3125 L 31.9375 -35.1875 L 32.1875 -35.0625 L 32.6875 -34.9375 C 32.851562 -34.9375 33.019531 -35.019531 33.1875 -35.1875 Z M 26.796875 -34.4375 C 26.710938 -34.351562 26.671875 -34.226562 26.671875 -34.0625 C 26.753906 -34.0625 26.796875 -33.976562 26.796875 -33.8125 L 27.671875 -33.4375 C 27.671875 -33.6875 27.710938 -33.851562 27.796875 -33.9375 C 27.628906 -33.9375 27.503906 -33.976562 27.421875 -34.0625 C 27.335938 -34.0625 27.316406 -34.082031 27.359375 -34.125 C 27.398438 -34.164062 27.460938 -34.1875 27.546875 -34.1875 L 27.671875 -34.3125 C 27.671875 -34.394531 27.546875 -34.601562 27.296875 -34.9375 Z M 24.546875 -33.3125 C 24.878906 -33.3125 25.128906 -33.351562 25.296875 -33.4375 L 24.921875 -33.8125 L 24.546875 -33.8125 L 24.421875 -33.4375 Z M 28.921875 -32.3125 L 29.171875 -32.3125 L 29.3125 -32.8125 Z M 25.796875 -31.3125 C 25.796875 -31.394531 25.710938 -31.601562 25.546875 -31.9375 C 25.378906 -32.269531 25.253906 -32.4375 25.171875 -32.4375 C 25.171875 -32.4375 25.003906 -32.269531 24.671875 -31.9375 L 24.546875 -31.8125 C 24.378906 -31.394531 24.503906 -31.144531 24.921875 -31.0625 C 25.253906 -31.394531 25.546875 -31.476562 25.796875 -31.3125 Z M 20.53125 -30.4375 L 20.78125 -30.5625 L 20.28125 -30.6875 L 20.15625 -30.3125 Z M 21.421875 -30.4375 C 21.253906 -30.269531 21.296875 -30.144531 21.546875 -30.0625 C 21.628906 -30.144531 21.671875 -30.3125 21.671875 -30.5625 Z M 31.9375 -29.8125 L 31.4375 -29.8125 L 31.3125 -29.6875 L 31.3125 -29.5625 C 31.3125 -29.21875 31.476562 -29.046875 31.8125 -29.046875 C 31.976562 -29.222656 32.0625 -29.394531 32.0625 -29.5625 L 32.0625 -29.6875 Z M 23.921875 -28.546875 C 23.835938 -28.460938 23.796875 -28.335938 23.796875 -28.171875 C 23.796875 -27.921875 23.960938 -27.753906 24.296875 -27.671875 C 24.628906 -27.585938 24.921875 -27.585938 25.171875 -27.671875 L 25.296875 -27.921875 L 25.296875 -28.296875 C 25.296875 -28.460938 25.253906 -28.546875 25.171875 -28.546875 L 24.421875 -28.796875 C 24.253906 -28.796875 24.085938 -28.710938 23.921875 -28.546875 Z M 23.921875 -27.046875 L 23.921875 -27.171875 L 23.546875 -27.421875 L 23.546875 -27.171875 Z M 40.703125 -19.53125 C 40.535156 -19.53125 40.453125 -19.40625 40.453125 -19.15625 L 40.828125 -19.03125 C 40.828125 -19.28125 40.785156 -19.445312 40.703125 -19.53125 Z M 40.453125 -18.15625 C 40.453125 -18.070312 40.472656 -17.988281 40.515625 -17.90625 C 40.554688 -17.820312 40.578125 -17.738281 40.578125 -17.65625 L 40.828125 -17.65625 L 40.828125 -18.15625 Z M 19.90625 -17.65625 C 19.90625 -17.820312 19.820312 -17.90625 19.65625 -17.90625 L 19.40625 -17.90625 C 19.070312 -17.90625 18.863281 -17.820312 18.78125 -17.65625 C 18.945312 -17.488281 19.28125 -17.320312 19.78125 -17.15625 C 19.78125 -17.320312 19.820312 -17.40625 19.90625 -17.40625 Z M 36.1875 -16.03125 C 36.1875 -16.195312 36.0625 -16.070312 35.8125 -15.65625 L 36.4375 -15.65625 L 36.8125 -16.15625 L 36.6875 -16.15625 L 36.5625 -16.28125 C 36.476562 -16.28125 36.351562 -16.195312 36.1875 -16.03125 Z M 10.640625 -15.40625 C 10.554688 -15.40625 10.515625 -15.445312 10.515625 -15.53125 L 9.890625 -15.53125 C 9.722656 -15.363281 9.640625 -15.238281 9.640625 -15.15625 L 10.390625 -15.15625 Z M 28.171875 -15.53125 L 27.796875 -15.53125 L 27.671875 -15.28125 L 28.296875 -15.15625 L 28.546875 -15.28125 L 28.546875 -15.40625 Z M 26.296875 -15.15625 L 25.796875 -15.03125 L 25.796875 -14.65625 C 26.046875 -14.40625 26.171875 -14.195312 26.171875 -14.03125 C 26.171875 -13.78125 26.378906 -13.65625 26.796875 -13.65625 L 27.046875 -13.65625 C 26.960938 -13.820312 26.835938 -13.90625 26.671875 -13.90625 L 26.421875 -14.03125 L 26.421875 -14.53125 L 27.046875 -15.03125 Z M 45.828125 -14.78125 C 45.492188 -14.78125 45.328125 -14.695312 45.328125 -14.53125 C 45.328125 -14.445312 45.410156 -14.320312 45.578125 -14.15625 L 45.96875 -14.40625 L 45.96875 -14.53125 Z M 42.453125 -14.03125 L 42.578125 -14.28125 L 42.453125 -14.28125 L 42.203125 -14.15625 Z M 12.65625 -13.53125 C 12.3125 -13.695312 12.054688 -13.78125 11.890625 -13.78125 L 10.890625 -13.53125 L 10.890625 -13.15625 L 11.515625 -13.03125 C 11.597656 -13.113281 11.765625 -13.15625 12.015625 -13.15625 C 12.179688 -12.988281 12.394531 -13.03125 12.65625 -13.28125 Z M 33.0625 -13.53125 C 33.0625 -13.53125 33.039062 -13.507812 33 -13.46875 C 32.957031 -13.425781 32.9375 -13.40625 32.9375 -13.40625 C 32.9375 -13.070312 33.226562 -12.90625 33.8125 -12.90625 C 33.976562 -12.90625 34.101562 -12.945312 34.1875 -13.03125 L 34.6875 -13.03125 L 34.8125 -13.28125 C 34.644531 -13.445312 34.476562 -13.570312 34.3125 -13.65625 C 34.144531 -13.738281 34.019531 -13.738281 33.9375 -13.65625 L 33.0625 -13.65625 Z M 45.203125 -13.28125 C 45.367188 -13.113281 45.625 -13.03125 45.96875 -13.03125 L 46.46875 -13.15625 L 46.46875 -13.40625 L 46.09375 -13.53125 C 46.09375 -13.613281 46.003906 -13.65625 45.828125 -13.65625 L 45.703125 -13.53125 Z M 4.125 -13.15625 C 4.300781 -13.320312 4.390625 -13.445312 4.390625 -13.53125 L 3.625 -13.53125 C 3.539062 -13.53125 3.5 -13.445312 3.5 -13.28125 L 3.625 -13.03125 C 3.707031 -13.113281 3.875 -13.15625 4.125 -13.15625 Z M 43.953125 -13.03125 C 44.035156 -12.945312 44.078125 -12.945312 44.078125 -13.03125 C 44.160156 -13.363281 44.117188 -13.53125 43.953125 -13.53125 L 43.953125 -13.40625 L 43.828125 -13.40625 L 43.828125 -13.28125 Z M 1.375 -13.03125 L 1.375 -12.78125 L 1.625 -12.90625 L 1.75 -13.03125 Z M 27.171875 -10.515625 C 27.085938 -10.597656 26.859375 -10.703125 26.484375 -10.828125 C 26.109375 -10.953125 25.796875 -11.015625 25.546875 -11.015625 L 24.921875 -11.015625 C 24.503906 -11.015625 24.210938 -10.972656 24.046875 -10.890625 L 22.671875 -10.890625 L 21.921875 -11.015625 C 21.835938 -11.097656 21.671875 -11.140625 21.421875 -11.140625 L 20.78125 -11.015625 L 20.15625 -10.515625 Z M 37.4375 -11.140625 C 37.4375 -11.140625 37.351562 -10.929688 37.1875 -10.515625 L 45.96875 -10.515625 C 45.875 -10.597656 45.390625 -10.703125 44.515625 -10.828125 C 43.640625 -10.953125 42.910156 -11.015625 42.328125 -11.015625 C 42.242188 -11.015625 42.160156 -10.992188 42.078125 -10.953125 C 41.992188 -10.910156 41.828125 -10.890625 41.578125 -10.890625 C 41.328125 -10.890625 41.140625 -10.867188 41.015625 -10.828125 C 40.890625 -10.785156 40.785156 -10.765625 40.703125 -10.765625 L 40.078125 -10.765625 C 39.742188 -10.765625 39.242188 -10.847656 38.578125 -11.015625 C 38.410156 -11.097656 38.203125 -11.140625 37.953125 -11.140625 Z M 37.4375 -11.140625 "/></g></g></g></svg>