<svg xmlns="http://www.w3.org/2000/svg" width="375" viewBox="0 0 375 375" height="375" version="1.0"><defs><clipPath id="a"><path d="M 252 88 L 339 88 L 339 167 L 252 167 Z M 252 88"/></clipPath><clipPath id="b"><path d="M 265.035156 47.664062 L 381.921875 141.671875 L 338.679688 195.441406 L 221.792969 101.429688 Z M 265.035156 47.664062"/></clipPath><clipPath id="c"><path d="M 265.035156 47.664062 L 381.921875 141.671875 L 338.679688 195.441406 L 221.792969 101.429688 Z M 265.035156 47.664062"/></clipPath><clipPath id="d"><path d="M 265.035156 47.664062 L 381.921875 141.671875 L 338.679688 195.441406 L 221.792969 101.429688 Z M 265.035156 47.664062"/></clipPath><clipPath id="e"><path d="M 249 86 L 341 86 L 341 170 L 249 170 Z M 249 86"/></clipPath><clipPath id="f"><path d="M 265.035156 47.664062 L 381.921875 141.671875 L 338.679688 195.441406 L 221.792969 101.429688 Z M 265.035156 47.664062"/></clipPath><clipPath id="g"><path d="M 265.035156 47.664062 L 381.921875 141.671875 L 338.679688 195.441406 L 221.792969 101.429688 Z M 265.035156 47.664062"/></clipPath><clipPath id="h"><path d="M 265.035156 47.664062 L 381.921875 141.671875 L 338.679688 195.441406 L 221.792969 101.429688 Z M 265.035156 47.664062"/></clipPath><clipPath id="i"><path d="M 315 97 L 327 97 L 327 109 L 315 109 Z M 315 97"/></clipPath><clipPath id="j"><path d="M 265.035156 47.664062 L 381.921875 141.671875 L 338.679688 195.441406 L 221.792969 101.429688 Z M 265.035156 47.664062"/></clipPath><clipPath id="k"><path d="M 265.035156 47.664062 L 381.921875 141.671875 L 338.679688 195.441406 L 221.792969 101.429688 Z M 265.035156 47.664062"/></clipPath><clipPath id="l"><path d="M 265.035156 47.664062 L 381.921875 141.671875 L 338.679688 195.441406 L 221.792969 101.429688 Z M 265.035156 47.664062"/></clipPath><clipPath id="m"><path d="M 314 95 L 329 95 L 329 111 L 314 111 Z M 314 95"/></clipPath><clipPath id="n"><path d="M 265.035156 47.664062 L 381.921875 141.671875 L 338.679688 195.441406 L 221.792969 101.429688 Z M 265.035156 47.664062"/></clipPath><clipPath id="o"><path d="M 265.035156 47.664062 L 381.921875 141.671875 L 338.679688 195.441406 L 221.792969 101.429688 Z M 265.035156 47.664062"/></clipPath><clipPath id="p"><path d="M 265.035156 47.664062 L 381.921875 141.671875 L 338.679688 195.441406 L 221.792969 101.429688 Z M 265.035156 47.664062"/></clipPath><clipPath id="q"><path d="M 336 122 L 348 122 L 348 132 L 336 132 Z M 336 122"/></clipPath><clipPath id="r"><path d="M 265.035156 47.664062 L 381.921875 141.671875 L 338.679688 195.441406 L 221.792969 101.429688 Z M 265.035156 47.664062"/></clipPath><clipPath id="s"><path d="M 265.035156 47.664062 L 381.921875 141.671875 L 338.679688 195.441406 L 221.792969 101.429688 Z M 265.035156 47.664062"/></clipPath><clipPath id="t"><path d="M 265.035156 47.664062 L 381.921875 141.671875 L 338.679688 195.441406 L 221.792969 101.429688 Z M 265.035156 47.664062"/></clipPath><clipPath id="u"><path d="M 334 120 L 349 120 L 349 133 L 334 133 Z M 334 120"/></clipPath><clipPath id="v"><path d="M 265.035156 47.664062 L 381.921875 141.671875 L 338.679688 195.441406 L 221.792969 101.429688 Z M 265.035156 47.664062"/></clipPath><clipPath id="w"><path d="M 265.035156 47.664062 L 381.921875 141.671875 L 338.679688 195.441406 L 221.792969 101.429688 Z M 265.035156 47.664062"/></clipPath><clipPath id="x"><path d="M 265.035156 47.664062 L 381.921875 141.671875 L 338.679688 195.441406 L 221.792969 101.429688 Z M 265.035156 47.664062"/></clipPath><clipPath id="y"><path d="M 273 78 L 287 78 L 287 90 L 273 90 Z M 273 78"/></clipPath><clipPath id="z"><path d="M 265.035156 47.664062 L 381.921875 141.671875 L 338.679688 195.441406 L 221.792969 101.429688 Z M 265.035156 47.664062"/></clipPath><clipPath id="A"><path d="M 265.035156 47.664062 L 381.921875 141.671875 L 338.679688 195.441406 L 221.792969 101.429688 Z M 265.035156 47.664062"/></clipPath><clipPath id="B"><path d="M 265.035156 47.664062 L 381.921875 141.671875 L 338.679688 195.441406 L 221.792969 101.429688 Z M 265.035156 47.664062"/></clipPath><clipPath id="C"><path d="M 271 76 L 288 76 L 288 91 L 271 91 Z M 271 76"/></clipPath><clipPath id="D"><path d="M 265.035156 47.664062 L 381.921875 141.671875 L 338.679688 195.441406 L 221.792969 101.429688 Z M 265.035156 47.664062"/></clipPath><clipPath id="E"><path d="M 265.035156 47.664062 L 381.921875 141.671875 L 338.679688 195.441406 L 221.792969 101.429688 Z M 265.035156 47.664062"/></clipPath><clipPath id="F"><path d="M 265.035156 47.664062 L 381.921875 141.671875 L 338.679688 195.441406 L 221.792969 101.429688 Z M 265.035156 47.664062"/></clipPath><clipPath id="G"><path d="M 354 141 L 369 141 L 369 147 L 354 147 Z M 354 141"/></clipPath><clipPath id="H"><path d="M 265.035156 47.664062 L 381.921875 141.671875 L 338.679688 195.441406 L 221.792969 101.429688 Z M 265.035156 47.664062"/></clipPath><clipPath id="I"><path d="M 265.035156 47.664062 L 381.921875 141.671875 L 338.679688 195.441406 L 221.792969 101.429688 Z M 265.035156 47.664062"/></clipPath><clipPath id="J"><path d="M 265.035156 47.664062 L 381.921875 141.671875 L 338.679688 195.441406 L 221.792969 101.429688 Z M 265.035156 47.664062"/></clipPath><clipPath id="K"><path d="M 348 158 L 361 158 L 361 168 L 348 168 Z M 348 158"/></clipPath><clipPath id="L"><path d="M 265.035156 47.664062 L 381.921875 141.671875 L 338.679688 195.441406 L 221.792969 101.429688 Z M 265.035156 47.664062"/></clipPath><clipPath id="M"><path d="M 265.035156 47.664062 L 381.921875 141.671875 L 338.679688 195.441406 L 221.792969 101.429688 Z M 265.035156 47.664062"/></clipPath><clipPath id="N"><path d="M 265.035156 47.664062 L 381.921875 141.671875 L 338.679688 195.441406 L 221.792969 101.429688 Z M 265.035156 47.664062"/></clipPath><clipPath id="O"><path d="M 338 170 L 347 170 L 347 183 L 338 183 Z M 338 170"/></clipPath><clipPath id="P"><path d="M 265.035156 47.664062 L 381.921875 141.671875 L 338.679688 195.441406 L 221.792969 101.429688 Z M 265.035156 47.664062"/></clipPath><clipPath id="Q"><path d="M 265.035156 47.664062 L 381.921875 141.671875 L 338.679688 195.441406 L 221.792969 101.429688 Z M 265.035156 47.664062"/></clipPath><clipPath id="R"><path d="M 265.035156 47.664062 L 381.921875 141.671875 L 338.679688 195.441406 L 221.792969 101.429688 Z M 265.035156 47.664062"/></clipPath><clipPath id="S"><path d="M 253 63 L 263 63 L 263 78 L 253 78 Z M 253 63"/></clipPath><clipPath id="T"><path d="M 265.035156 47.664062 L 381.921875 141.671875 L 338.679688 195.441406 L 221.792969 101.429688 Z M 265.035156 47.664062"/></clipPath><clipPath id="U"><path d="M 265.035156 47.664062 L 381.921875 141.671875 L 338.679688 195.441406 L 221.792969 101.429688 Z M 265.035156 47.664062"/></clipPath><clipPath id="V"><path d="M 265.035156 47.664062 L 381.921875 141.671875 L 338.679688 195.441406 L 221.792969 101.429688 Z M 265.035156 47.664062"/></clipPath><clipPath id="W"><path d="M 236 83 L 253 83 L 253 92 L 236 92 Z M 236 83"/></clipPath><clipPath id="X"><path d="M 265.035156 47.664062 L 381.921875 141.671875 L 338.679688 195.441406 L 221.792969 101.429688 Z M 265.035156 47.664062"/></clipPath><clipPath id="Y"><path d="M 265.035156 47.664062 L 381.921875 141.671875 L 338.679688 195.441406 L 221.792969 101.429688 Z M 265.035156 47.664062"/></clipPath><clipPath id="Z"><path d="M 265.035156 47.664062 L 381.921875 141.671875 L 338.679688 195.441406 L 221.792969 101.429688 Z M 265.035156 47.664062"/></clipPath><clipPath id="aa"><path d="M 229 104 L 245 104 L 245 109 L 229 109 Z M 229 104"/></clipPath><clipPath id="ab"><path d="M 265.035156 47.664062 L 381.921875 141.671875 L 338.679688 195.441406 L 221.792969 101.429688 Z M 265.035156 47.664062"/></clipPath><clipPath id="ac"><path d="M 265.035156 47.664062 L 381.921875 141.671875 L 338.679688 195.441406 L 221.792969 101.429688 Z M 265.035156 47.664062"/></clipPath><clipPath id="ad"><path d="M 265.035156 47.664062 L 381.921875 141.671875 L 338.679688 195.441406 L 221.792969 101.429688 Z M 265.035156 47.664062"/></clipPath></defs><g><g><g><path d="M 45.3125 -28.15625 C 45.46875 -26.539062 45.546875 -25.367188 45.546875 -24.640625 C 45.546875 -20.316406 44.550781 -16.429688 42.5625 -12.984375 C 40.289062 -8.722656 36.789062 -5.492188 32.0625 -3.296875 C 27.332031 -1.097656 22.289062 0 16.9375 0 C 15.539062 0 14.515625 -0.0351562 13.859375 -0.109375 L 4.1875 -0.984375 C 3.082031 -1.128906 2.492188 -1.679688 2.421875 -2.640625 L -0.984375 -21.671875 L -0.984375 -22 C -0.984375 -22.65625 -0.765625 -23.164062 -0.328125 -23.53125 C 0.109375 -23.90625 0.65625 -24.054688 1.3125 -23.984375 C 3.8125 -23.460938 5.609375 -23.164062 6.703125 -23.09375 C 6.628906 -23.019531 6.628906 -22.945312 6.703125 -22.875 L 7.046875 -22.875 C 7.046875 -22.875 7.0625 -22.890625 7.09375 -22.921875 C 7.132812 -22.960938 7.15625 -22.984375 7.15625 -22.984375 C 9.9375 -22.617188 12.316406 -22.4375 14.296875 -22.4375 C 15.910156 -22.4375 17.707031 -22.726562 19.6875 -23.3125 L 19.796875 -23.3125 C 20.679688 -23.539062 21.34375 -24.238281 21.78125 -25.40625 C 22 -26.21875 22.109375 -26.988281 22.109375 -27.71875 C 22.109375 -29.039062 21.816406 -30.25 21.234375 -31.34375 C 21.234375 -31.414062 21.050781 -31.710938 20.6875 -32.234375 C 20.90625 -32.453125 20.863281 -32.632812 20.5625 -32.78125 L 20.34375 -32.671875 L 18.703125 -33.984375 C 17.890625 -34.578125 16.753906 -35.3125 15.296875 -36.1875 L 15.296875 -36.515625 C 15.296875 -37.035156 15.109375 -37.332031 14.734375 -37.40625 L 14.515625 -36.953125 C 14.441406 -36.878906 14.40625 -36.769531 14.40625 -36.625 C 13.3125 -37.289062 12.691406 -37.625 12.546875 -37.625 C 11.804688 -37.914062 11.4375 -38.535156 11.4375 -39.484375 C 11.4375 -40.078125 11.691406 -40.59375 12.203125 -41.03125 L 15.953125 -43.890625 C 17.117188 -45.066406 17.703125 -45.65625 17.703125 -45.65625 L 17.8125 -45.65625 C 19.0625 -47.257812 19.6875 -48.796875 19.6875 -50.265625 C 19.6875 -50.785156 19.648438 -51.15625 19.578125 -51.375 L 19.46875 -51.484375 C 19.320312 -52.722656 18.847656 -53.34375 18.046875 -53.34375 C 17.085938 -53.34375 15.984375 -53.175781 14.734375 -52.84375 C 13.492188 -52.519531 12.320312 -52.175781 11.21875 -51.8125 C 7.625 -50.5625 5.390625 -49.753906 4.515625 -49.390625 C 4.066406 -49.171875 3.660156 -49.132812 3.296875 -49.28125 L 3.296875 -52.140625 C 3.222656 -52.285156 3.1875 -52.503906 3.1875 -52.796875 L 3.1875 -53.5625 L 3.296875 -53.90625 L 3.296875 -55.4375 L 3.1875 -55.984375 L 2.859375 -56.4375 L 2.859375 -49.5 C 2.710938 -49.5 2.601562 -49.535156 2.53125 -49.609375 C 1.945312 -50.191406 1.691406 -50.816406 1.765625 -51.484375 L 3.296875 -69.734375 C 3.367188 -70.765625 3.921875 -71.390625 4.953125 -71.609375 L 19.578125 -74.140625 C 23.390625 -74.722656 26.65625 -75.015625 29.375 -75.015625 C 34.582031 -75.015625 38.503906 -73.953125 41.140625 -71.828125 C 41.140625 -71.753906 41.175781 -71.71875 41.25 -71.71875 C 44.113281 -69.082031 45.46875 -65.015625 45.3125 -59.515625 L 45.203125 -58.515625 L 45.09375 -58.515625 C 44.65625 -58.515625 44.4375 -58.367188 44.4375 -58.078125 L 44.65625 -57.640625 L 45.09375 -57.640625 C 44.65625 -54.703125 43.722656 -51.988281 42.296875 -49.5 C 40.867188 -47.007812 38.867188 -44.367188 36.296875 -41.578125 C 41.210938 -37.910156 44.179688 -33.507812 45.203125 -28.375 Z M 20.90625 -73.15625 C 21.050781 -73.007812 21.234375 -73.007812 21.453125 -73.15625 C 21.816406 -73.300781 21.890625 -73.410156 21.671875 -73.484375 Z M 27.0625 -72.15625 C 27.425781 -72.007812 27.644531 -71.828125 27.71875 -71.609375 C 27.863281 -71.460938 28.117188 -71.390625 28.484375 -71.390625 C 28.859375 -71.390625 29.082031 -71.460938 29.15625 -71.609375 C 29.15625 -71.679688 29.265625 -71.828125 29.484375 -72.046875 L 28.703125 -72.484375 Z M 14.1875 -70.515625 C 12.28125 -70.515625 10.445312 -70.21875 8.6875 -69.625 C 9.789062 -69.476562 10.597656 -69.441406 11.109375 -69.515625 L 12.203125 -69.625 L 13.3125 -69.84375 C 13.75 -69.914062 14.484375 -69.953125 15.515625 -69.953125 C 16.242188 -69.953125 16.9375 -69.84375 17.59375 -69.625 L 24.09375 -69.625 L 24.09375 -70.0625 L 23.65625 -70.0625 C 23.582031 -70.0625 23.25 -70.140625 22.65625 -70.296875 C 22.363281 -70.367188 22.109375 -70.40625 21.890625 -70.40625 C 21.671875 -70.40625 21.453125 -70.289062 21.234375 -70.0625 L 20.90625 -70.40625 L 20.453125 -70.0625 L 20.125 -70.40625 L 18.375 -70.296875 L 16.9375 -70.40625 Z M 24.96875 -70.0625 L 25.296875 -69.625 L 25.296875 -70.0625 Z M 30.90625 -70.0625 C 30.46875 -69.988281 29.882812 -69.953125 29.15625 -69.953125 L 27.28125 -69.953125 L 38.9375 -69.1875 C 37.6875 -69.625 36.660156 -69.878906 35.859375 -69.953125 C 34.910156 -70.023438 33.8125 -70.0625 32.5625 -70.0625 Z M 22.875 -67.09375 C 26.613281 -67.09375 29.691406 -67.148438 32.109375 -67.265625 C 34.535156 -67.378906 36.847656 -67.617188 39.046875 -67.984375 L 38.9375 -67.984375 L 30.46875 -67.546875 L 30.140625 -67.984375 C 29.628906 -67.617188 29.226562 -67.4375 28.9375 -67.4375 C 28.632812 -67.4375 28.390625 -67.472656 28.203125 -67.546875 C 28.023438 -67.617188 27.863281 -67.691406 27.71875 -67.765625 C 26.988281 -67.910156 26.585938 -67.984375 26.515625 -67.984375 C 26.066406 -67.984375 25.660156 -67.835938 25.296875 -67.546875 L 23.4375 -67.4375 L 21.453125 -67.546875 C 19.984375 -67.546875 18.695312 -67.394531 17.59375 -67.09375 C 17.082031 -67.394531 16.609375 -67.546875 16.171875 -67.546875 C 15.953125 -67.546875 15.398438 -67.46875 14.515625 -67.3125 C 14.078125 -67.164062 13.710938 -67.09375 13.421875 -67.09375 C 12.609375 -67.09375 12.019531 -67.390625 11.65625 -67.984375 C 11.289062 -67.535156 10.925781 -67.3125 10.5625 -67.3125 L 9.234375 -67.3125 C 8.796875 -67.46875 8.394531 -67.46875 8.03125 -67.3125 C 7.664062 -67.238281 7.375 -66.984375 7.15625 -66.546875 C 9.28125 -66.835938 11.804688 -66.984375 14.734375 -66.984375 C 16.492188 -66.984375 17.851562 -67.019531 18.8125 -67.09375 Z M 41.25 -56.984375 L 41.6875 -56.984375 L 41.6875 -57.3125 L 41.359375 -57.3125 Z M 36.40625 -39.59375 L 34.875 -39.59375 L 34.875 -39.265625 L 36.40625 -39.265625 Z M 16.171875 -36.84375 L 16.5 -37.1875 L 16.609375 -37.40625 C 16.460938 -37.625 16.351562 -37.769531 16.28125 -37.84375 C 16.28125 -37.914062 16.257812 -37.96875 16.21875 -38 C 16.1875 -38.039062 16.171875 -38.097656 16.171875 -38.171875 C 16.097656 -38.316406 16.023438 -38.5 15.953125 -38.71875 C 15.878906 -38.9375 15.804688 -39.082031 15.734375 -39.15625 C 15.585938 -39.300781 15.476562 -39.375 15.40625 -39.375 C 15.332031 -39.375 15.3125 -39.316406 15.34375 -39.203125 C 15.382812 -39.097656 15.441406 -39.007812 15.515625 -38.9375 L 15.515625 -38.0625 C 15.515625 -37.84375 15.566406 -37.566406 15.671875 -37.234375 C 15.785156 -36.898438 15.878906 -36.734375 15.953125 -36.734375 Z M 22.984375 -37.953125 C 22.984375 -38.390625 23.132812 -38.644531 23.4375 -38.71875 C 23.875 -38.71875 24.238281 -38.753906 24.53125 -38.828125 C 24.457031 -38.972656 24.128906 -38.972656 23.546875 -38.828125 L 22.4375 -38.828125 C 22.21875 -38.828125 22.109375 -38.789062 22.109375 -38.71875 C 22.035156 -38.71875 21.925781 -38.644531 21.78125 -38.5 C 21.925781 -38.351562 22.109375 -38.222656 22.328125 -38.109375 C 22.546875 -38.003906 22.765625 -37.953125 22.984375 -37.953125 Z M 29.046875 -38.390625 L 29.046875 -38.71875 L 28.15625 -38.71875 L 28.15625 -38.390625 Z M 26.0625 -38.171875 C 26.507812 -38.171875 26.769531 -38.097656 26.84375 -37.953125 L 26.84375 -37.296875 C 26.769531 -37.066406 26.988281 -36.953125 27.5 -36.953125 C 27.71875 -37.253906 27.898438 -37.40625 28.046875 -37.40625 C 27.828125 -37.625 27.71875 -37.734375 27.71875 -37.734375 L 27.390625 -37.953125 L 27.828125 -38.28125 C 27.753906 -38.351562 27.5 -38.390625 27.0625 -38.390625 C 26.914062 -38.390625 26.625 -38.460938 26.1875 -38.609375 Z M 21.234375 -38.28125 L 21.671875 -37.953125 L 21.890625 -38.171875 L 21.234375 -38.390625 Z M 24.203125 -37.296875 C 24.492188 -37.296875 24.785156 -37.367188 25.078125 -37.515625 C 24.929688 -37.515625 24.75 -37.625 24.53125 -37.84375 L 23.984375 -38.0625 C 23.691406 -37.84375 23.546875 -37.625 23.546875 -37.40625 Z M 27.828125 -36.1875 C 28.484375 -35.894531 29.070312 -35.785156 29.59375 -35.859375 L 29.59375 -37.515625 C 29.226562 -37.296875 29.046875 -37.144531 29.046875 -37.0625 C 29.046875 -36.914062 28.929688 -36.734375 28.703125 -36.515625 L 28.59375 -36.515625 C 28.59375 -36.585938 28.484375 -36.625 28.265625 -36.625 C 28.046875 -36.625 27.9375 -36.550781 27.9375 -36.40625 L 27.9375 -36.296875 Z M 22.65625 -36.40625 C 22.21875 -36.40625 22 -36.550781 22 -36.84375 C 22 -37.144531 22 -37.296875 22 -37.296875 C 21.851562 -37.296875 21.707031 -37.253906 21.5625 -37.171875 C 21.414062 -37.097656 21.34375 -36.988281 21.34375 -36.84375 L 21.34375 -36.296875 L 22.21875 -36.296875 Z M 26.0625 -37.1875 L 25.625 -37.296875 C 25.625 -36.921875 25.515625 -36.625 25.296875 -36.40625 L 25.84375 -36.40625 C 26.21875 -36.625 26.40625 -36.84375 26.40625 -37.0625 Z M 17.15625 -37.1875 L 16.71875 -37.0625 C 16.71875 -36.988281 16.644531 -36.953125 16.5 -36.953125 L 16.390625 -36.953125 L 16.5 -36.734375 L 16.5 -36.625 L 17.15625 -36.625 Z M 18.703125 -36.734375 L 19.140625 -36.734375 L 19.359375 -36.953125 L 18.921875 -37.0625 Z M 27.390625 -36.515625 L 27.28125 -36.625 L 26.84375 -36.515625 L 26.84375 -36.296875 Z M 21.78125 -35.53125 L 21.234375 -35.53125 L 21.34375 -35.75 C 21.414062 -35.820312 21.453125 -35.96875 21.453125 -36.1875 C 21.085938 -35.96875 20.832031 -35.894531 20.6875 -35.96875 C 20.53125 -36.113281 20.34375 -36.1875 20.125 -36.1875 C 20.125 -36.1875 20.269531 -36.039062 20.5625 -35.75 C 20.5625 -35.75 20.675781 -35.640625 20.90625 -35.421875 L 20.90625 -35.3125 L 21.78125 -35.3125 Z M 25.296875 -34.765625 C 25.296875 -34.984375 25.257812 -35.09375 25.1875 -35.09375 C 25.1875 -35.3125 25.222656 -35.457031 25.296875 -35.53125 C 25.296875 -35.601562 25.222656 -35.710938 25.078125 -35.859375 L 24.53125 -35.859375 C 24.3125 -35.492188 24.347656 -35.128906 24.640625 -34.765625 Z M 26.84375 -35.421875 C 26.84375 -35.640625 26.734375 -35.785156 26.515625 -35.859375 L 26.296875 -35.75 L 25.953125 -35.640625 L 26.0625 -35.421875 L 26.0625 -35.3125 C 26.289062 -35.3125 26.441406 -35.347656 26.515625 -35.421875 Z M 18.703125 -35.421875 L 18.375 -35.421875 L 18.046875 -35.53125 L 17.375 -35.09375 L 17.9375 -34.765625 L 18.375 -34.546875 Z M 20.015625 -34.4375 C 20.304688 -34.726562 20.304688 -34.910156 20.015625 -34.984375 C 19.796875 -34.984375 19.578125 -34.910156 19.359375 -34.765625 Z M 26.40625 -34.65625 L 25.625 -34.765625 C 25.332031 -34.765625 25.148438 -34.726562 25.078125 -34.65625 C 25.078125 -34.351562 25.1875 -34.128906 25.40625 -33.984375 Z M 19.25 -34.4375 L 18.8125 -34.4375 L 18.8125 -33.984375 L 19.25 -33.984375 Z M 23.65625 -32.453125 C 23.726562 -32.234375 23.910156 -32.085938 24.203125 -32.015625 L 24.75 -31.90625 C 24.894531 -32.195312 24.820312 -32.378906 24.53125 -32.453125 Z M 26.0625 -31.34375 C 26.21875 -31.34375 26.296875 -31.457031 26.296875 -31.6875 L 26.1875 -32.015625 L 26.0625 -32.34375 L 26.0625 -32.453125 L 25.84375 -32.453125 L 25.734375 -32.234375 L 25.84375 -31.34375 Z M 23.875 -30.796875 C 23.875 -30.867188 23.800781 -30.976562 23.65625 -31.125 L 23.4375 -31.34375 L 23.3125 -31.34375 L 23.203125 -31.453125 L 23.203125 -30.6875 L 23.546875 -30.6875 Z M 28.703125 -29.703125 L 29.15625 -29.703125 L 29.15625 -29.921875 C 29.15625 -29.921875 29.132812 -29.9375 29.09375 -29.96875 C 29.0625 -30.007812 29.046875 -30.03125 29.046875 -30.03125 L 28.703125 -30.25 C 28.335938 -30.03125 28.15625 -29.8125 28.15625 -29.59375 L 28.484375 -29.59375 Z M 27.5 -28.15625 L 28.375 -28.046875 L 28.375 -28.265625 L 27.5 -28.484375 Z M 31.6875 -25.953125 C 31.6875 -25.660156 31.941406 -25.515625 32.453125 -25.515625 C 32.816406 -25.515625 33 -25.695312 33 -26.0625 C 33 -26.21875 32.960938 -26.296875 32.890625 -26.296875 L 32.78125 -26.296875 L 32.78125 -26.40625 L 32.5625 -26.515625 L 31.90625 -26.515625 Z M 28.375 -26.40625 L 28.046875 -26.0625 L 28.484375 -25.953125 L 28.703125 -26.296875 Z M 29.046875 -22.984375 C 29.046875 -22.984375 29.0625 -22.960938 29.09375 -22.921875 C 29.132812 -22.890625 29.15625 -22.875 29.15625 -22.875 L 29.265625 -22.875 C 29.265625 -22.800781 29.300781 -22.765625 29.375 -22.765625 L 30.03125 -22.765625 C 30.03125 -22.910156 30.066406 -22.984375 30.140625 -22.984375 L 30.140625 -23.09375 C 30.140625 -23.09375 30.15625 -23.109375 30.1875 -23.140625 C 30.226562 -23.179688 30.25 -23.203125 30.25 -23.203125 C 30.101562 -23.273438 29.992188 -23.390625 29.921875 -23.546875 L 29.15625 -23.546875 Z M 34.3125 -23.09375 L 33.765625 -23.203125 L 33.4375 -23.3125 C 33.289062 -23.164062 33.21875 -23.054688 33.21875 -22.984375 L 33.328125 -22.546875 L 33.765625 -22.65625 Z M 31.6875 -22.4375 C 31.53125 -22.4375 31.414062 -22.398438 31.34375 -22.328125 L 31.234375 -22.328125 L 31.015625 -22.21875 C 30.578125 -22.21875 30.285156 -22.179688 30.140625 -22.109375 L 30.140625 -22 C 30.140625 -21.851562 30.394531 -21.632812 30.90625 -21.34375 L 31.125 -21.453125 L 31.34375 -21.671875 L 31.453125 -21.671875 L 31.5625 -21.78125 C 31.5625 -21.78125 31.582031 -21.796875 31.625 -21.828125 C 31.664062 -21.867188 31.6875 -21.890625 31.6875 -21.890625 Z M 31.125 -18.703125 C 31.195312 -18.703125 31.234375 -18.773438 31.234375 -18.921875 C 31.234375 -19.066406 30.976562 -19.359375 30.46875 -19.796875 L 30.25 -19.6875 L 30.25 -19.578125 L 30.03125 -19.46875 C 29.882812 -19.320312 29.773438 -19.25 29.703125 -19.25 L 29.59375 -19.359375 L 29.15625 -19.46875 C 28.925781 -19.539062 28.664062 -19.578125 28.375 -19.578125 C 28.15625 -19.578125 28.046875 -19.539062 28.046875 -19.46875 L 28.046875 -19.140625 L 28.15625 -19.03125 L 28.15625 -18.921875 C 28.15625 -18.847656 28.226562 -18.8125 28.375 -18.8125 C 28.519531 -18.738281 28.742188 -18.703125 29.046875 -18.703125 L 29.703125 -18.59375 L 29.703125 -18.484375 L 29.921875 -18.484375 L 30.46875 -18.265625 C 30.539062 -18.265625 30.578125 -18.300781 30.578125 -18.375 L 31.125 -18.375 Z M 33.4375 -19.140625 C 33.507812 -19.140625 33.546875 -19.25 33.546875 -19.46875 L 32.890625 -19.46875 C 32.890625 -19.25 32.78125 -19.066406 32.5625 -18.921875 L 33.4375 -18.921875 Z M 32.34375 -18.703125 L 32.34375 -18.046875 L 32.78125 -18.046875 L 32.78125 -18.703125 Z M 29.046875 -16.828125 L 29.703125 -17.15625 C 29.992188 -17.375 30.140625 -17.519531 30.140625 -17.59375 L 30.140625 -17.9375 L 29.15625 -17.9375 L 28.703125 -17.8125 L 28.375 -17.59375 C 28.007812 -17.445312 27.828125 -17.300781 27.828125 -17.15625 L 27.828125 -16.828125 Z M 32.78125 -15.953125 C 33.144531 -16.097656 33.328125 -16.28125 33.328125 -16.5 C 33.328125 -16.644531 33.070312 -16.898438 32.5625 -17.265625 C 32.195312 -17.191406 32.015625 -16.972656 32.015625 -16.609375 C 32.015625 -16.390625 32.160156 -16.132812 32.453125 -15.84375 Z M 30.25 -16.609375 C 30.25 -16.753906 30.140625 -16.828125 29.921875 -16.828125 L 29.59375 -16.828125 L 29.15625 -16.5 L 29.15625 -16.171875 C 29.519531 -16.023438 29.882812 -16.023438 30.25 -16.171875 Z M 28.15625 -14.734375 L 28.046875 -15.0625 L 28.046875 -15.1875 L 27.828125 -15.296875 C 27.679688 -15.140625 27.609375 -15.023438 27.609375 -14.953125 L 27.609375 -14.515625 C 27.828125 -14.515625 27.972656 -14.550781 28.046875 -14.625 L 28.046875 -14.734375 Z M 24.203125 -13.09375 C 24.640625 -12.945312 24.929688 -12.875 25.078125 -12.875 C 25.078125 -13.3125 24.96875 -13.53125 24.75 -13.53125 C 24.75 -13.53125 24.726562 -13.507812 24.6875 -13.46875 C 24.65625 -13.4375 24.640625 -13.421875 24.640625 -13.421875 L 24.53125 -13.421875 Z M 30.359375 -13.09375 L 30.25 -13.421875 L 30.25 -13.53125 L 29.15625 -13.421875 Z M 25.625 -11.765625 C 26.070312 -11.765625 26.296875 -11.875 26.296875 -12.09375 C 26.066406 -12.320312 25.769531 -12.4375 25.40625 -12.4375 L 25.1875 -11.765625 Z M 23.765625 -12.203125 L 23.3125 -12.203125 L 23.3125 -11.765625 L 23.765625 -11.765625 Z M 3.078125 -10.671875 C 3.367188 -10.671875 3.585938 -10.742188 3.734375 -10.890625 C 3.441406 -11.109375 3.164062 -11.234375 2.90625 -11.265625 C 2.65625 -11.304688 2.421875 -11.21875 2.203125 -11 C 2.347656 -10.925781 2.4375 -10.832031 2.46875 -10.71875 C 2.507812 -10.613281 2.492188 -10.5625 2.421875 -10.5625 Z M 4.625 -11.109375 C 4.625 -10.816406 4.734375 -10.707031 4.953125 -10.78125 L 5.171875 -10.890625 L 5.171875 -11 C 5.171875 -11 5.148438 -11.015625 5.109375 -11.046875 C 5.078125 -11.085938 5.0625 -11.109375 5.0625 -11.109375 L 4.84375 -11.21875 Z M 25.84375 -10.125 L 25.078125 -10.125 C 25.003906 -10.125 24.96875 -10.085938 24.96875 -10.015625 L 25.078125 -9.5625 Z M 5.71875 -9.796875 C 5.644531 -9.867188 5.535156 -9.90625 5.390625 -9.90625 C 5.316406 -9.832031 5.207031 -9.796875 5.0625 -9.796875 L 4.734375 -9.34375 L 4.84375 -9.234375 L 5.0625 -9.234375 L 5.28125 -9.453125 C 5.28125 -9.304688 5.570312 -9.269531 6.15625 -9.34375 C 6.007812 -9.644531 5.863281 -9.796875 5.71875 -9.796875 Z M 3.84375 -8.46875 L 3.1875 -8.6875 L 3.1875 -8.46875 L 3.734375 -8.359375 Z M 7.921875 -7.046875 C 7.921875 -7.046875 7.9375 -7.0625 7.96875 -7.09375 C 8.007812 -7.132812 8.03125 -7.15625 8.03125 -7.15625 L 8.03125 -7.484375 C 7.957031 -7.484375 7.863281 -7.5 7.75 -7.53125 C 7.644531 -7.570312 7.554688 -7.554688 7.484375 -7.484375 C 6.960938 -7.484375 6.703125 -7.59375 6.703125 -7.8125 C 6.703125 -7.8125 6.628906 -7.882812 6.484375 -8.03125 L 5.828125 -8.25 C 5.753906 -8.320312 5.535156 -8.394531 5.171875 -8.46875 C 4.953125 -8.539062 4.769531 -8.554688 4.625 -8.515625 C 4.476562 -8.484375 4.332031 -8.46875 4.1875 -8.46875 L 4.1875 -8.25 L 4.734375 -7.8125 C 5.097656 -7.59375 5.316406 -7.519531 5.390625 -7.59375 C 5.390625 -7.664062 5.425781 -7.703125 5.5 -7.703125 L 6.703125 -7.375 L 7.265625 -7.15625 L 7.8125 -7.046875 Z M 11.984375 -8.140625 C 12.054688 -8.140625 12.09375 -8.210938 12.09375 -8.359375 C 12.019531 -8.359375 11.984375 -8.394531 11.984375 -8.46875 L 11.875 -8.46875 C 11.800781 -8.46875 11.726562 -8.394531 11.65625 -8.25 C 11.582031 -8.101562 11.65625 -8.03125 11.875 -8.03125 C 11.875 -8.03125 11.890625 -8.046875 11.921875 -8.078125 C 11.960938 -8.117188 11.984375 -8.140625 11.984375 -8.140625 Z M 9.125 -7.8125 L 9.5625 -7.703125 L 9.6875 -7.8125 L 9.90625 -8.25 C 9.675781 -8.25 9.523438 -8.285156 9.453125 -8.359375 L 9.234375 -8.359375 L 9.234375 -8.140625 L 9.125 -7.921875 Z M 10.015625 -7.15625 C 9.941406 -7.226562 9.867188 -7.28125 9.796875 -7.3125 C 9.722656 -7.351562 9.6875 -7.410156 9.6875 -7.484375 C 9.382812 -7.773438 9.160156 -7.773438 9.015625 -7.484375 L 8.90625 -7.046875 L 9.90625 -7.046875 Z M 5.390625 -7.15625 C 5.460938 -7.226562 5.5 -7.335938 5.5 -7.484375 L 5.28125 -7.375 C 5.28125 -7.300781 5.316406 -7.265625 5.390625 -7.265625 Z M 11.65625 -6.8125 C 11.65625 -7.039062 11.726562 -7.15625 11.875 -7.15625 L 11 -7.15625 C 11.144531 -6.925781 11.363281 -6.8125 11.65625 -6.8125 Z M 7.265625 -6.375 C 7.265625 -6.375 7.242188 -6.390625 7.203125 -6.421875 C 7.171875 -6.460938 7.15625 -6.484375 7.15625 -6.484375 L 6.375 -6.703125 L 6.265625 -6.703125 C 6.117188 -6.703125 6.046875 -6.59375 6.046875 -6.375 C 6.046875 -6.15625 6.097656 -6.023438 6.203125 -5.984375 C 6.316406 -5.953125 6.484375 -5.9375 6.703125 -5.9375 L 7.15625 -6.15625 Z M 8.46875 -4.296875 L 8.25 -4.515625 C 8.25 -4.515625 8.226562 -4.492188 8.1875 -4.453125 C 8.15625 -4.421875 8.140625 -4.40625 8.140625 -4.40625 L 8.140625 -4.296875 L 8.03125 -4.1875 L 8.25 -4.1875 Z M 8.46875 -4.296875" transform="translate(80.748 231.375)"/></g></g></g><g><g><g><path d="M 45.203125 -41.25 C 42.640625 -46.96875 38.535156 -50.5625 32.890625 -52.03125 L 32.78125 -52.03125 C 30.945312 -52.394531 29.1875 -52.578125 27.5 -52.578125 C 26.03125 -52.578125 24.050781 -52.429688 21.5625 -52.140625 L 22 -56.65625 L 40.375 -58.078125 C 41.613281 -58.222656 42.234375 -58.882812 42.234375 -60.0625 L 43.234375 -74.796875 C 43.234375 -75.390625 43.050781 -75.90625 42.6875 -76.34375 C 42.164062 -76.78125 41.613281 -77 41.03125 -77 L 7.15625 -75.015625 C 6.050781 -75.015625 5.425781 -74.46875 5.28125 -73.375 L 4.84375 -69.84375 L 8.578125 -69.84375 C 9.753906 -69.84375 10.671875 -69.878906 11.328125 -69.953125 C 14.773438 -69.953125 18.8125 -70.101562 23.4375 -70.40625 C 26.21875 -70.476562 29.332031 -70.40625 32.78125 -70.1875 L 32.78125 -69.625 C 32.488281 -69.914062 32.082031 -70.0625 31.5625 -70.0625 C 30.976562 -69.988281 30.140625 -69.769531 29.046875 -69.40625 C 28.597656 -69.1875 28.191406 -69.078125 27.828125 -69.078125 L 27.9375 -68.640625 L 26.625 -69.515625 C 24.789062 -69.734375 23.101562 -69.84375 21.5625 -69.84375 C 19.21875 -69.695312 17.457031 -69.625 16.28125 -69.625 C 15.101562 -69.550781 13.34375 -69.515625 11 -69.515625 C 9.3125 -69.515625 7.585938 -69.625 5.828125 -69.84375 C 5.679688 -69.40625 5.460938 -69.222656 5.171875 -69.296875 L 4.734375 -69.40625 L 0.875 -40.921875 L 0.765625 -39.59375 C 0.765625 -39.226562 0.835938 -38.609375 0.984375 -37.734375 C 1.128906 -36.703125 1.585938 -35.816406 2.359375 -35.078125 C 3.128906 -34.347656 4.210938 -33.984375 5.609375 -33.984375 C 6.265625 -33.984375 6.960938 -34.09375 7.703125 -34.3125 C 11.441406 -35.195312 14.519531 -35.820312 16.9375 -36.1875 C 18.113281 -36.332031 19.101562 -36.40625 19.90625 -36.40625 C 21.664062 -36.40625 22.988281 -36.078125 23.875 -35.421875 C 25.113281 -34.316406 25.734375 -32.847656 25.734375 -31.015625 C 25.734375 -29.921875 25.492188 -28.820312 25.015625 -27.71875 C 24.546875 -26.613281 23.90625 -25.660156 23.09375 -24.859375 C 21.039062 -22.734375 17.632812 -21.226562 12.875 -20.34375 C 10.75 -19.976562 6.785156 -19.796875 0.984375 -19.796875 C 0.328125 -19.796875 -0.195312 -19.539062 -0.59375 -19.03125 C -1 -18.519531 -1.128906 -17.96875 -0.984375 -17.375 L 1.765625 -1.65625 C 1.984375 -0.550781 2.710938 0 3.953125 0 L 9.5625 -0.328125 C 18 -0.765625 24.894531 -1.9375 30.25 -3.84375 C 40 -7.4375 45.679688 -14.992188 47.296875 -26.515625 L 47.296875 -26.625 C 47.441406 -28.382812 47.515625 -29.664062 47.515625 -30.46875 C 47.515625 -34.351562 46.742188 -37.945312 45.203125 -41.25 Z M 37.84375 -69.953125 C 37.550781 -69.953125 37.332031 -69.914062 37.1875 -69.84375 C 37.03125 -69.769531 36.894531 -69.769531 36.78125 -69.84375 C 36.675781 -69.914062 36.625 -69.988281 36.625 -70.0625 C 36.625 -70.363281 36.882812 -70.550781 37.40625 -70.625 C 37.695312 -70.769531 37.84375 -70.546875 37.84375 -69.953125 Z M 26.515625 -46.640625 L 26.515625 -46.96875 L 27.390625 -46.96875 C 27.390625 -46.75 27.460938 -46.492188 27.609375 -46.203125 L 26.40625 -46.203125 L 26.40625 -46.421875 Z M 30.03125 -45.875 C 29.59375 -45.582031 29.148438 -45.582031 28.703125 -45.875 C 29.003906 -45.875 29.15625 -46.019531 29.15625 -46.3125 C 29.59375 -46.019531 29.882812 -45.875 30.03125 -45.875 Z M 27.828125 -45.4375 C 27.753906 -45.351562 27.609375 -45.3125 27.390625 -45.3125 L 26.953125 -45.3125 L 26.953125 -45.546875 L 27.171875 -45.765625 L 27.171875 -45.875 C 27.609375 -45.875 27.828125 -45.726562 27.828125 -45.4375 Z M 21.234375 -44.984375 L 20.6875 -44.765625 L 20.34375 -44.765625 L 20.125 -44.875 L 20.125 -45.3125 L 20.90625 -45.765625 C 20.90625 -45.691406 20.957031 -45.632812 21.0625 -45.59375 C 21.175781 -45.5625 21.269531 -45.507812 21.34375 -45.4375 L 21.78125 -45.203125 Z M 26.953125 -43.78125 C 26.585938 -43.632812 26.40625 -43.453125 26.40625 -43.234375 C 26.257812 -43.378906 26.070312 -43.453125 25.84375 -43.453125 L 25.1875 -43.671875 L 25.84375 -45.09375 C 25.988281 -44.726562 26.175781 -44.507812 26.40625 -44.4375 C 26.695312 -44.144531 26.878906 -43.925781 26.953125 -43.78125 Z M 30.796875 -44.875 L 31.6875 -45.09375 L 31.6875 -44.65625 L 30.796875 -44.546875 Z M 31.6875 -43.671875 L 31.453125 -43.671875 L 31.34375 -43.5625 C 31.050781 -43.851562 31.050781 -44.109375 31.34375 -44.328125 C 31.414062 -44.328125 31.453125 -44.289062 31.453125 -44.21875 L 31.5625 -44.21875 C 31.5625 -44.144531 31.601562 -44.109375 31.6875 -44.109375 L 31.6875 -44 L 31.796875 -44 L 31.796875 -43.890625 Z M 21.015625 -41.578125 L 20.90625 -41.359375 L 20.6875 -41.359375 L 20.34375 -41.46875 L 20.453125 -42.125 C 20.679688 -42.269531 20.71875 -42.414062 20.5625 -42.5625 L 20.453125 -42.796875 C 20.378906 -42.867188 20.34375 -42.976562 20.34375 -43.125 C 20.570312 -42.90625 20.757812 -42.644531 20.90625 -42.34375 L 21.125 -41.90625 L 21.125 -41.6875 Z M 26.0625 -42.796875 L 26.515625 -42.796875 L 26.515625 -42.125 L 26.0625 -42.125 Z M 26.953125 -41.359375 C 26.953125 -41.648438 27.207031 -41.90625 27.71875 -42.125 C 27.71875 -41.757812 27.789062 -41.503906 27.9375 -41.359375 Z M 17.8125 -41.6875 L 18.046875 -41.6875 L 18.046875 -41.25 L 17.8125 -41.25 Z M 27.390625 -38.609375 C 27.390625 -38.609375 27.367188 -38.585938 27.328125 -38.546875 C 27.296875 -38.515625 27.28125 -38.5 27.28125 -38.5 L 27.28125 -38.390625 L 26.84375 -38.390625 C 26.84375 -38.316406 26.988281 -38.097656 27.28125 -37.734375 L 27.0625 -37.296875 C 27.0625 -37.140625 26.953125 -37.0625 26.734375 -37.0625 L 26.1875 -37.0625 C 26.1875 -37.144531 26.109375 -37.257812 25.953125 -37.40625 L 26.40625 -37.84375 L 26.515625 -38.28125 C 26.140625 -38.5 25.953125 -38.753906 25.953125 -39.046875 L 26.0625 -39.265625 L 26.1875 -39.59375 L 26.40625 -39.703125 L 26.625 -39.9375 L 27.0625 -39.8125 L 27.171875 -39.703125 L 27.171875 -39.59375 C 27.171875 -39.59375 27.1875 -39.570312 27.21875 -39.53125 C 27.257812 -39.5 27.28125 -39.484375 27.28125 -39.484375 L 27.28125 -39.15625 C 27.132812 -39.082031 27.0625 -38.972656 27.0625 -38.828125 L 26.953125 -38.71875 L 27.171875 -38.71875 C 27.316406 -38.863281 27.390625 -38.828125 27.390625 -38.609375 Z M 12.546875 -39.703125 L 12.765625 -39.703125 L 12.984375 -39.265625 L 12.765625 -39.265625 Z M 40.703125 -35.3125 C 40.703125 -35.238281 40.59375 -35.09375 40.375 -34.875 L 40.375 -35.75 C 40.59375 -35.675781 40.703125 -35.53125 40.703125 -35.3125 Z M 26.1875 -34.875 C 26.1875 -34.945312 26.257812 -35.054688 26.40625 -35.203125 L 26.734375 -35.640625 L 27.171875 -35.203125 C 27.316406 -35.054688 27.390625 -34.945312 27.390625 -34.875 Z M 27.9375 -34.546875 C 27.644531 -34.097656 27.390625 -33.835938 27.171875 -33.765625 L 26.84375 -33.984375 C 26.695312 -33.984375 26.585938 -34.019531 26.515625 -34.09375 C 26.515625 -34.164062 26.550781 -34.203125 26.625 -34.203125 L 26.625 -34.4375 C 26.625 -34.4375 26.640625 -34.453125 26.671875 -34.484375 C 26.710938 -34.523438 26.734375 -34.546875 26.734375 -34.546875 L 26.953125 -34.546875 L 27.171875 -34.65625 C 27.535156 -34.65625 27.789062 -34.617188 27.9375 -34.546875 Z M 40.703125 -33.984375 C 40.703125 -33.910156 40.664062 -33.875 40.59375 -33.875 L 40.484375 -33.65625 C 40.410156 -33.582031 40.375 -33.472656 40.375 -33.328125 C 40.375 -33.179688 40.390625 -33.050781 40.421875 -32.9375 C 40.460938 -32.832031 40.445312 -32.742188 40.375 -32.671875 C 40.226562 -32.816406 40.082031 -32.890625 39.9375 -32.890625 L 39.9375 -33.109375 C 40.300781 -33.328125 40.410156 -33.546875 40.265625 -33.765625 C 40.117188 -34.054688 40.265625 -34.238281 40.703125 -34.3125 Z M 32.5625 -32.671875 C 32.269531 -32.523438 32.050781 -32.453125 31.90625 -32.453125 L 31.6875 -32.34375 L 31.234375 -32.234375 L 31.234375 -33 C 31.378906 -33 31.53125 -33.070312 31.6875 -33.21875 C 32.269531 -33 32.5625 -32.816406 32.5625 -32.671875 Z M 33.328125 -31.90625 L 32.890625 -31.90625 L 32.890625 -32.5625 L 33.21875 -32.5625 L 33.546875 -32.671875 L 33.765625 -32.125 Z M 27.828125 -31.796875 L 27.828125 -32.34375 L 28.265625 -32.015625 C 28.335938 -31.941406 28.375 -31.832031 28.375 -31.6875 L 27.9375 -31.34375 Z M 40.703125 -31.6875 C 40.703125 -31.457031 40.644531 -31.210938 40.53125 -30.953125 C 40.425781 -30.703125 40.300781 -30.503906 40.15625 -30.359375 L 40.59375 -29.921875 L 40.375 -29.8125 L 39.9375 -29.921875 L 39.9375 -31.125 C 39.851562 -31.269531 39.832031 -31.453125 39.875 -31.671875 C 39.914062 -31.898438 39.9375 -32.125 39.9375 -32.34375 L 40.375 -32.34375 C 40.519531 -32.125 40.59375 -32.015625 40.59375 -32.015625 Z M 44.4375 -32.015625 C 44.4375 -31.941406 44.4375 -31.847656 44.4375 -31.734375 C 44.4375 -31.617188 44.398438 -31.523438 44.328125 -31.453125 L 44.328125 -31.90625 C 44.253906 -31.976562 44.289062 -32.085938 44.4375 -32.234375 Z M 40.375 -27.9375 C 40.226562 -28.082031 40.15625 -28.15625 40.15625 -28.15625 C 40.007812 -28.300781 39.9375 -28.375 39.9375 -28.375 L 40.375 -28.375 Z M 40.59375 -24.09375 C 40.445312 -23.5 40.375 -23.019531 40.375 -22.65625 L 39.8125 -22.4375 L 40.375 -22 C 40.300781 -22 40.265625 -21.960938 40.265625 -21.890625 L 40.15625 -21.890625 C 40.082031 -21.960938 39.953125 -22.070312 39.765625 -22.21875 C 39.578125 -22.363281 39.484375 -22.472656 39.484375 -22.546875 L 39.59375 -22.875 L 39.703125 -23.3125 L 39.8125 -23.3125 L 40.265625 -23.4375 C 40.117188 -23.582031 39.929688 -23.65625 39.703125 -23.65625 C 39.703125 -24.019531 39.679688 -24.289062 39.640625 -24.46875 C 39.609375 -24.65625 39.59375 -24.75 39.59375 -24.75 L 39.59375 -25.84375 C 39.59375 -25.84375 39.609375 -25.859375 39.640625 -25.890625 C 39.679688 -25.929688 39.703125 -25.953125 39.703125 -25.953125 L 39.9375 -26.0625 C 40.082031 -26.0625 40.191406 -26.140625 40.265625 -26.296875 L 40.265625 -26.734375 C 40.265625 -26.953125 40.300781 -27.097656 40.375 -27.171875 L 40.484375 -25.296875 C 40.265625 -25.296875 40.082031 -25.222656 39.9375 -25.078125 C 40.226562 -24.929688 40.410156 -24.785156 40.484375 -24.640625 C 40.554688 -24.492188 40.59375 -24.3125 40.59375 -24.09375 Z M 39.703125 -21.125 L 39.59375 -21.234375 L 39.59375 -21.5625 L 39.703125 -21.671875 L 39.8125 -21.671875 L 40.375 -21.5625 L 40.375 -21.015625 L 39.9375 -21.015625 Z M 39.703125 -16.390625 C 39.484375 -16.316406 39.265625 -16.316406 39.046875 -16.390625 L 39.046875 -16.71875 L 39.703125 -16.71875 Z M 39.15625 -13.421875 L 38.828125 -13.421875 L 38.828125 -13.640625 L 39.15625 -13.640625 Z M 39.15625 -13.421875" transform="translate(132.004 231.375)"/></g></g></g><g><g><g><path d="M 47.625 -51.046875 C 48 -47.742188 48.1875 -44.914062 48.1875 -42.5625 C 48.1875 -33.914062 46.570312 -25.628906 43.34375 -17.703125 C 41.363281 -12.796875 38.484375 -8.617188 34.703125 -5.171875 C 30.929688 -1.722656 26.695312 0 22 0 C 17.96875 0 14.226562 -1.113281 10.78125 -3.34375 C 7.332031 -5.582031 4.617188 -8.6875 2.640625 -12.65625 C 0.222656 -17.414062 -0.984375 -23.570312 -0.984375 -31.125 C -0.984375 -39.78125 0.296875 -47.8125 2.859375 -55.21875 C 5.492188 -62.625 8.941406 -68.050781 13.203125 -71.5 L 16.9375 -71.609375 L 13.640625 -71.9375 C 15.035156 -73.039062 16.578125 -73.921875 18.265625 -74.578125 C 20.390625 -75.609375 22.804688 -76.125 25.515625 -76.125 C 27.054688 -76.125 28.453125 -75.976562 29.703125 -75.6875 C 32.484375 -75.019531 35.050781 -73.878906 37.40625 -72.265625 L 35.75 -72.265625 C 34.945312 -72.265625 34.359375 -72.300781 33.984375 -72.375 C 33.617188 -73.113281 33.253906 -73.484375 32.890625 -73.484375 C 32.671875 -73.484375 32.34375 -73.335938 31.90625 -73.046875 C 31.757812 -72.890625 31.519531 -72.703125 31.1875 -72.484375 C 30.851562 -72.265625 30.554688 -72.132812 30.296875 -72.09375 C 30.046875 -72.0625 29.773438 -72.117188 29.484375 -72.265625 L 29.484375 -71.828125 C 31.023438 -71.898438 33.367188 -71.9375 36.515625 -71.9375 C 37.179688 -71.9375 37.625 -71.972656 37.84375 -72.046875 C 39.457031 -70.648438 40.664062 -69.40625 41.46875 -68.3125 C 41.394531 -68.019531 41.503906 -67.875 41.796875 -67.875 C 44.878906 -63.832031 46.820312 -58.222656 47.625 -51.046875 Z M 19.46875 -72.265625 C 18.957031 -72.265625 18.445312 -72.082031 17.9375 -71.71875 C 19.769531 -72.007812 21.523438 -72.117188 23.203125 -72.046875 C 24.234375 -71.898438 25.921875 -71.828125 28.265625 -71.828125 L 28.15625 -72.265625 C 26.988281 -72.117188 26.289062 -72.046875 26.0625 -72.046875 C 25.40625 -72.046875 24.859375 -72.265625 24.421875 -72.703125 C 23.910156 -72.335938 23.285156 -72.15625 22.546875 -72.15625 C 22.035156 -72.15625 21.597656 -72.191406 21.234375 -72.265625 Z M 23.875 -69.40625 L 24.859375 -69.1875 L 24.75 -69.515625 Z M 32.78125 -68.3125 C 32.195312 -68.164062 31.90625 -67.984375 31.90625 -67.765625 L 33.65625 -67.984375 C 33.945312 -68.273438 34.019531 -68.53125 33.875 -68.75 C 33.726562 -68.601562 33.363281 -68.457031 32.78125 -68.3125 Z M 18.15625 -65.34375 L 19.03125 -65.34375 L 19.03125 -65.5625 L 18.15625 -65.5625 Z M 16.390625 -64.234375 C 16.390625 -64.378906 16.332031 -64.507812 16.21875 -64.625 C 16.113281 -64.738281 15.988281 -64.796875 15.84375 -64.796875 L 15.625 -64.125 Z M 14.625 -64.234375 L 14.625 -64.453125 L 14.078125 -64.453125 L 14.078125 -64.234375 Z M 33 -63.359375 C 33 -63.359375 33.015625 -63.375 33.046875 -63.40625 C 33.085938 -63.445312 33.109375 -63.46875 33.109375 -63.46875 L 33.328125 -63.6875 L 32.671875 -63.796875 C 32.597656 -63.722656 32.597656 -63.628906 32.671875 -63.515625 C 32.742188 -63.410156 32.851562 -63.359375 33 -63.359375 Z M 14.1875 -63.578125 L 13.859375 -63.359375 C 13.785156 -63.285156 13.75 -63.175781 13.75 -63.03125 C 13.75 -62.957031 13.785156 -62.921875 13.859375 -62.921875 L 13.859375 -62.8125 C 14.367188 -62.59375 14.769531 -62.628906 15.0625 -62.921875 L 15.0625 -63.46875 Z M 16.390625 -62.265625 L 16.171875 -61.9375 L 16.5 -61.703125 L 16.828125 -62.15625 Z M 10.015625 -60.9375 C 9.941406 -60.9375 9.828125 -60.878906 9.671875 -60.765625 C 9.523438 -60.660156 9.453125 -60.570312 9.453125 -60.5 C 9.523438 -60.425781 9.75 -60.390625 10.125 -60.390625 L 10.125 -60.609375 C 10.125 -60.753906 10.085938 -60.863281 10.015625 -60.9375 Z M 13.640625 -60.390625 L 13.640625 -60.5 C 13.640625 -60.5 13.617188 -60.515625 13.578125 -60.546875 C 13.546875 -60.585938 13.53125 -60.609375 13.53125 -60.609375 L 13.53125 -60.71875 L 12.765625 -60.390625 Z M 35.421875 -59.296875 C 35.640625 -59.296875 35.894531 -59.367188 36.1875 -59.515625 C 36.1875 -59.878906 35.929688 -60.207031 35.421875 -60.5 Z M 10.015625 -59.84375 C 10.378906 -59.84375 10.597656 -59.878906 10.671875 -59.953125 L 10.890625 -59.953125 C 10.597656 -60.242188 10.304688 -60.390625 10.015625 -60.390625 Z M 11.546875 -59.953125 C 11.546875 -59.878906 11.65625 -59.769531 11.875 -59.625 C 12.09375 -59.914062 12.09375 -60.171875 11.875 -60.390625 L 11.21875 -60.390625 Z M 11 -59.0625 C 10.78125 -58.988281 10.488281 -58.769531 10.125 -58.40625 L 10.890625 -58.40625 L 12.3125 -57.96875 L 12.3125 -58.40625 C 12.3125 -58.40625 12.289062 -58.421875 12.25 -58.453125 C 12.21875 -58.492188 12.203125 -58.515625 12.203125 -58.515625 L 11.984375 -58.515625 L 11.765625 -58.40625 L 11.21875 -58.40625 Z M 32.234375 -58.84375 C 32.085938 -58.988281 31.863281 -59.0625 31.5625 -59.0625 L 31.34375 -58.40625 C 31.570312 -58.40625 31.722656 -58.367188 31.796875 -58.296875 C 31.796875 -58.367188 31.867188 -58.40625 32.015625 -58.40625 L 32.234375 -58.40625 Z M 35.96875 -58.1875 C 35.820312 -58.039062 35.75 -57.96875 35.75 -57.96875 L 35.53125 -57.859375 L 36.40625 -57.640625 C 36.625 -57.785156 36.734375 -57.929688 36.734375 -58.078125 L 36.625 -58.515625 Z M 12.546875 -58.296875 C 12.316406 -57.859375 12.316406 -57.566406 12.546875 -57.421875 L 12.875 -57.421875 L 13.09375 -57.53125 L 12.984375 -57.96875 Z M 10.671875 -56.4375 C 10.890625 -56.4375 11.035156 -56.394531 11.109375 -56.3125 C 11.398438 -56.613281 11.546875 -56.835938 11.546875 -56.984375 L 11.546875 -57.421875 L 11.328125 -57.53125 L 11.21875 -57.859375 L 11 -57.75 L 11 -57.640625 L 10.890625 -57.640625 C 10.890625 -57.640625 10.867188 -57.617188 10.828125 -57.578125 C 10.796875 -57.546875 10.78125 -57.53125 10.78125 -57.53125 C 10.707031 -57.53125 10.671875 -57.492188 10.671875 -57.421875 Z M 37.296875 -57.3125 C 37.296875 -57.3125 37.367188 -57.238281 37.515625 -57.09375 L 37.953125 -56.875 L 37.625 -57.53125 L 37.296875 -57.53125 Z M 29.15625 -36.40625 C 29.300781 -40.21875 29.375 -43.039062 29.375 -44.875 C 29.375 -50.519531 28.785156 -54.1875 27.609375 -55.875 C 26.953125 -56.757812 26.035156 -57.203125 24.859375 -57.203125 C 23.910156 -57.203125 23.125 -56.578125 22.5 -55.328125 C 21.875 -54.078125 21.226562 -52.5 20.5625 -50.59375 C 18.144531 -41.570312 16.9375 -34.3125 16.9375 -28.8125 C 16.9375 -23.832031 17.816406 -20.898438 19.578125 -20.015625 C 19.941406 -19.722656 20.492188 -19.578125 21.234375 -19.578125 C 22.398438 -19.578125 23.441406 -20.160156 24.359375 -21.328125 C 25.273438 -22.503906 26.066406 -24.082031 26.734375 -26.0625 C 27.460938 -28.050781 27.988281 -29.738281 28.3125 -31.125 C 28.644531 -32.519531 28.925781 -34.28125 29.15625 -36.40625 Z M 13.640625 -56.765625 L 13.640625 -56.546875 L 14.515625 -56.65625 L 14.515625 -56.984375 Z M 11.875 -55.984375 C 11.875 -55.765625 12.019531 -55.65625 12.3125 -55.65625 L 12.546875 -55.65625 C 12.617188 -55.726562 12.65625 -55.875 12.65625 -56.09375 L 12.65625 -56.3125 L 12.546875 -56.3125 C 12.097656 -56.3125 11.875 -56.203125 11.875 -55.984375 Z M 34.09375 -55.875 L 33.65625 -55.875 L 33.65625 -55.328125 L 34.4375 -55.328125 C 34.4375 -55.546875 34.394531 -55.691406 34.3125 -55.765625 Z M 13.09375 -55 C 13.164062 -55.070312 13.179688 -55.160156 13.140625 -55.265625 C 13.109375 -55.378906 13.054688 -55.4375 12.984375 -55.4375 C 12.691406 -55.363281 12.546875 -55.21875 12.546875 -55 Z M 11.765625 -54.78125 C 11.835938 -54.851562 11.945312 -54.890625 12.09375 -54.890625 C 12.09375 -55.035156 12.019531 -55.109375 11.875 -55.109375 C 11.726562 -55.109375 11.617188 -55.070312 11.546875 -55 C 11.472656 -54.925781 11.472656 -54.867188 11.546875 -54.828125 C 11.617188 -54.796875 11.691406 -54.78125 11.765625 -54.78125 Z M 34.203125 -54.234375 C 34.429688 -54.378906 34.546875 -54.5625 34.546875 -54.78125 L 34.3125 -54.890625 L 34.203125 -54.890625 C 33.984375 -54.816406 33.800781 -54.707031 33.65625 -54.5625 C 33.507812 -54.5625 33.4375 -54.488281 33.4375 -54.34375 Z M 35.421875 -54.453125 C 35.929688 -54.453125 36.1875 -54.597656 36.1875 -54.890625 L 35.421875 -54.890625 Z M 35.421875 -53.34375 C 35.566406 -53.269531 35.859375 -53.234375 36.296875 -53.234375 C 35.929688 -53.378906 35.75 -53.488281 35.75 -53.5625 C 35.601562 -53.71875 35.53125 -53.796875 35.53125 -53.796875 C 35.3125 -53.796875 35.128906 -53.757812 34.984375 -53.6875 L 34.765625 -53.5625 Z M 35.3125 -53.015625 L 35.09375 -52.796875 L 35.53125 -52.46875 L 35.859375 -52.6875 Z M 35.640625 -51.921875 L 35.96875 -51.921875 L 35.96875 -52.25 L 35.640625 -52.25 Z M 34.765625 -51.265625 C 34.765625 -51.265625 34.691406 -51.335938 34.546875 -51.484375 L 34.546875 -51.15625 C 34.691406 -51.15625 34.765625 -51.191406 34.765625 -51.265625 Z M 35.09375 -50.703125 C 35.820312 -50.859375 36.40625 -50.859375 36.84375 -50.703125 L 36.84375 -51.15625 L 35.640625 -51.15625 C 35.566406 -51.15625 35.457031 -51.082031 35.3125 -50.9375 C 35.3125 -50.9375 35.238281 -50.859375 35.09375 -50.703125 Z M 35.859375 -48.625 C 35.859375 -48.769531 35.859375 -48.84375 35.859375 -48.84375 L 35.859375 -49.0625 C 35.859375 -48.84375 35.75 -48.734375 35.53125 -48.734375 L 35.75 -48.734375 Z M 38.171875 -48.625 C 38.023438 -48.625 37.953125 -48.695312 37.953125 -48.84375 C 37.953125 -48.25 37.617188 -48.03125 36.953125 -48.1875 L 37.0625 -47.953125 L 37.0625 -47.734375 L 37.515625 -48.0625 C 37.660156 -48.0625 37.878906 -48.140625 38.171875 -48.296875 Z M 33.328125 -48.296875 L 33.328125 -48.625 L 33.109375 -48.625 L 33.109375 -48.296875 Z M 35.859375 -47.84375 C 35.859375 -48.070312 35.929688 -48.1875 36.078125 -48.1875 L 35.640625 -48.1875 C 35.785156 -48.1875 35.859375 -48.109375 35.859375 -47.953125 Z M 36.734375 -46.53125 C 36.953125 -46.675781 37.0625 -46.894531 37.0625 -47.1875 C 36.988281 -46.96875 36.878906 -46.859375 36.734375 -46.859375 L 36.296875 -46.53125 Z M 35.859375 -45.765625 C 35.710938 -45.765625 35.601562 -45.800781 35.53125 -45.875 C 35.457031 -45.875 35.421875 -45.945312 35.421875 -46.09375 C 35.273438 -46.3125 35.09375 -46.457031 34.875 -46.53125 L 34.09375 -46.203125 L 34.4375 -46.203125 C 34.4375 -46.273438 34.546875 -46.3125 34.765625 -46.3125 C 34.984375 -46.09375 35.09375 -45.875 35.09375 -45.65625 L 35.75 -45.65625 Z M 33.328125 -44.109375 C 33.691406 -44.253906 33.875 -44.4375 33.875 -44.65625 L 33.328125 -44.65625 C 33.179688 -44.289062 33.179688 -44.109375 33.328125 -44.109375 Z M 33.328125 -44.109375" transform="translate(185.24 231.375)"/></g></g></g><g><g><g><path d="M 27.609375 -61.484375 C 25.484375 -61.859375 23.976562 -60.90625 23.09375 -58.625 C 22.363281 -57.238281 22 -55.8125 22 -54.34375 C 22 -51.914062 23.023438 -49.785156 25.078125 -47.953125 C 26.328125 -46.710938 27.796875 -45.578125 29.484375 -44.546875 L 32.890625 -42.453125 C 41.984375 -36.953125 46.53125 -30.132812 46.53125 -22 C 46.53125 -20.894531 46.492188 -20.085938 46.421875 -19.578125 L 46.421875 -19.46875 C 45.609375 -15.289062 44.175781 -11.695312 42.125 -8.6875 C 40.070312 -5.6875 37.359375 -3.523438 33.984375 -2.203125 C 32.597656 -1.691406 31.171875 -1.25 29.703125 -0.875 L 32.671875 -0.546875 C 32.523438 0.398438 32.378906 1.828125 32.234375 3.734375 L 31.90625 7.921875 C 31.757812 9.535156 30.988281 10.304688 29.59375 10.234375 L 24.203125 9.6875 C 23.460938 9.6875 22.910156 9.5 22.546875 9.125 C 22.179688 8.613281 21.960938 8.03125 21.890625 7.375 L 22.984375 -0.109375 C 20.492188 -0.109375 18.625 -0.179688 17.375 -0.328125 C 12.46875 -0.835938 6.3125 -3.113281 -1.09375 -7.15625 C -1.90625 -7.59375 -2.3125 -8.175781 -2.3125 -8.90625 C -2.3125 -9.269531 -2.203125 -9.675781 -1.984375 -10.125 L 2.859375 -19.796875 C 3.222656 -20.679688 3.882812 -21.125 4.84375 -21.125 C 5.28125 -21.125 5.644531 -21.015625 5.9375 -20.796875 C 9.457031 -18.660156 12.90625 -16.972656 16.28125 -15.734375 C 17.894531 -15.140625 19.363281 -14.84375 20.6875 -14.84375 C 22.289062 -14.84375 23.585938 -15.28125 24.578125 -16.15625 C 25.566406 -17.039062 26.0625 -18.289062 26.0625 -19.90625 C 26.0625 -22.476562 24.925781 -24.609375 22.65625 -26.296875 C 21.5625 -27.171875 19.144531 -28.742188 15.40625 -31.015625 L 13.203125 -32.34375 L 12.984375 -32.453125 C 12.242188 -32.816406 10.078125 -34.503906 6.484375 -37.515625 C 6.484375 -37.515625 6.460938 -37.53125 6.421875 -37.5625 C 6.390625 -37.601562 6.375 -37.625 6.375 -37.625 C 4.394531 -39.457031 3.039062 -41.910156 2.3125 -44.984375 C 1.875 -46.960938 1.65625 -48.90625 1.65625 -50.8125 C 1.65625 -55.507812 2.972656 -60.054688 5.609375 -64.453125 C 9.273438 -70.910156 15.140625 -74.613281 23.203125 -75.5625 C 25.109375 -75.789062 27.054688 -75.90625 29.046875 -75.90625 L 30.03125 -84.046875 C 30.175781 -84.773438 30.429688 -85.285156 30.796875 -85.578125 C 31.160156 -85.867188 31.710938 -86.015625 32.453125 -86.015625 L 37.1875 -85.90625 C 37.84375 -85.832031 38.367188 -85.578125 38.765625 -85.140625 C 39.171875 -84.703125 39.335938 -84.113281 39.265625 -83.375 L 38.28125 -74.140625 C 40.625 -73.179688 42.492188 -71.785156 43.890625 -69.953125 C 45.503906 -67.898438 46.457031 -65.078125 46.75 -61.484375 C 46.894531 -60.316406 46.96875 -59 46.96875 -57.53125 C 46.96875 -55.84375 46.894531 -53.828125 46.75 -51.484375 C 46.75 -50.085938 46.015625 -49.390625 44.546875 -49.390625 L 31.796875 -49.390625 C 30.328125 -49.390625 29.59375 -50.125 29.59375 -51.59375 C 29.59375 -54.082031 29.484375 -56.6875 29.265625 -59.40625 C 29.046875 -60.71875 28.53125 -61.410156 27.71875 -61.484375 Z M 34.09375 -63.03125 L 34.09375 -62.8125 L 34.546875 -62.8125 L 34.546875 -63.03125 Z M 36.953125 -59.625 C 36.953125 -59.625 36.929688 -59.640625 36.890625 -59.671875 C 36.859375 -59.710938 36.84375 -59.734375 36.84375 -59.734375 L 36.734375 -59.515625 C 36.734375 -59.515625 36.710938 -59.492188 36.671875 -59.453125 C 36.640625 -59.421875 36.625 -59.40625 36.625 -59.40625 C 36.550781 -59.257812 36.566406 -59.1875 36.671875 -59.1875 C 36.785156 -59.1875 36.878906 -59.222656 36.953125 -59.296875 L 37.1875 -59.515625 Z M 34.4375 -54.671875 C 34.507812 -54.671875 34.546875 -54.742188 34.546875 -54.890625 L 34.4375 -55.109375 C 34.0625 -55.109375 33.875 -54.960938 33.875 -54.671875 Z M 31.234375 -36.515625 C 31.085938 -36.148438 31.050781 -35.835938 31.125 -35.578125 C 31.195312 -35.328125 31.234375 -35.203125 31.234375 -35.203125 L 32.125 -35.203125 C 32.125 -35.421875 32.050781 -35.601562 31.90625 -35.75 L 32.015625 -35.96875 C 32.015625 -36.257812 31.976562 -36.441406 31.90625 -36.515625 Z M 28.15625 -35.75 L 28.15625 -36.1875 L 27.171875 -36.1875 L 27.171875 -35.75 Z M 32.34375 -35.203125 C 32.050781 -35.203125 31.832031 -35.164062 31.6875 -35.09375 C 31.6875 -35.09375 31.832031 -34.875 32.125 -34.4375 L 33 -34.875 L 33 -34.984375 L 33.21875 -35.09375 L 32.78125 -35.203125 Z M 29.921875 -30.90625 L 30.140625 -30.796875 L 30.359375 -30.90625 C 30.359375 -31.050781 30.285156 -31.195312 30.140625 -31.34375 L 29.921875 -31.453125 L 29.703125 -31.6875 L 29.703125 -30.90625 Z M 35.859375 -30.359375 C 35.421875 -30.140625 35.203125 -29.882812 35.203125 -29.59375 L 35.859375 -29.59375 L 36.078125 -29.703125 L 36.296875 -29.703125 L 36.296875 -29.921875 Z M 35.421875 -27.71875 L 35.421875 -28.15625 L 34.4375 -28.265625 L 34.4375 -27.9375 Z M 39.046875 -25.515625 C 39.191406 -25.148438 39.488281 -24.96875 39.9375 -24.96875 C 40.375 -24.96875 40.59375 -25.1875 40.59375 -25.625 C 40.59375 -25.769531 40.554688 -25.84375 40.484375 -25.84375 L 40.375 -25.953125 C 40.300781 -25.953125 40.265625 -25.988281 40.265625 -26.0625 L 39.265625 -26.0625 Z M 35.859375 -25.84375 L 35.421875 -25.953125 L 35.09375 -25.625 L 35.53125 -25.40625 Z M 36.734375 -22.984375 L 36.296875 -22.984375 L 36.078125 -22.21875 L 36.296875 -22.109375 L 36.40625 -22.109375 L 36.515625 -22 L 37.296875 -22 C 37.296875 -22.070312 37.332031 -22.109375 37.40625 -22.109375 L 37.40625 -22.328125 C 37.476562 -22.328125 37.515625 -22.398438 37.515625 -22.546875 C 37.296875 -22.546875 37.1875 -22.617188 37.1875 -22.765625 Z M 41.03125 -22.546875 C 40.882812 -22.398438 40.847656 -22.253906 40.921875 -22.109375 L 40.921875 -21.671875 C 41.066406 -21.671875 41.25 -21.78125 41.46875 -22 L 41.6875 -22.109375 L 42.015625 -22.328125 L 41.6875 -22.4375 L 41.46875 -22.546875 Z M 38.390625 -21.34375 C 38.097656 -21.34375 37.878906 -21.320312 37.734375 -21.28125 C 37.585938 -21.25 37.476562 -21.234375 37.40625 -21.234375 L 37.40625 -21.125 C 37.40625 -20.675781 37.695312 -20.453125 38.28125 -20.453125 L 38.71875 -20.6875 L 39.15625 -21.015625 L 39.046875 -21.5625 C 38.828125 -21.5625 38.679688 -21.523438 38.609375 -21.453125 Z M 38.5 -17.375 C 38.570312 -17.445312 38.609375 -17.554688 38.609375 -17.703125 C 38.609375 -17.773438 38.316406 -18.109375 37.734375 -18.703125 C 37.585938 -18.554688 37.515625 -18.445312 37.515625 -18.375 L 37.296875 -18.265625 C 37.222656 -18.191406 37.109375 -18.15625 36.953125 -18.15625 L 36.84375 -18.15625 C 36.625 -18.15625 36.441406 -18.191406 36.296875 -18.265625 C 36.078125 -18.335938 35.785156 -18.375 35.421875 -18.375 L 35.09375 -18.375 L 35.09375 -17.9375 L 35.203125 -17.8125 C 35.203125 -17.738281 35.273438 -17.628906 35.421875 -17.484375 C 35.859375 -17.410156 36.203125 -17.351562 36.453125 -17.3125 C 36.710938 -17.28125 36.84375 -17.265625 36.84375 -17.265625 L 37.1875 -17.265625 C 37.332031 -17.117188 37.515625 -17.046875 37.734375 -17.046875 L 38.0625 -17.046875 L 38.28125 -17.15625 L 38.5 -17.15625 Z M 41.25 -18.265625 L 40.484375 -18.265625 C 40.484375 -18.046875 40.375 -17.820312 40.15625 -17.59375 L 41.03125 -17.59375 L 41.03125 -17.8125 Z M 40.375 -17.484375 L 39.8125 -17.484375 L 39.8125 -16.828125 L 40.375 -16.828125 Z M 36.84375 -15.734375 C 37.21875 -15.953125 37.40625 -16.132812 37.40625 -16.28125 L 37.40625 -16.71875 L 36.296875 -16.71875 C 36.367188 -16.789062 36.222656 -16.71875 35.859375 -16.5 C 35.785156 -16.425781 35.640625 -16.390625 35.421875 -16.390625 C 34.984375 -16.171875 34.765625 -15.953125 34.765625 -15.734375 L 34.765625 -15.515625 C 34.910156 -15.367188 35.203125 -15.296875 35.640625 -15.296875 L 36.078125 -15.296875 Z M 40.375 -14.515625 C 40.738281 -14.515625 40.921875 -14.695312 40.921875 -15.0625 C 40.921875 -15.144531 40.8125 -15.296875 40.59375 -15.515625 L 40.046875 -15.84375 C 39.671875 -15.769531 39.484375 -15.507812 39.484375 -15.0625 C 39.484375 -14.84375 39.632812 -14.550781 39.9375 -14.1875 Z M 37.515625 -15.0625 C 37.515625 -15.289062 37.476562 -15.40625 37.40625 -15.40625 L 36.734375 -15.40625 L 36.296875 -15.0625 L 36.296875 -14.625 C 36.734375 -14.550781 37.140625 -14.550781 37.515625 -14.625 Z M 15.0625 -14.84375 L 15.0625 -14.515625 L 15.734375 -14.515625 L 15.734375 -14.84375 Z M 35.09375 -13.3125 L 34.984375 -13.53125 C 34.984375 -13.53125 34.960938 -13.546875 34.921875 -13.578125 C 34.890625 -13.617188 34.835938 -13.640625 34.765625 -13.640625 C 34.617188 -13.492188 34.546875 -13.347656 34.546875 -13.203125 L 34.546875 -12.765625 C 34.691406 -12.765625 34.765625 -12.800781 34.765625 -12.875 L 34.984375 -12.875 L 35.203125 -13.09375 Z M 31.015625 -11.4375 C 31.015625 -11.4375 30.992188 -11.414062 30.953125 -11.375 C 30.921875 -11.34375 30.867188 -11.328125 30.796875 -11.328125 C 31.085938 -11.179688 31.382812 -11.109375 31.6875 -11.109375 C 31.6875 -11.472656 31.609375 -11.691406 31.453125 -11.765625 C 31.304688 -11.765625 31.234375 -11.726562 31.234375 -11.65625 L 31.234375 -11.546875 C 31.085938 -11.546875 31.015625 -11.507812 31.015625 -11.4375 Z M 36.296875 -11.546875 C 36.960938 -11.328125 37.40625 -11.21875 37.625 -11.21875 C 37.625 -11.363281 37.585938 -11.472656 37.515625 -11.546875 L 37.515625 -11.765625 Z M 17.15625 -11.65625 L 16.828125 -11.328125 L 17.265625 -11.109375 L 17.59375 -11.546875 Z M 32.34375 -9.6875 C 32.925781 -9.6875 33.21875 -9.867188 33.21875 -10.234375 L 32.671875 -10.34375 C 32.597656 -10.414062 32.414062 -10.453125 32.125 -10.453125 L 31.90625 -9.796875 C 32.195312 -9.796875 32.34375 -9.757812 32.34375 -9.6875 Z M 29.921875 -10.234375 L 29.921875 -9.6875 L 30.359375 -9.6875 L 30.359375 -10.234375 Z M 19.90625 -8.03125 L 19.90625 -7.703125 L 20.6875 -7.703125 L 20.6875 -8.03125 Z M 31.90625 -8.03125 C 31.757812 -8.03125 31.6875 -7.921875 31.6875 -7.703125 C 31.6875 -7.554688 31.757812 -7.445312 31.90625 -7.375 L 32.78125 -8.03125 Z M 31.90625 -8.03125" transform="translate(239.247 231.375)"/></g></g></g><g clip-path="url(#a)"><g clip-path="url(#b)"><g clip-path="url(#c)"><g clip-path="url(#d)"><path fill="#FCCB1E" d="M 252.300781 118.03125 C 261.457031 109.734375 271.5625 98.167969 279.488281 88.691406 C 281.628906 98.601562 283.179688 108.636719 284.132812 118.726562 C 295.925781 116.566406 307.453125 112.96875 318.375 108.039062 C 316.9375 117.976562 316.082031 128 315.820312 138.039062 C 323.808594 136.378906 332.078125 134.59375 338.621094 129.734375 C 331.367188 141.5 325.246094 153.964844 320.375 166.90625 C 318.363281 165.234375 316.355469 163.558594 314.34375 161.886719 C 309.792969 158.097656 305.238281 154.304688 300.6875 150.515625 C 293.800781 144.785156 286.90625 139.046875 279.574219 133.898438 C 270.929688 127.832031 261.695312 122.605469 252.046875 118.320312"/></g></g></g></g><g clip-path="url(#e)"><g clip-path="url(#f)"><g clip-path="url(#g)"><g clip-path="url(#h)"><path fill="#100F0D" d="M 253.574219 119.789062 C 263.457031 110.488281 272.433594 100.421875 281.179688 90.050781 C 279.894531 89.675781 278.613281 89.296875 277.328125 88.921875 C 279.359375 98.894531 280.898438 108.84375 281.972656 118.957031 C 282.089844 120.042969 283.21875 121.117188 284.367188 120.882812 C 291.96875 119.332031 303.753906 113.023438 310.839844 113.484375 C 316.582031 113.859375 314.886719 110.441406 314.785156 119.679688 C 314.71875 125.664062 313.898438 131.722656 313.671875 137.714844 C 313.625 138.960938 314.554688 140.519531 316.054688 140.195312 C 324.664062 138.34375 332.382812 136.183594 339.894531 131.496094 C 338.804688 130.621094 337.71875 129.746094 336.628906 128.867188 C 331.300781 137.785156 327.785156 149.648438 321.703125 157.800781 C 318.007812 162.753906 320.714844 162.136719 315.703125 160.199219 C 311.75 158.671875 305.324219 151.546875 302.042969 148.828125 C 286.632812 136.046875 271.09375 124.835938 252.90625 116.328125 C 250.375 115.144531 248.652344 119.121094 251.1875 120.308594 C 276.90625 132.335938 297.40625 150.605469 319.019531 168.597656 C 320.078125 169.476562 321.859375 169.074219 322.371094 167.773438 C 327.457031 154.796875 333.464844 142.558594 340.613281 130.597656 C 341.8125 128.597656 338.957031 126.96875 337.351562 127.972656 C 330.976562 131.953125 321.464844 137.644531 318.378906 129.332031 C 316.527344 124.351562 319.832031 113.5625 320.523438 108.363281 C 320.726562 106.804688 319.128906 105.359375 317.597656 106.011719 C 310.207031 109.167969 298.277344 115.941406 290.347656 113.257812 C 283.867188 111.0625 285.433594 110.144531 284.394531 103.414062 C 283.617188 98.398438 282.65625 93.433594 281.644531 88.460938 C 281.277344 86.652344 279.074219 85.8125 277.792969 87.328125 C 269.300781 97.398438 260.636719 107.226562 251.03125 116.269531 C 249.027344 118.15625 251.550781 121.695312 253.574219 119.789062"/></g></g></g></g><g clip-path="url(#i)"><g clip-path="url(#j)"><g clip-path="url(#k)"><g clip-path="url(#l)"><path fill="#FAF783" d="M 317.460938 106.617188 C 318.917969 108.46875 321.769531 108.972656 323.855469 107.882812 C 325.941406 106.792969 327.140625 104.320312 326.90625 101.976562 C 326.800781 100.949219 326.441406 99.9375 325.777344 99.144531 C 325.214844 98.472656 324.441406 97.980469 323.597656 97.742188 C 321.964844 97.28125 320.210938 97.773438 318.707031 98.546875 C 317.714844 99.054688 316.753906 99.726562 316.242188 100.710938 C 315.558594 102.035156 315.832031 103.691406 316.566406 104.988281 C 317.304688 106.285156 318.441406 107.296875 319.558594 108.285156"/></g></g></g></g><g clip-path="url(#m)"><g clip-path="url(#n)"><g clip-path="url(#o)"><g clip-path="url(#p)"><path fill="#100F0D" d="M 316.144531 107.566406 C 318.769531 110.480469 323.238281 110.992188 326.167969 108.179688 C 328.992188 105.476562 329.515625 100.480469 326.566406 97.644531 C 323.605469 94.800781 318.429688 95.875 315.773438 98.648438 C 312.199219 102.382812 315.5 106.84375 318.542969 109.550781 C 320.109375 110.945312 322.140625 108.410156 320.578125 107.019531 C 319.140625 105.738281 316.378906 103.34375 317.867188 101.179688 C 318.96875 99.578125 322.3125 98.558594 323.933594 99.703125 C 328.0625 102.605469 322.40625 109.6875 318.78125 105.667969 C 317.390625 104.125 314.738281 106.011719 316.144531 107.566406"/></g></g></g></g><g clip-path="url(#q)"><g clip-path="url(#r)"><g clip-path="url(#s)"><g clip-path="url(#t)"><path fill="#FAF783" d="M 337.359375 128.042969 C 338.597656 129.1875 340.066406 130.085938 341.652344 130.667969 C 343.1875 131.230469 345.113281 131.414062 346.261719 130.257812 C 346.6875 129.832031 346.949219 129.265625 347.097656 128.683594 C 347.683594 126.441406 346.53125 123.886719 344.503906 122.746094 C 342.472656 121.609375 339.761719 121.917969 337.980469 123.402344 C 337.265625 124 336.667969 124.824219 336.609375 125.761719 C 336.542969 126.789062 337.132812 127.75 337.839844 128.5 C 338.550781 129.25 339.394531 129.867188 340.039062 130.671875"/></g></g></g></g><g clip-path="url(#u)"><g clip-path="url(#v)"><g clip-path="url(#w)"><g clip-path="url(#x)"><path fill="#100F0D" d="M 336.34375 129.308594 C 338.996094 131.625 343.984375 134.410156 347.214844 131.578125 C 349.949219 129.183594 349.007812 124.648438 346.660156 122.367188 C 344.078125 119.855469 339.785156 119.863281 337.027344 122.082031 C 335.695312 123.152344 334.773438 124.792969 335.023438 126.539062 C 335.355469 128.804688 337.304688 130.050781 338.722656 131.617188 C 340.113281 133.160156 342.761719 131.273438 341.359375 129.722656 C 340.183594 128.417969 337.152344 126.558594 338.933594 124.722656 C 340.242188 123.378906 342.792969 123.367188 344.195312 124.507812 C 345.597656 125.644531 346.546875 128.871094 344.207031 129.425781 C 342.21875 129.898438 339.753906 127.976562 338.378906 126.777344 C 336.800781 125.394531 334.765625 127.929688 336.34375 129.308594"/></g></g></g></g><g clip-path="url(#y)"><g clip-path="url(#z)"><g clip-path="url(#A)"><g clip-path="url(#B)"><path fill="#FAF783" d="M 278.222656 88.519531 C 279.765625 89.441406 281.757812 89.664062 283.394531 88.921875 C 285.03125 88.179688 286.199219 86.417969 286.070312 84.625 C 286.003906 83.699219 285.625 82.828125 285.171875 82.015625 C 284.230469 80.335938 282.808594 78.746094 280.917969 78.390625 C 279.222656 78.074219 277.511719 78.808594 276.023438 79.667969 C 275.191406 80.148438 274.347656 80.710938 273.90625 81.566406 C 273.054688 83.203125 273.96875 85.171875 274.917969 86.757812 C 275.359375 87.496094 275.832031 88.25 276.5625 88.703125 C 277.835938 89.492188 279.472656 89.136719 280.921875 88.757812"/></g></g></g></g><g clip-path="url(#C)"><g clip-path="url(#D)"><g clip-path="url(#E)"><g clip-path="url(#F)"><path fill="#100F0D" d="M 277.578125 90.011719 C 281.421875 92.019531 286.800781 90.59375 287.609375 85.863281 C 288.3125 81.746094 284.324219 76.714844 280.105469 76.703125 C 276.230469 76.691406 271.316406 79.738281 272.050781 84.054688 C 272.394531 86.109375 273.808594 88.777344 275.542969 89.96875 C 277.351562 91.210938 279.53125 90.773438 281.503906 90.277344 C 283.53125 89.769531 282.34375 86.734375 280.339844 87.234375 C 278.863281 87.605469 277.863281 87.84375 276.695312 86.539062 C 276.136719 85.917969 275.519531 84.738281 275.347656 83.902344 C 274.878906 81.652344 277.777344 80.019531 279.824219 79.953125 C 282.058594 79.878906 284.398438 82.597656 284.453125 84.796875 C 284.53125 87.929688 280.894531 88.085938 278.867188 87.027344 C 277.011719 86.054688 275.726562 89.042969 277.578125 90.011719"/></g></g></g></g><g clip-path="url(#G)"><g clip-path="url(#H)"><g clip-path="url(#I)"><g clip-path="url(#J)"><path fill="#100F0D" d="M 356.316406 144.34375 C 359.867188 145.0625 363.417969 145.777344 366.96875 146.492188 C 369.023438 146.90625 369.5 143.6875 367.445312 143.273438 C 363.894531 142.558594 360.347656 141.84375 356.796875 141.128906 C 354.738281 140.714844 354.265625 143.929688 356.316406 144.34375"/></g></g></g></g><g clip-path="url(#K)"><g clip-path="url(#L)"><g clip-path="url(#M)"><g clip-path="url(#N)"><path fill="#100F0D" d="M 349.714844 161.972656 C 352.714844 163.71875 355.714844 165.464844 358.714844 167.210938 C 360.519531 168.261719 361.800781 165.269531 360.003906 164.226562 C 357.003906 162.480469 354.003906 160.734375 351.003906 158.988281 C 349.199219 157.9375 347.917969 160.925781 349.714844 161.972656"/></g></g></g></g><g clip-path="url(#O)"><g clip-path="url(#P)"><g clip-path="url(#Q)"><g clip-path="url(#R)"><path fill="#100F0D" d="M 338.695312 172.546875 C 340.207031 175.480469 341.71875 178.414062 343.230469 181.347656 C 344.183594 183.195312 347.230469 182.054688 346.273438 180.191406 C 344.757812 177.257812 343.246094 174.324219 341.734375 171.390625 C 340.78125 169.542969 337.734375 170.683594 338.695312 172.546875"/></g></g></g></g><g clip-path="url(#S)"><g clip-path="url(#T)"><g clip-path="url(#U)"><g clip-path="url(#V)"><path fill="#100F0D" d="M 262.640625 74.472656 C 260.691406 71.050781 258.816406 67.59375 257.011719 64.089844 C 256.058594 62.246094 253.011719 63.386719 253.972656 65.246094 C 255.902344 69 257.910156 72.707031 260 76.371094 C 261.039062 78.191406 263.667969 76.277344 262.640625 74.472656"/></g></g></g></g><g clip-path="url(#W)"><g clip-path="url(#X)"><g clip-path="url(#Y)"><g clip-path="url(#Z)"><path fill="#100F0D" d="M 251.523438 88.785156 C 247.375 86.914062 243.222656 85.042969 239.074219 83.167969 C 237.164062 82.308594 235.871094 85.289062 237.785156 86.152344 C 241.933594 88.027344 246.085938 89.898438 250.234375 91.773438 C 252.144531 92.632812 253.441406 89.652344 251.523438 88.785156"/></g></g></g></g><g clip-path="url(#aa)"><g clip-path="url(#ab)"><g clip-path="url(#ac)"><g clip-path="url(#ad)"><path fill="#100F0D" d="M 243.582031 105.503906 C 239.589844 105.070312 235.597656 104.636719 231.605469 104.203125 C 229.527344 103.980469 229.035156 107.195312 231.128906 107.421875 C 235.121094 107.855469 239.113281 108.289062 243.105469 108.722656 C 245.179688 108.949219 245.671875 105.730469 243.582031 105.503906"/></g></g></g></g></svg>