<svg xmlns="http://www.w3.org/2000/svg" xmlns:xlink="http://www.w3.org/1999/xlink" width="1024" zoomAndPan="magnify" viewBox="0 0 768 767.999994" height="1024" preserveAspectRatio="xMidYMid meet" version="1.0"><path fill="rgb(23.139954%, 34.899902%, 59.609985%)" d="M 115.199219 0 L 652.800781 0 C 654.683594 0 656.570312 0.046875 658.453125 0.140625 C 660.335938 0.230469 662.214844 0.371094 664.089844 0.554688 C 665.96875 0.738281 667.839844 0.96875 669.703125 1.246094 C 671.566406 1.523438 673.425781 1.847656 675.273438 2.214844 C 677.125 2.582031 678.960938 2.996094 680.792969 3.453125 C 682.621094 3.910156 684.4375 4.414062 686.242188 4.960938 C 688.042969 5.507812 689.835938 6.097656 691.609375 6.734375 C 693.382812 7.371094 695.144531 8.046875 696.886719 8.769531 C 698.625 9.492188 700.351562 10.253906 702.054688 11.058594 C 703.757812 11.867188 705.441406 12.714844 707.105469 13.601562 C 708.765625 14.492188 710.40625 15.421875 712.023438 16.390625 C 713.640625 17.359375 715.234375 18.367188 716.800781 19.414062 C 718.371094 20.460938 719.910156 21.546875 721.425781 22.671875 C 722.9375 23.792969 724.425781 24.953125 725.882812 26.148438 C 727.339844 27.34375 728.765625 28.578125 730.164062 29.84375 C 731.558594 31.109375 732.925781 32.40625 734.257812 33.742188 C 735.589844 35.074219 736.890625 36.441406 738.15625 37.835938 C 739.421875 39.234375 740.65625 40.660156 741.851562 42.117188 C 743.046875 43.574219 744.207031 45.0625 745.328125 46.574219 C 746.453125 48.089844 747.539062 49.628906 748.585938 51.199219 C 749.632812 52.765625 750.640625 54.359375 751.609375 55.976562 C 752.578125 57.59375 753.507812 59.230469 754.398438 60.894531 C 755.285156 62.558594 756.132812 64.242188 756.9375 65.945312 C 757.746094 67.648438 758.507812 69.375 759.230469 71.113281 C 759.953125 72.855469 760.628906 74.613281 761.265625 76.390625 C 761.902344 78.164062 762.492188 79.953125 763.039062 81.757812 C 763.585938 83.5625 764.089844 85.378906 764.546875 87.207031 C 765.003906 89.039062 765.417969 90.875 765.785156 92.726562 C 766.152344 94.574219 766.476562 96.433594 766.753906 98.296875 C 767.03125 100.160156 767.261719 102.03125 767.445312 103.910156 C 767.628906 105.785156 767.769531 107.664062 767.859375 109.546875 C 767.953125 111.429688 768 113.316406 768 115.199219 L 768 652.800781 C 768 654.683594 767.953125 656.570312 767.859375 658.453125 C 767.769531 660.335938 767.628906 662.214844 767.445312 664.089844 C 767.261719 665.96875 767.03125 667.839844 766.753906 669.703125 C 766.476562 671.566406 766.152344 673.425781 765.785156 675.273438 C 765.417969 677.125 765.003906 678.960938 764.546875 680.792969 C 764.089844 682.621094 763.585938 684.4375 763.039062 686.242188 C 762.492188 688.042969 761.902344 689.835938 761.265625 691.609375 C 760.628906 693.382812 759.953125 695.144531 759.230469 696.886719 C 758.507812 698.625 757.746094 700.351562 756.9375 702.054688 C 756.132812 703.757812 755.285156 705.441406 754.398438 707.105469 C 753.507812 708.765625 752.578125 710.40625 751.609375 712.023438 C 750.640625 713.640625 749.632812 715.234375 748.585938 716.800781 C 747.539062 718.371094 746.453125 719.910156 745.328125 721.425781 C 744.207031 722.9375 743.046875 724.425781 741.851562 725.882812 C 740.65625 727.339844 739.421875 728.765625 738.15625 730.164062 C 736.890625 731.558594 735.589844 732.925781 734.257812 734.257812 C 732.925781 735.589844 731.558594 736.890625 730.164062 738.15625 C 728.765625 739.421875 727.339844 740.65625 725.882812 741.851562 C 724.425781 743.046875 722.9375 744.207031 721.425781 745.328125 C 719.910156 746.453125 718.367188 747.539062 716.800781 748.585938 C 715.234375 749.632812 713.640625 750.640625 712.023438 751.609375 C 710.40625 752.578125 708.765625 753.507812 707.105469 754.398438 C 705.441406 755.285156 703.757812 756.132812 702.054688 756.9375 C 700.351562 757.746094 698.625 758.507812 696.886719 759.230469 C 695.144531 759.953125 693.382812 760.628906 691.609375 761.265625 C 689.835938 761.902344 688.042969 762.492188 686.242188 763.039062 C 684.4375 763.585938 682.621094 764.089844 680.792969 764.546875 C 678.960938 765.003906 677.125 765.417969 675.273438 765.785156 C 673.425781 766.152344 671.566406 766.476562 669.703125 766.753906 C 667.839844 767.03125 665.96875 767.261719 664.089844 767.445312 C 662.214844 767.628906 660.335938 767.769531 658.453125 767.859375 C 656.570312 767.953125 654.683594 768 652.800781 768 L 115.199219 768 C 113.316406 768 111.429688 767.953125 109.546875 767.859375 C 107.664062 767.769531 105.785156 767.628906 103.910156 767.445312 C 102.03125 767.261719 100.160156 767.03125 98.296875 766.753906 C 96.433594 766.476562 94.574219 766.152344 92.726562 765.785156 C 90.875 765.417969 89.039062 765.003906 87.207031 764.546875 C 85.378906 764.089844 83.5625 763.585938 81.757812 763.039062 C 79.953125 762.492188 78.164062 761.902344 76.390625 761.265625 C 74.613281 760.628906 72.855469 759.953125 71.113281 759.230469 C 69.371094 758.507812 67.648438 757.746094 65.945312 756.9375 C 64.242188 756.132812 62.558594 755.285156 60.894531 754.398438 C 59.230469 753.507812 57.59375 752.578125 55.976562 751.609375 C 54.359375 750.640625 52.765625 749.632812 51.199219 748.585938 C 49.628906 747.539062 48.089844 746.453125 46.574219 745.328125 C 45.0625 744.207031 43.574219 743.046875 42.117188 741.851562 C 40.660156 740.65625 39.234375 739.421875 37.835938 738.15625 C 36.441406 736.890625 35.074219 735.589844 33.742188 734.257812 C 32.40625 732.925781 31.109375 731.558594 29.84375 730.164062 C 28.578125 728.765625 27.34375 727.339844 26.148438 725.882812 C 24.953125 724.425781 23.792969 722.9375 22.671875 721.425781 C 21.546875 719.910156 20.460938 718.367188 19.414062 716.800781 C 18.367188 715.234375 17.359375 713.640625 16.390625 712.023438 C 15.421875 710.40625 14.492188 708.765625 13.601562 707.105469 C 12.714844 705.441406 11.867188 703.757812 11.058594 702.054688 C 10.253906 700.351562 9.492188 698.625 8.769531 696.886719 C 8.046875 695.144531 7.371094 693.382812 6.734375 691.609375 C 6.097656 689.835938 5.507812 688.042969 4.960938 686.242188 C 4.414062 684.4375 3.910156 682.621094 3.453125 680.792969 C 2.996094 678.960938 2.582031 677.125 2.214844 675.273438 C 1.847656 673.425781 1.523438 671.566406 1.246094 669.703125 C 0.96875 667.839844 0.738281 665.96875 0.554688 664.089844 C 0.371094 662.214844 0.230469 660.335938 0.140625 658.453125 C 0.046875 656.570312 0 654.683594 0 652.800781 L 0 115.199219 C 0 113.316406 0.046875 111.429688 0.140625 109.546875 C 0.230469 107.664062 0.371094 105.785156 0.554688 103.910156 C 0.738281 102.03125 0.96875 100.160156 1.246094 98.296875 C 1.523438 96.433594 1.847656 94.574219 2.214844 92.726562 C 2.582031 90.875 2.996094 89.039062 3.453125 87.207031 C 3.910156 85.378906 4.414062 83.5625 4.960938 81.757812 C 5.507812 79.953125 6.097656 78.164062 6.734375 76.390625 C 7.371094 74.613281 8.046875 72.855469 8.769531 71.113281 C 9.492188 69.375 10.253906 67.648438 11.058594 65.945312 C 11.867188 64.242188 12.714844 62.558594 13.601562 60.894531 C 14.492188 59.230469 15.421875 57.59375 16.390625 55.976562 C 17.359375 54.359375 18.367188 52.765625 19.414062 51.199219 C 20.460938 49.628906 21.546875 48.089844 22.671875 46.574219 C 23.792969 45.0625 24.953125 43.574219 26.148438 42.117188 C 27.34375 40.660156 28.578125 39.234375 29.84375 37.835938 C 31.109375 36.441406 32.40625 35.074219 33.742188 33.742188 C 35.074219 32.40625 36.441406 31.109375 37.835938 29.84375 C 39.234375 28.578125 40.660156 27.34375 42.117188 26.148438 C 43.574219 24.953125 45.0625 23.792969 46.574219 22.671875 C 48.089844 21.546875 49.628906 20.460938 51.199219 19.414062 C 52.765625 18.367188 54.359375 17.359375 55.976562 16.390625 C 57.59375 15.421875 59.230469 14.492188 60.894531 13.601562 C 62.558594 12.714844 64.242188 11.867188 65.945312 11.058594 C 67.648438 10.253906 69.371094 9.492188 71.113281 8.769531 C 72.855469 8.046875 74.613281 7.371094 76.390625 6.734375 C 78.164062 6.097656 79.953125 5.507812 81.757812 4.960938 C 83.5625 4.414062 85.378906 3.910156 87.207031 3.453125 C 89.039062 2.996094 90.875 2.582031 92.726562 2.214844 C 94.574219 1.847656 96.433594 1.523438 98.296875 1.246094 C 100.160156 0.96875 102.03125 0.738281 103.910156 0.554688 C 105.785156 0.371094 107.664062 0.230469 109.546875 0.140625 C 111.429688 0.046875 113.316406 0 115.199219 0 Z M 115.199219 0 " fill-opacity="1" fill-rule="nonzero"/><path fill="rgb(100%, 100%, 100%)" d="M 430.5 684 L 430.5 235.5 C 430.5 204 439.5 183 483 183 L 540 183 L 540 88.5 C 529.5 87 496.5 84 457.5 84 C 376.5 84 321 133.5 321 225 L 321 684 M 535.5 303 L 228 303 L 228 411 L 522 411 " fill-opacity="1" fill-rule="nonzero"/></svg>